<svg  viewBox="0 0 29 16"  xmlns="http://www.w3.org/2000/svg">
<g clip-path="url(#clip0_261_551)">
<path d="M22.4489 1.68403L22.1327 0.735352L20.2354 1.3678L20.5516 2.31649L22.4489 1.68403ZM20.5516 13.6841L20.2354 14.6328L22.1327 15.2652L22.4489 14.3165L20.5516 13.6841ZM20.5516 2.31649C21.6307 5.55384 23.4221 7.2558 25.0214 8.12817C25.8095 8.55806 26.5306 8.77558 27.0633 8.88579C27.3299 8.94095 27.5507 8.96953 27.7111 8.98434C27.7914 8.99175 27.8568 8.99573 27.9055 8.99787C27.9299 8.99893 27.9501 8.99954 27.9659 8.99988C27.9739 9.00005 27.9807 9.00015 27.9864 9.00021C27.9893 9.00024 27.9919 9.00026 27.9942 9.00027C27.9953 9.00028 27.9964 9.00028 27.9974 9.00029C27.9979 9.00029 27.9987 9.00029 27.9989 9.00029C27.9996 9.00029 28.0003 9.00029 28.0003 8.00029C28.0003 7.00029 28.0009 7.00029 28.0015 7.00029C28.0017 7.00029 28.0023 7.00029 28.0027 7.00029C28.0034 7.0003 28.0041 7.0003 28.0047 7.0003C28.0059 7.00031 28.0069 7.00032 28.0075 7.00032C28.0089 7.00034 28.0093 7.00035 28.0086 7.00034C28.0074 7.00031 28.0021 7.00018 27.993 6.99978C27.9748 6.99899 27.9416 6.99711 27.8949 6.9928C27.8014 6.98417 27.655 6.96587 27.4685 6.92728C27.0949 6.84998 26.566 6.6925 25.9791 6.37238C24.8284 5.74473 23.3698 4.44668 22.4489 1.68403L20.5516 2.31649ZM28.0003 8.00029C28.0003 7.00029 27.9996 7.00029 27.9989 7.00029C27.9987 7.00029 27.998 7.00029 27.9975 7.00029C27.9964 7.0003 27.9954 7.0003 27.9942 7.00031C27.9919 7.00032 27.9893 7.00034 27.9865 7.00037C27.9807 7.00043 27.9739 7.00053 27.966 7.0007C27.9501 7.00104 27.9299 7.00165 27.9055 7.00271C27.8568 7.00485 27.7914 7.00883 27.7111 7.01624C27.5507 7.03105 27.3299 7.05962 27.0633 7.11477C26.5306 7.22498 25.8095 7.44249 25.0214 7.87238C23.4221 8.74473 21.6307 10.4467 20.5516 13.6841L22.4489 14.3165C23.3698 11.5539 24.8284 10.2558 25.9791 9.62817C26.566 9.30807 27.0949 9.15059 27.4685 9.0733C27.655 9.03471 27.8014 9.0164 27.8949 9.00778C27.9416 9.00347 27.9748 9.00159 27.993 9.0008C28.0021 9.0004 28.0073 9.00027 28.0086 9.00025C28.0093 9.00023 28.0089 9.00024 28.0075 9.00026C28.0068 9.00027 28.0059 9.00027 28.0047 9.00028C28.0041 9.00028 28.0034 9.00029 28.0027 9.00029C28.0023 9.00029 28.0017 9.00029 28.0015 9.00029C28.0009 9.00029 28.0003 9.00029 28.0003 8.00029Z" fill="#1C242C"/>
<path fill-rule="evenodd" clip-rule="evenodd" d="M0 7H25V9H0V7Z" fill="#1C242C"/>
</g>
<defs>
<clipPath id="clip0_261_551">
<rect width="29" height="16" fill="white"/>
</clipPath>
</defs>
</svg>
