<svg  viewBox="0 0 170 33"  xmlns="http://www.w3.org/2000/svg">
<path d="M54.2119 12.8333C51.3226 15.015 45.289 15.4642 42.6914 15.3175C40.0938 15.1708 34.6982 14.5108 33.3857 11.1467H58.4956C58.3953 9.68 57.5295 3.81333 44.0585 3.81333C36.3387 3.81333 29.266 6.38 29.266 10.3858C29.266 10.3858 28.6918 15.2167 37.6694 16.8025C43.138 17.8933 52.8994 17.5633 57.9396 14.3L54.2119 12.8333ZM44.1223 5.72917C47.3488 5.72917 52.3252 6.41667 54.0114 9.14833H33.5498C35.6096 6.14167 41.8347 5.72917 44.1223 5.72917ZM132.631 12.8333C129.742 15.015 123.708 15.4642 121.111 15.3175C118.513 15.1708 113.118 14.5108 111.805 11.1467H136.924C136.815 9.68 135.958 3.81333 122.478 3.81333C114.758 3.81333 107.686 6.38 107.686 10.3858C107.686 10.3858 107.111 15.2167 116.089 16.8025C121.557 17.8933 131.319 17.5633 136.359 14.3L132.631 12.8333ZM122.542 5.72917C125.768 5.72917 130.745 6.41667 132.431 9.14833H111.969C114.029 6.14167 120.254 5.72917 122.542 5.72917ZM3.91004 0.394167V14.6667H21.692L19.6049 16.7017H0V0.394167H3.91004ZM152.209 0.394167V14.6667H170L167.913 16.7017H148.271V0.394167H152.209ZM83.4415 3.83167C80.4393 3.82668 77.4522 4.25894 74.5732 5.115V0H70.4445V15.6933C74.8189 16.8431 79.3314 17.3738 83.8516 17.27C91.5714 17.1875 97.4319 14.3642 97.4501 10.7983C97.4501 5.68333 90.7876 3.83167 83.4779 3.83167M93.2484 10.7525C93.13 12.8975 90.423 14.3367 87.4062 15.015C83.1694 15.76 78.8252 15.6165 74.6461 14.5933V7.26C74.792 7.26 77.7815 5.8025 83.4597 5.8025C91.1977 5.8025 93.3943 8.65333 93.2849 10.7617M40.6407 27.3625V32.3125H44.8424L44.2682 32.8442H39.711V27.3442L40.6407 27.3625ZM47.8866 27.3625V32.3125H52.0882L51.514 32.8442H46.9569V27.3442L47.8866 27.3625ZM66.4797 27.3625L62.9707 30.5525V32.8442H62.0593V30.5525L58.4956 27.3625H59.7169L62.5241 29.8925L65.2584 27.3625H66.4797ZM36.5301 32.8625H37.5327L33.6136 27.1242L29.6944 32.8625H30.7152L31.6266 31.4967H35.6734L36.5301 32.8625ZM33.6136 28.38L35.245 30.8825H31.9912L33.6136 28.38ZM127.145 27.3258L124.091 33L121.421 28.6825L118.787 33L115.688 27.3258H116.599L118.787 31.4692L121.403 27.1792L124.018 31.4325L126.224 27.3258H127.145ZM72.3858 27.1792C69.8885 27.1792 67.8287 28.325 67.8287 30.0758C67.8287 31.8267 69.852 32.9725 72.3858 32.9725C74.9196 32.9725 76.943 31.8083 76.943 30.0758C76.943 28.3433 74.9196 27.1792 72.3858 27.1792ZM72.3858 32.3125C70.4445 32.3125 68.8677 31.3958 68.8677 30.0758C68.8677 28.7558 70.4445 27.8483 72.3858 27.8483C74.3271 27.8483 75.913 28.8475 75.913 30.0758C75.913 31.3042 74.3363 32.3125 72.3858 32.3125ZM109.49 27.1792C106.993 27.1792 104.933 28.325 104.933 30.0758C104.933 31.8267 106.956 32.9725 109.49 32.9725C112.024 32.9725 114.047 31.8083 114.047 30.0758C114.047 28.3433 112.024 27.1792 109.49 27.1792ZM109.49 32.3125C107.54 32.3125 105.972 31.3958 105.972 30.0758C105.972 28.7558 107.54 27.8483 109.49 27.8483C111.441 27.8483 113.017 28.8475 113.017 30.0758C113.017 31.3042 111.441 32.3125 109.499 32.3125M83.168 32.945C79.8048 32.945 79.7228 31.1117 79.7228 30.9467V27.3717H80.6342V30.8825C80.6342 31.2492 80.8712 32.3217 83.1589 32.3217C85.4466 32.3217 85.6745 31.2583 85.6745 30.8825V27.3717H86.5859V30.9467C86.5859 31.0933 86.4947 32.945 83.1316 32.945H83.168ZM136.368 27.3625V33L130.49 28.7833V32.8533H129.624V27.2067L135.53 31.46V27.3625H136.368ZM93.449 30.9283C94.7158 30.8275 96.0921 30.2958 96.0921 29.095C96.0921 27.6833 94.087 27.1608 92.1001 27.2617C91.3613 27.2888 90.6263 27.3809 89.9035 27.5367V32.8442H90.8149V28.0225C91.2501 27.9332 91.6924 27.8841 92.1365 27.8758C93.695 27.8758 95.1442 28.16 95.1442 29.1408C95.1442 30.415 92.255 30.5525 91.5623 30.3692V30.5708L95.3721 32.8442H96.9033L93.449 30.9283Z" />
</svg>
