<svg  viewBox="0 0 173 46"  xmlns="http://www.w3.org/2000/svg">
<path d="M157.957 39.8205V40.0784C157.957 40.0784 158.284 40.0422 157.945 40.6607L156.853 42.6469L156.699 42.9072L155.485 40.726C155.374 40.5207 155.274 40.3328 155.112 40.1682C154.843 39.8975 154.671 39.8625 154.671 39.8625H153.751V40.0889L153.911 40.1158C154.124 40.1414 154.583 40.6211 155.024 41.3913L156.081 43.2421C156.13 43.3285 156.156 43.4487 156.156 43.5852V44.0871C156.156 44.4126 156.14 45.3124 156.081 45.4069C156.028 45.4922 155.927 45.5271 155.723 45.5353L155.678 45.561V45.8165H157.443V45.561L157.399 45.5353C157.195 45.5269 157.092 45.4922 157.04 45.4069C156.982 45.3124 156.964 44.4126 156.964 44.0871V43.6961C156.964 43.4417 157.01 43.255 157.046 43.15L157.277 42.724L157.335 42.626H157.331L158.369 40.7214C158.593 40.3083 158.916 40.0784 159.187 40.0784V39.8205L157.957 39.8205ZM1.80403 41.8165C1.34086 41.8165 0.861486 42.0102 0.861486 42.0102L0.855002 40.5328H3.67915V39.8606L0.471733 39.8455L0.475439 42.5214L0.558808 42.5751C0.855234 42.4864 1.1725 42.3277 1.53956 42.3277C2.1162 42.3277 3.02516 42.6614 2.96263 43.7222C2.90242 44.7515 2.03862 45.4004 0.82397 45.4004C0.466175 45.4004 0.308699 45.356 0.0991174 45.2942L0.046965 45.4354C0.256547 45.5941 0.431392 45.7528 0.55413 45.9104C2.10805 45.9104 3.62839 44.8647 3.68165 43.5589C3.72454 42.5132 2.85194 41.8165 1.80403 41.8165ZM172.17 45.5367C171.677 45.8366 170.836 46 170.317 46C168.276 46 166.9 44.826 166.9 42.8818C166.9 41.8957 167.282 41.1161 167.937 40.577C168.573 40.0448 169.442 39.7542 170.391 39.7542C171.185 39.7542 171.949 39.9596 172.356 40.1031L172.185 40.8465H171.799C171.799 40.8465 171.908 40.3435 171.291 40.1673C171.014 40.0891 170.563 40.0786 170.249 40.0786C168.65 40.0786 167.809 41.2877 167.809 42.7441C167.809 44.4397 168.923 45.5367 170.606 45.5367C171.218 45.5367 171.941 45.3138 172.332 45.0232L172.408 45.1085L172.17 45.5367ZM103.989 40.9249C103.989 40.6005 103.972 40.3765 103.912 40.2831C103.862 40.1979 103.858 40.1617 103.656 40.1547L103.612 40.1279V39.8724L105.18 39.8714V40.1282L105.134 40.1551C104.931 40.1616 104.922 40.1982 104.874 40.2834C104.814 40.3768 104.796 40.6009 104.796 40.9253V43.8719C104.796 45.0891 105.425 45.4404 106.546 45.4404C107.465 45.4404 108.298 45.0891 108.298 43.6677V40.9253C108.298 40.6009 108.282 40.3768 108.223 40.2834C108.172 40.1982 108.163 40.1714 107.959 40.1551L107.947 40.1282V39.8726C108.939 39.8791 108.515 39.8831 109.065 39.8717V40.1284L109.055 40.1553C108.85 40.1716 108.818 40.1985 108.767 40.2837C108.707 40.377 108.69 40.6011 108.69 40.9255V43.4019C108.69 45.2352 108.001 45.9728 106.283 45.9728C104.838 45.9728 103.989 45.5352 103.989 43.9679L103.989 40.9249ZM139.947 40.9142C139.947 40.5886 139.931 40.3657 139.871 40.2724C139.82 40.186 139.718 40.1603 139.513 40.1428L139.503 40.1183V39.8604C139.877 39.8688 140.466 39.8688 140.619 39.8604L144.683 44.917H144.709V40.9142C144.709 40.5886 144.692 40.3657 144.632 40.2723C144.581 40.186 144.478 40.1603 144.274 40.1428L144.264 40.1182V39.8603C144.603 39.8687 145.169 39.8687 145.543 39.8603V40.1182L145.533 40.1428C145.33 40.1602 145.227 40.1859 145.176 40.2723C145.117 40.3657 145.099 40.5886 145.099 40.9142V45.8156L144.36 45.8249L140.355 40.8115H140.337V44.7618C140.337 45.0874 140.355 45.3103 140.415 45.4048C140.466 45.49 140.568 45.5156 140.772 45.5331L140.783 45.5576V45.8155C140.409 45.8071 139.842 45.8071 139.503 45.8155V45.5576L139.513 45.5331C139.718 45.5156 139.82 45.4899 139.871 45.4048C139.931 45.3103 139.947 45.0874 139.947 44.7618L139.947 40.9142ZM89.4281 40.9142C89.4281 40.5886 89.4119 40.3657 89.3529 40.2724C89.3008 40.186 89.1989 40.1603 88.9951 40.1428L88.9835 40.1183V39.8604C89.3575 39.8688 89.9481 39.8688 90.1009 39.8604L94.1652 44.917H94.1895V40.9142C94.1895 40.5886 94.1722 40.3657 94.1143 40.2723C94.0622 40.186 93.9592 40.1603 93.7554 40.1428L93.7449 40.1182V39.8603C94.0842 39.8687 94.6516 39.8687 95.0256 39.8603V40.1182L95.014 40.1428C94.8113 40.1602 94.7083 40.1859 94.6585 40.2723C94.5994 40.3657 94.5798 40.5886 94.5798 40.9142V45.8156L93.8399 45.8249L89.8358 40.8115H89.8196V44.7618C89.8196 45.0874 89.8358 45.3103 89.8972 45.4048C89.9482 45.49 90.0501 45.5156 90.2538 45.5331L90.2643 45.5576V45.8155C89.8903 45.8071 89.3229 45.8071 88.9837 45.8155V45.5576L88.9952 45.5331C89.1991 45.5156 89.3009 45.4899 89.3531 45.4048C89.4121 45.3103 89.4284 45.0874 89.4284 44.7618L89.4281 40.9142ZM118.068 40.9533C118.068 40.6289 118.05 40.4048 117.991 40.3103C117.94 40.2251 117.925 40.1889 117.719 40.1808L117.676 40.1562V39.861H121.767L121.63 40.5833L121.331 40.5899V40.5245C121.331 40.4137 121.327 40.2935 121.255 40.2935C120.829 40.2935 119.113 40.2897 118.874 40.2897V42.6144L120.763 42.6097C120.763 42.6097 120.822 42.4358 120.83 42.3226L120.871 42.2445H121.127C121.119 42.5946 121.102 42.5538 121.102 42.8712C121.102 43.1898 121.119 43.1489 121.127 43.457H120.871L120.83 43.317C120.821 43.2049 120.763 43.0217 120.763 43.0217C120.763 43.0217 119.164 43.0255 118.874 43.0255V45.4248C119.109 45.4248 121.154 45.4248 121.307 45.4248C121.45 45.4248 121.544 45.4704 121.603 44.9557H121.901C121.816 45.3676 121.767 45.8286 121.767 45.8286L117.668 45.8305V45.5971C117.668 45.5971 117.94 45.5283 117.991 45.443C118.05 45.3473 118.068 45.1244 118.068 44.7988L118.068 40.9533ZM76.8073 40.9533C76.8073 40.6289 76.79 40.4048 76.7309 40.3103C76.68 40.2251 76.6638 40.1889 76.46 40.1808L76.4149 40.1562V39.861H80.5058L80.3691 40.5833L80.0715 40.5899V40.5245C80.0715 40.4137 80.0669 40.2935 79.9962 40.2935C79.5678 40.2935 77.8518 40.2897 77.6156 40.2897V42.6144L79.503 42.6097L79.613 42.2444H79.8677C79.8594 42.5946 79.8411 42.5537 79.8411 42.8711C79.8411 43.1897 79.8596 43.1489 79.8677 43.457H79.613L79.503 43.0217C79.503 43.0217 77.9027 43.0254 77.6156 43.0254V45.4248C77.8495 45.4248 79.8943 45.4248 80.046 45.4248C80.1908 45.4248 80.2846 45.4703 80.3436 44.9556H80.64C80.5555 45.3676 80.5057 45.8285 80.5057 45.8285L76.4079 45.8304V45.597C76.4079 45.597 76.68 45.5282 76.7309 45.443C76.79 45.3473 76.8073 45.1244 76.8073 44.7988V40.9533ZM65.4103 44.7901L66.9653 40.7394C67.1437 40.2761 67.0464 40.1991 66.8252 40.1804L66.7117 40.156V39.8992H67.9426V40.156L67.8824 40.1804C67.7052 40.1991 67.5952 40.387 67.4262 40.7989L65.9452 44.4061C65.7414 44.8951 65.555 45.3829 65.401 45.9057H64.976C64.8406 45.4004 64.653 44.9103 64.4828 44.4913L62.8837 40.5329C62.7748 40.2598 62.6556 40.1886 62.5108 40.1804L62.4448 40.156V39.8992H64.0427V40.156L63.8991 40.1804C63.737 40.1888 63.6583 40.2411 63.7359 40.4465L65.4103 44.7901ZM53.1528 43.5235L52.0806 40.9713L51.0014 43.5235H53.1528ZM54.4879 44.6975C54.5632 44.8691 54.657 45.1001 54.76 45.2799C54.8538 45.4432 54.9476 45.5541 55.0993 45.5716L55.178 45.5973V45.854H53.4898V45.5973L53.5894 45.5716C53.7677 45.5623 53.8765 45.5028 53.8765 45.4001C53.8765 45.2799 53.7816 45.0558 53.6959 44.8516L53.3057 43.8666H50.8567L50.6193 44.4396C50.5429 44.6205 50.3217 45.1935 50.3217 45.33C50.3217 45.5121 50.3739 45.5459 50.639 45.5716L50.7131 45.5973V45.854H49.3503V45.5973L49.4035 45.5716C49.6073 45.5542 49.7694 45.3744 49.8621 45.1503L51.3766 41.6808C51.6395 41.081 51.9278 40.4473 52.1582 39.8311H52.4303L54.4879 44.6975ZM30.9696 44.7594C30.9696 45.0839 30.9881 45.3079 31.046 45.4024C31.0969 45.4877 31.1132 45.5215 31.317 45.5308L31.3621 45.5554V45.8121H29.7746V45.5554L29.8197 45.5308C30.0235 45.5215 30.0339 45.4877 30.0849 45.4024C30.1451 45.3079 30.1624 45.0839 30.1624 44.7594V42.8479H26.7616V44.7594C26.7616 45.0839 26.779 45.3079 26.838 45.4024C26.889 45.4877 26.8925 45.5215 27.0962 45.5308L27.1414 45.5554V45.8121H25.5551V45.5554L25.5991 45.5308C25.804 45.5215 25.826 45.4877 25.8781 45.4024C25.9372 45.3079 25.9535 45.0839 25.9535 44.7594V40.9118C25.9535 40.5874 25.9372 40.3645 25.8781 40.27C25.8261 40.1836 25.804 40.1486 25.5991 40.1404L25.5551 40.1159V39.8592L27.1414 39.8582V40.1161L27.0962 40.1407C26.8925 40.1491 26.889 40.1838 26.838 40.2702C26.779 40.3647 26.7616 40.5876 26.7616 40.9121V42.4385H30.1624V40.9121C30.1624 40.5876 30.145 40.3647 30.0848 40.2702C30.0338 40.1839 30.0234 40.1488 29.8196 40.1407L29.7745 40.1161V39.8594L31.362 39.8585V40.1164L31.3169 40.1408C31.1131 40.1492 31.0969 40.184 31.0459 40.2704C30.988 40.3649 30.9695 40.5878 30.9695 40.9122L30.9696 44.7594ZM13.6099 45.8136V45.5557V45.8136ZM13.6099 45.8136V45.5557V45.8136ZM14.0835 40.2785H12.738C12.4821 40.2785 12.4138 40.3543 12.3976 40.5598L12.0456 40.5635L12.041 39.8575H16.9447L16.9429 40.5577L16.5885 40.5595C16.5711 40.3541 16.504 40.2783 16.2481 40.2783H14.8876L14.8968 44.7596C14.8968 45.3897 15.0068 45.5554 15.375 45.5554V45.8134L13.6099 45.8136V45.5557C14.1055 45.5557 14.0886 45.3851 14.0886 44.7596L14.0835 40.2785Z" />
<path d="M0 0.0403595V1.22253V0.0403595ZM93.4388 1.13795V0.0397993H89.4058C88.197 0.0444673 87.2012 0.0463345 86.6442 0.0463345V1.13398C87.8392 1.13398 87.8855 1.77233 87.8855 4.59997V27.7766C87.8855 30.7011 87.86 31.0874 86.6442 31.0874V32.1855H89.5865C90.8879 32.1818 92.8807 32.179 93.4388 32.179V31.0867C92.245 31.0867 92.1987 30.453 92.1987 27.6253V4.44872C92.1987 1.52422 92.2231 1.13795 93.4388 1.13795ZM143.094 32.1864V31.0008C144.359 31.0008 144.316 30.513 144.316 27.8382C144.316 18.3832 144.294 17.8487 144.354 3.74082C144.354 1.58304 144.366 1.21077 143.094 1.21077V0.0472681H148.491C148.491 0.0472681 150.669 2.95193 151.259 3.75016L155.847 9.50463L162.536 17.7203C164.677 20.3402 166.398 22.4011 167.698 23.9054C168.524 24.8985 169.097 25.6816 169.658 26.2534C169.658 26.2534 169.687 6.29538 169.687 4.30915C169.687 1.43366 169.672 1.21894 168.577 1.21894V0.0472681H173V1.21077C171.92 1.21077 171.907 1.34264 171.907 4.31965V32.1853H169.615L146.554 4.77712C146.554 4.77712 146.534 25.8403 146.534 27.8697C146.534 30.5748 146.593 31.0031 147.688 31.0031V32.1864H143.094ZM140.049 27.9668C139.618 30.0709 138.462 30.0581 136.627 30.0581H123.401V16.7088H130.234C134.148 16.7088 134.448 16.7144 134.448 17.9364H135.798V13.3898H134.456C134.456 14.6058 134.145 14.6058 130.08 14.6058H123.401V6.91413C123.432 5.44721 123.401 3.87526 123.401 2.19478C124.046 2.19478 134.589 2.19011 135.856 2.19011C137.753 2.19011 139.12 2.15277 139.12 3.57301H140.359L140.974 0.0451675H117.911V1.22734C119.119 1.22734 119.097 1.50858 119.097 4.5953C119.097 7.68435 119.137 25.8335 119.137 27.7789C119.137 30.3265 119.119 31.0033 116.189 31.0033C115.837 31.0033 115.51 30.9578 115.193 30.8656C114.89 30.7349 114.656 30.5459 114.502 30.4525C114.203 30.2716 112.965 29.1571 110.793 27.1079L97.3055 14.4063C97.3055 14.4063 108.909 1.23551 110.56 1.23551C111.068 1.23551 110.095 1.2271 111.52 1.2271V0.0507691H107.909L92.8788 16.0165L93.503 16.6455L103.71 26.3001L106.025 28.5419C108.184 30.6262 109.781 32.1899 109.781 32.1899L113.139 32.1881V32.1899H116.195C117.042 32.1899 116.195 32.1881 116.195 32.1881C119.925 32.1881 120.893 32.1787 121.088 32.1787C133.93 32.1904 135.665 32.1904 136.288 32.1904C136.888 32.1904 140.974 32.1857 140.974 32.1857L141.575 27.967L140.049 27.9668ZM59.6682 29.8808H65.056C70.8398 29.8808 72.7318 28.841 73.7577 28.2365C74.7836 27.6331 75.7748 26.7439 76.7335 25.5687C77.6911 24.3912 78.4276 22.8881 78.944 21.0571C79.4616 19.2249 79.7198 17.3285 79.7198 15.3668C79.7198 12.5637 79.2207 10.1538 78.2261 8.14075C77.2303 6.12768 75.7296 4.58724 73.7241 3.5171C71.7174 2.4458 68.6328 2.16338 59.63 2.16338C59.5894 2.90326 59.63 16.724 59.63 16.724L59.6682 29.8808ZM54.2179 32.1868V31.0875C55.4337 31.0875 55.4581 30.7012 55.4581 27.7767V4.60008C55.4581 1.77244 55.4117 1.13409 54.2179 1.13409V0.0476136C56.5349 0.0476136 66.464 0.0009336 67.6902 0.0009336C71.3515 0.0009336 74.2961 0.472401 76.5228 1.41417C78.7506 2.35711 80.6403 3.93606 82.1954 6.15336C83.7481 8.37065 84.5263 11.0758 84.5263 14.2722C84.5263 16.5653 84.1592 18.7149 83.4274 20.7187C82.6945 22.7247 81.6998 24.4776 80.4458 25.9772C79.1906 27.4779 77.8451 28.6648 76.4105 29.54C74.9758 30.4153 73.4694 31.0735 71.8923 31.5181C70.3152 31.9639 68.1522 32.1868 65.4034 32.1868H54.2179ZM50.7454 27.9639C50.3134 30.0668 49.159 30.0528 47.3237 30.0528H34.0969V16.7047H40.9309C44.8435 16.7047 45.1434 16.7103 45.1434 17.9323H46.3291V13.3869H45.1526C45.1526 14.6017 44.8412 14.6017 40.7769 14.6017H34.0969V6.91004C34.1282 5.44195 34.0969 3.87234 34.0969 2.19069C34.743 2.19069 45.2847 2.18696 46.5526 2.18696C48.4481 2.18696 49.8167 2.14849 49.8167 3.56985H51.0557L51.6694 0.039678H28.6072V1.22302C29.815 1.22302 29.7941 1.50426 29.7941 4.59214C29.7941 7.68002 29.925 25.828 29.925 27.7734C29.925 30.321 29.815 30.9978 26.8854 30.9978C25.2366 30.9978 24.1053 30.1109 22.1611 27.1701L16.5129 19.4072C15.1234 17.582 14.2422 16.4068 13.8682 15.8794C15.9235 15.4254 17.592 14.7847 18.8738 13.9538C20.1568 13.1229 21.1364 12.0808 21.8115 10.8274C22.4865 9.57406 22.8246 8.3137 22.8246 7.04518C22.8246 5.68562 22.4645 4.42876 21.7455 3.27343C21.0264 2.1181 20.0109 1.28487 18.7002 0.771387C17.3894 0.257907 15.3028 0 12.4416 0C12.0653 0 0.613702 0.0403595 0 0.0403595V1.22253C1.25402 1.22253 1.22843 2.22197 1.22843 4.59448C1.22843 6.5562 1.22843 27.3428 1.22843 27.6591C1.22843 30.0211 1.22751 31.0013 0.00914287 31.0013V32.1858H6.64399V30.9978C5.43859 30.9978 5.43859 29.9802 5.43859 27.9286C5.43859 25.9809 5.44785 2.43903 5.44785 1.61629C7.03535 1.61629 9.32454 1.6219 10.8692 1.6219C13.3286 1.6219 15.1662 2.17155 16.3797 3.26736C17.5943 4.36434 18.2034 5.94446 18.2034 7.80349C18.2034 9.93793 17.4982 11.6546 16.0925 12.9546C14.6845 14.2547 12.6188 14.9047 9.89422 14.9047C9.49012 14.9047 8.89959 14.8837 8.12146 14.837L7.89683 15.515C9.31644 17.1582 10.8101 18.9868 12.3791 21.0034C13.3506 22.2241 14.4703 23.7447 15.7405 25.5676C18.0274 28.8503 19.6554 31.056 20.6269 32.1856L51.6694 32.1727L52.2715 27.9634L50.7454 27.9639Z" />
</svg>
