<svg  viewBox="0 0 157 45"  xmlns="http://www.w3.org/2000/svg">
<path fill-rule="evenodd" clip-rule="evenodd" d="M17.2878 0.232636C17.1178 0.347564 14.2573 3.44579 10.9311 7.1178L4.88312 13.7936L4.72139 7.1178C4.63269 3.44579 4.53276 0.40958 4.49964 0.370607C4.46683 0.331634 3.44059 0.299488 2.21981 0.299488H0L0.0762802 16.8702L0.15256 33.4409L2.10184 33.524C3.48198 33.5829 4.14929 33.493 4.38848 33.2156C4.61998 32.9473 4.75066 30.2599 4.80447 24.67L4.88312 16.5155L14.4921 27.0732C19.777 32.8799 24.4771 37.9365 24.9368 38.3097C25.6715 38.9063 26.0704 38.9882 28.2388 38.9882C30.7924 38.9882 31.6403 38.8348 31.6403 38.3737C31.6403 38.2255 26.8285 33.1507 20.9475 27.0962C15.0665 21.0415 10.0033 15.8162 9.69616 15.4839C9.13854 14.8809 9.14741 14.87 15.9488 7.8031C19.6948 3.91091 22.7622 0.566326 22.7652 0.370607C22.769 0.112587 22.0612 0.01615 20.1835 0.0192793C18.7608 0.0218396 17.4575 0.117708 17.2878 0.232636ZM63.3829 0.362926C63.2599 0.554378 63.1709 7.99484 63.1851 16.8975C63.2064 30.2155 63.2821 33.1277 63.613 33.3294C64.1647 33.6656 74.178 33.6369 76.7284 33.2918C82.667 32.4882 87.4508 27.8276 88.8472 21.4847C89.406 18.9454 89.406 14.6527 88.8472 12.1135C87.5147 6.06183 83.1806 1.58162 77.5474 0.432907C74.9178 -0.103045 63.7179 -0.158518 63.3829 0.362926ZM139.773 0.21443C138.961 1.61149 126.804 32.792 126.939 33.13C127.172 33.7151 130.445 33.7789 130.938 33.2076C131.116 33.0014 131.878 30.985 132.631 28.7271C133.385 26.4695 134.136 24.4623 134.302 24.2666C134.731 23.7591 146.636 23.7591 147.3 24.2666C147.555 24.4623 148.458 26.4784 149.306 28.7471C150.154 31.0158 150.984 33.0321 151.151 33.2276C151.598 33.7507 156.669 33.7194 156.879 33.1923C156.965 32.9775 156.629 32.0493 156.132 31.1298C155.636 30.2104 152.461 22.8655 149.077 14.8077L142.923 0.15725L141.414 0.0721918C140.584 0.0252533 139.845 0.0892603 139.773 0.21443ZM26.9098 0.517112C26.9098 0.636876 29.8341 5.0215 33.4084 10.2604L39.9067 19.7861L39.9129 26.3654C39.9176 31.6746 39.9992 33.0088 40.3357 33.2773C40.5905 33.481 41.5384 33.5775 42.7749 33.5257L44.7972 33.4409L44.945 26.0445L45.0928 18.6482L50.9321 9.77025C54.1439 4.88751 56.7714 0.758916 56.7714 0.595912C56.7714 0.418399 55.937 0.299488 54.6917 0.299488H52.6123L51.9569 1.35319C51.5965 1.93266 49.57 5.41948 47.4534 9.10202C45.337 12.7846 43.4079 15.8276 43.1663 15.8649C42.8789 15.909 41.0104 13.2363 37.7492 8.11603L32.7712 0.299488H29.8403C28.2287 0.299488 26.9098 0.397347 26.9098 0.517112ZM96.945 0.496914C96.7416 1.79042 96.8646 32.9562 97.0742 33.2276C97.4766 33.7479 101.239 33.704 101.697 33.1738C101.954 32.8754 102.031 30.8217 101.982 25.6087C101.925 19.7118 101.987 18.4084 102.33 18.1993C102.559 18.0599 103.691 17.9438 104.846 17.9412C106.548 17.9378 107.128 18.0585 107.904 18.5771C108.556 19.0129 110.298 21.4861 113.364 26.329L117.866 33.4409L120.585 33.5228C123.806 33.6198 124.135 33.3416 122.782 31.6686C122.304 31.0786 120.009 27.9719 117.68 24.7644C115.351 21.5569 113.135 18.6066 112.755 18.2084L112.065 17.4841L113.66 16.9624C119.164 15.1625 122.081 9.12705 119.623 4.62352C119.024 3.52516 117.157 1.89255 115.608 1.11195C114.312 0.459079 114.052 0.43945 105.629 0.354676C100.873 0.306884 96.9648 0.370891 96.945 0.496914ZM76.6471 2.87285C79.2536 3.56925 81.6086 6.27462 82.8264 9.97166C83.6921 12.5996 83.9138 18.3748 83.274 21.6352C82.3403 26.3942 79.9446 29.6929 76.7615 30.6027C74.6286 31.212 69.2671 31.179 68.5472 30.5521C68.0381 30.1088 68.0065 29.3069 68.0065 16.8486C68.0065 4.93445 68.0552 3.56385 68.4958 3.0956C68.9141 2.65096 69.4617 2.57558 72.2654 2.577C74.0696 2.57785 76.0413 2.71099 76.6471 2.87285ZM111.951 3.21935C114.123 4.33022 115.143 6.40434 114.968 9.35748C114.769 12.7422 112.987 14.7884 109.728 15.3747C107.578 15.7616 102.393 15.7468 102.14 15.3534C102.031 15.1841 101.961 12.3997 101.985 9.16603C102.022 3.97605 102.086 3.2421 102.534 2.90756C103.303 2.33434 110.699 2.57899 111.951 3.21935ZM143.669 13.826C145.147 17.5888 146.356 20.821 146.356 21.009C146.356 21.2625 144.947 21.3507 140.887 21.3507C136.358 21.3507 135.417 21.2813 135.417 20.9464C135.417 20.6446 139.112 10.0081 140.309 6.86604C140.401 6.62452 140.567 6.56762 140.722 6.7238C140.866 6.86718 142.192 10.0633 143.669 13.826ZM97.1783 38.3245C97.0698 38.4286 96.9811 39.9648 96.9811 41.7382V44.9622H99.2804C102.061 44.9622 102.894 44.5423 102.894 43.141C102.894 42.5632 102.665 42.0065 102.296 41.6847C101.888 41.3294 101.794 41.0711 102 40.8725C102.543 40.3502 102.342 39.0465 101.646 38.5777C100.982 38.1302 97.5804 37.9373 97.1783 38.3245ZM104.303 38.2963C104.196 38.3996 104.766 39.3207 105.571 40.3431C106.857 41.9783 107.034 42.3683 107.034 43.5822C107.034 44.9258 107.057 44.9622 107.921 44.9622C108.792 44.9622 108.807 44.9371 108.807 43.4809C108.807 42.213 108.978 41.7664 109.99 40.3776C111.224 38.6849 111.425 38.1319 110.803 38.139C110.218 38.1461 109.876 38.4699 108.96 39.8837L108.104 41.206L107.042 39.7415C106.041 38.3589 104.876 37.7447 104.303 38.2963ZM117.308 38.2978C117.186 38.4167 117.086 39.9648 117.086 41.7382V44.9622H117.973C118.84 44.9622 118.86 44.9306 118.86 43.5398V42.1174H119.914C121.711 42.1174 122.691 41.4074 122.699 40.0991C122.706 38.8866 121.738 38.3071 119.504 38.1874C118.418 38.1291 117.43 38.1788 117.308 38.2978ZM125.572 38.3145C125.458 38.4244 125.364 39.9648 125.364 41.7382V44.9622H126.104C126.803 44.9622 126.843 44.8768 126.843 43.3976V41.8329H128.321H129.799V43.3976C129.799 44.9499 129.806 44.9622 130.696 44.9622H131.592L131.509 41.6196L131.425 38.277H130.686C130.003 38.277 129.94 38.3899 129.858 39.7705L129.768 41.264H128.321H126.874L126.784 39.773C126.72 38.6997 126.567 38.2588 126.237 38.1988C125.985 38.1527 125.686 38.2047 125.572 38.3145ZM133.643 38.4047C133.643 38.5743 134.242 39.5042 134.973 40.472C136.111 41.9769 136.304 42.4286 136.304 43.5967C136.304 44.9243 136.328 44.9622 137.191 44.9622C138.061 44.9622 138.078 44.934 138.078 43.5082C138.078 42.2488 138.253 41.8127 139.393 40.2444C140.116 39.249 140.581 38.3586 140.425 38.2662C139.832 37.9134 139.082 38.4662 138.274 39.8533L137.436 41.2919L136.344 39.7844C135.549 38.6872 135.033 38.2525 134.447 38.1871C134.005 38.1376 133.643 38.2355 133.643 38.4047ZM142.371 38.4093C142.02 38.956 142.518 39.2362 143.553 39.0744L144.582 38.9136V41.957V45L145.395 44.9098L146.208 44.8199L146.293 41.8836L146.378 38.9475L147.328 39.0388C148.018 39.1054 148.278 39.0135 148.278 38.7037C148.278 38.3595 147.726 38.2613 145.419 38.1959C143.676 38.1464 142.487 38.2295 142.371 38.4093ZM151.577 38.7191C150.054 39.872 149.88 42.9737 151.265 44.3059C151.828 44.8475 152.261 44.9622 153.748 44.9622C155.266 44.9622 155.663 44.8524 156.274 44.2638C156.906 43.6564 157 43.3085 157 41.5866C157 39.7261 156.946 39.5637 156.09 38.8713C154.91 37.9157 152.736 37.8423 151.577 38.7191ZM154.75 39.1395C155.644 39.9998 155.743 43.0246 154.909 43.9918C154.393 44.5895 152.939 44.4968 152.575 43.843C152.07 42.935 152.194 39.8245 152.759 39.224C153.356 38.5893 154.143 38.5561 154.75 39.1395ZM100.513 39.3967C101.082 40.0561 100.395 40.9795 99.336 40.9795C98.4352 40.9795 98.2167 40.4965 98.6389 39.4382C98.863 38.8764 100.042 38.8502 100.513 39.3967ZM120.462 39.1609C121.014 39.3648 121.089 40.7127 120.575 41.2071C120.38 41.3948 119.914 41.5485 119.54 41.5485C118.931 41.5485 118.86 41.4145 118.86 40.2683C118.86 38.9392 119.208 38.698 120.462 39.1609ZM100.973 42.964C100.973 43.7944 100.838 43.9984 100.131 44.2376C99.4306 44.4746 99.219 44.4308 98.8742 43.9767C98.646 43.6766 98.4594 43.0641 98.4594 42.6155C98.4594 41.8324 98.5088 41.8036 99.716 41.8878C100.936 41.9726 100.973 42.0042 100.973 42.964Z" />
</svg>
