<svg  viewBox="0 0 169 64"  xmlns="http://www.w3.org/2000/svg">
<path fill-rule="evenodd" clip-rule="evenodd" d="M27.2002 0.327069C20.1579 1.38951 13.5547 4.81659 8.67397 9.94261C4.96121 13.8419 2.5713 17.9921 0.914212 23.4173C0.118013 26.0239 0.0288196 26.8232 0.00268255 31.6022C-0.0205141 35.8048 0.101023 37.3955 0.591419 39.3057C2.12109 45.2675 4.54171 49.6158 8.75337 53.9673C11.7895 57.1046 14.3826 58.9874 18.3607 60.9431C25.6644 64.5342 35.3537 64.9961 43.5571 62.1442C53.0883 58.8308 60.637 50.8031 63.7134 40.7096C64.4233 38.3806 64.6108 37.0062 64.7428 33.1731C64.9258 27.8657 64.5047 25.0787 62.8358 20.5477C60.0287 12.9255 52.8413 5.59625 45.0486 2.40925C39.9182 0.31102 32.8063 -0.518708 27.2002 0.327069ZM43.7532 3.08363C45.1907 3.59591 47.1755 4.51359 48.1638 5.1228C49.8284 6.14897 49.8918 6.23082 49.025 6.23756C47.7181 6.24783 45.6389 7.47236 44.88 8.6786C44.1158 9.89382 43.6421 12.6645 44.1988 12.6645C44.403 12.6645 44.5699 12.2989 44.5699 11.8518C44.5699 10.6247 45.4053 8.91131 46.2104 8.48826C47.1369 8.00101 48.8943 8.33098 49.6307 9.13021C50.3358 9.89542 50.3603 12.2498 49.6771 13.5401C48.1471 16.4296 44.8525 17.3187 41.4662 15.7562C39.5912 14.8911 38.793 14.1083 37.8723 12.2312C37.3042 11.0731 36.985 10.8256 35.4272 10.3355C33.0847 9.5982 32.1222 8.6343 31.9422 6.84453C31.7563 4.99762 32.33 4.01126 34.1239 3.09101C35.5981 2.33511 35.2766 2.7328 33.3137 4.09343C32.329 4.77583 32.2326 5.89219 33.0422 7.23869C33.7348 8.39068 33.8952 8.39582 34.6085 7.28812C34.9211 6.80248 35.455 6.18652 35.7948 5.91883C36.2394 5.56832 36.4688 4.83842 36.6138 3.31217L36.8154 1.1921L38.9776 1.67229C40.1665 1.93613 42.3156 2.57135 43.7532 3.08363ZM30.7523 2.42209C29.2461 3.64181 28.561 4.88881 28.561 6.41057C28.561 8.09153 28.9472 8.59129 31.4135 10.1025C36.4204 13.1704 37.0562 14.6697 35.5533 19.8647C34.6055 23.1403 35.1714 25.7155 37.1666 27.2055C38.8152 28.4364 39.9496 28.9082 43.4264 29.8089C49.4654 31.3737 51.5149 32.8932 51.905 36.0959L52.0811 37.5403L51.6165 35.9775C50.737 33.018 48.8871 31.7746 43.3885 30.4473C41.4462 29.9787 39.2383 29.3345 38.4826 29.0161C36.8197 28.316 34.5889 26.3931 33.8828 25.0514C33.0448 23.4593 33.1683 20.8424 34.1978 18.3872C35.2243 15.9385 35.3344 14.2845 34.549 13.1068C34.2487 12.6565 32.8426 11.6258 31.4246 10.8163C30.0064 10.0065 28.6348 9.04804 28.3767 8.68598C28.1186 8.32424 27.9076 7.34911 27.9076 6.51906C27.9076 5.28907 28.119 4.73827 29.0511 3.53846C30.4298 1.76409 30.4599 1.59911 29.2961 2.19388C28.1082 2.80117 27.0901 3.93518 26.668 5.12152C26.3289 6.07482 26.3253 6.07611 26.2998 5.24959C26.223 2.76458 27.6589 1.4675 30.5141 1.44279L31.9771 1.43027L30.7523 2.42209ZM24.3049 3.11541C23.9583 3.86553 23.6714 4.92123 23.6675 5.46143C23.6636 6.00132 23.4649 6.70587 23.2261 7.02652C22.8602 7.51826 22.6759 7.54908 22.0558 7.22296C21.4246 6.89107 21.1466 6.95398 20.1037 7.66399C19.4349 8.11913 18.6678 8.49179 18.3989 8.49179C17.2018 8.49179 16.6765 6.84485 17.6952 6.28506C18.0082 6.11302 18.1558 5.86587 18.0238 5.73587C17.6481 5.36707 16.4726 6.58775 16.4726 7.34654C16.4726 8.17338 17.2557 9.32858 18.1268 9.78661C18.6136 10.0424 19.1138 9.97278 20.2096 9.49677C21.6288 8.87985 21.6605 8.87953 22.2166 9.48329C22.9912 10.3246 23.6727 10.2524 24.4924 9.24256C25.2984 8.24945 26.1711 8.44396 25.6016 9.48971C25.0792 10.4482 24.053 10.7014 19.232 11.0609C13.8142 11.465 11.8637 11.8521 9.82466 12.928C6.95416 14.4427 5.69958 17.0394 5.68782 21.4914C5.68063 24.289 5.44049 24.9936 4.60313 24.6778C4.30321 24.5644 4.05752 24.6164 4.05752 24.793C4.05752 24.9695 4.30484 25.2074 4.60738 25.3213C5.64208 25.7113 6.32785 24.5131 6.83589 21.4275C7.39718 18.0181 7.72781 17.0597 8.83406 15.6345C9.74755 14.4581 10.8711 13.8081 12.5521 13.4843L13.6956 13.2641L12.3116 14.1031C11.5069 14.591 10.5493 15.5745 10.0246 16.4514C9.23559 17.77 9.12386 18.2848 9.13856 20.5285C9.15816 23.4866 9.82172 25.0937 11.6879 26.7038C13.8174 28.5407 16.403 28.8145 18.2365 27.3977C19.5427 26.3882 19.2438 26.0596 17.8611 26.9846C16.9258 27.6105 16.3736 27.763 15.5274 27.6298C11.2383 26.9538 10.3667 19.6291 14.1516 16.0669C15.5843 14.7181 16.1704 15.2416 18.5387 19.9841C19.8701 22.6501 20.7738 24.0916 21.1596 24.1645C22.0003 24.3237 22.8334 23.4632 23.6923 21.5489L24.4382 19.8865L24.6921 21.4914C25.2913 25.2805 23.7825 32.0326 21.8977 33.9957C20.2899 35.6706 17.7795 35.452 17.7795 33.6372C17.7795 32.8733 17.8657 32.8216 18.8413 33.0004L19.9031 33.1952L19.1226 32.5517C17.0747 30.864 14.5646 34.2214 16.4726 36.0959C16.832 36.449 17.126 36.8309 17.126 36.9449C17.126 37.376 12.7327 36.7257 11.4158 36.0994C9.69659 35.2816 9.199 34.3402 9.775 32.9946C10.5072 31.2835 12.3034 31.2944 13.0657 33.0145C13.4904 33.973 13.507 33.9797 13.5195 33.1984C13.5482 31.3695 11.4955 30.1957 9.54368 30.9246C8.29727 31.39 6.16678 33.3631 5.69043 34.4923C5.31732 35.3779 5.19383 35.4347 4.04216 35.2537C2.99766 35.0896 2.66507 35.1879 1.97897 35.8619L1.16121 36.6653L0.932835 34.5693C0.657089 32.042 0.959625 28.082 1.66206 25.0238C4.02387 14.7377 11.8588 6.18717 22.1457 2.66892C23.6077 2.16884 24.8332 1.75799 24.8695 1.75542C24.9057 1.75318 24.6516 2.36528 24.3049 3.11541ZM30.4167 11.8216C33.4993 13.335 34.0037 15.3492 31.9595 17.9802C28.9717 21.8255 28.8449 22.8588 30.9839 25.9283C34.1756 30.5083 34.2046 31.0296 31.4188 33.6748C30.2952 34.7417 27.0977 37.1262 24.3128 38.9741C18.6276 42.7462 14.4147 46.5299 14.0429 48.1977C13.6743 49.8511 14.5336 51.1414 17.163 52.8831C18.4427 53.7304 19.5287 54.3804 19.5764 54.3275C19.6244 54.2745 19.5535 53.4367 19.4186 52.4658C18.9439 49.0435 19.7433 46.2661 21.8836 43.9043L22.9967 42.676L21.9735 44.6702C19.7329 49.0361 20.6144 55.223 24.0203 59.034C25.8725 61.1065 24.4993 60.2078 22.0186 57.724C20.6755 56.3792 18.3685 54.5037 16.8921 53.5565C12.9954 51.0564 12.2917 49.1925 14.1543 46.3069C15.3869 44.3977 18.0562 42.2397 24.0886 38.276C31.4312 33.4514 33.2183 31.615 32.5113 29.6221C32.3231 29.0918 31.6527 27.9668 31.0212 27.1217C29.5852 25.2 28.5777 23.0475 28.5682 21.8824C28.5581 20.6392 29.2719 19.0914 30.7761 17.0956C31.4818 16.159 32.1431 15.1566 32.2457 14.868C32.5097 14.125 31.6674 13.0818 30.2165 12.3544C28.6865 11.5876 26.9274 10.1612 26.9274 9.68711C26.9274 9.49324 27.3316 9.70733 27.8259 10.1625C28.3199 10.6179 29.4859 11.3645 30.4167 11.8216ZM54.8761 11.8476C57.1327 14.0643 54.6196 17.9529 50.2057 19.0738C49.3524 19.2905 48.482 19.5167 48.2719 19.5768C48.0615 19.6368 48.613 20.3965 49.4971 21.2651C50.8043 22.5493 51.1016 23.0475 51.0898 23.9331L51.0755 25.0222L50.6275 23.788C49.9601 21.9485 49.0139 21.1486 45.3985 19.3665C43.595 18.4777 41.9726 17.6015 41.7929 17.4192C41.6132 17.2368 42.0853 17.3922 42.8416 17.7648C44.978 18.8167 47.857 18.7018 50.3782 17.4641C53.8306 15.7693 55.4243 13.1046 53.6967 11.9157C52.2428 10.9152 50.5266 12.418 51.7501 13.6201C52.1137 13.9773 52.2745 14.2694 52.1075 14.2694C51.4518 14.2694 50.7585 13.2285 50.9627 12.5506C51.4548 10.9177 53.5474 10.5419 54.8761 11.8476ZM27.1016 12.0588C28.6188 12.434 30.1946 13.6085 30.1946 14.3641C30.1946 14.6093 29.4421 15.9089 28.5228 17.2519C26.2652 20.5487 26.1574 21.5925 27.6844 25.3704C29.1504 28.9975 29.3386 29.9572 28.8991 31.5608C28.4205 33.3069 27.1826 34.674 25.1759 35.6732C22.2414 37.1343 18.2503 36.9847 17.241 35.3759C17.0908 35.1365 17.3168 35.1837 17.7968 35.4921C20.1494 37.0033 22.6655 36.4506 25.3488 33.8333C28.2529 31.001 28.4055 29.7807 26.5746 24.0387C25.6399 21.1069 25.8421 20.0935 27.9821 16.9813C29.317 15.0401 29.5944 14.4235 29.3235 14.0004C28.6231 12.9059 27.0153 12.3256 23.9396 12.0569L20.8832 11.7898L23.2705 11.7459C24.5836 11.7215 26.3077 11.8624 27.1016 12.0588ZM24.0677 13.172C24.3261 13.4255 23.1928 17.3601 22.2796 19.3797L21.5367 21.0228L19.5156 18.0473C17.16 14.5791 16.9359 14.1018 17.5011 13.7587C18.4581 13.1774 23.6054 12.7175 24.0677 13.172ZM12.4459 15.8663C11.2929 17.2124 10.7796 18.9027 10.7666 21.3993C10.7604 22.5843 10.6552 23.3065 10.533 23.0042C10.4108 22.7018 10.3039 21.5877 10.2951 20.5285C10.2772 18.3294 11.0812 16.2485 12.2626 15.4355C13.3417 14.6928 13.378 14.7778 12.4459 15.8663ZM60.5733 18.1458C60.5763 18.2476 60.1009 18.2839 59.5171 18.2264L58.4552 18.1221L59.3544 18.4697C60.3528 18.8555 60.8703 20.1609 60.3489 20.9794C59.9931 21.5383 58.3255 21.8105 57.1033 21.5091C56.0095 21.2391 56.1023 19.9148 57.3412 18.1211C57.8897 17.3267 58.4222 16.2684 58.5245 15.769C58.7101 14.8626 58.7114 14.8632 59.6389 16.411C60.1499 17.2635 60.5704 18.0441 60.5733 18.1458ZM56.6158 17.2805C56.0199 18.0435 54.9787 19.0767 54.3021 19.5768C53.1448 20.4315 53.1037 20.5204 53.6085 21.0684C54.4001 21.9279 57.9296 23.5778 58.9764 23.5778C59.4749 23.5778 60.2819 23.4288 60.7697 23.2465C61.5361 22.9602 61.6018 22.9798 61.2548 23.3906C59.7304 25.1952 55.6841 24.4357 52.6665 21.7787L51.4518 20.7092L52.5506 20.1972C54.1557 19.4487 56.0987 17.7167 56.8305 16.3814C57.182 15.7401 57.5212 15.3684 57.5846 15.5546C57.6476 15.7411 57.2118 16.5178 56.6158 17.2805ZM41.5825 18.7178C42.2372 19.2224 43.2141 19.8714 43.7532 20.1603L44.7333 20.6851L42.9661 20.6068C41.2211 20.5294 41.1914 20.5111 40.6108 19.1643C40.2874 18.4139 40.1057 17.8002 40.2073 17.8002C40.309 17.8002 40.9277 18.2129 41.5825 18.7178ZM39.041 21.1123C39.4216 22.1395 39.9443 23.0597 40.2031 23.1573C40.4615 23.2545 41.7334 22.9551 43.0298 22.4916C44.3262 22.0281 45.8023 21.6496 46.3103 21.6503C47.6868 21.6525 48.9976 23.105 49.2772 24.9381C49.6484 27.3682 48.5003 28.6287 47.3656 27.0369C46.9353 26.4335 46.8569 26.411 46.8569 26.8912C46.8569 27.2032 47.2179 27.8131 47.659 28.2464C48.6166 29.1875 50.5534 29.3133 51.7204 28.5102C52.5659 27.9283 53.6996 25.7261 53.7107 24.6434L53.7179 23.944L55.1064 24.6983C55.8703 25.1133 57.0095 25.4789 57.6385 25.5107C60.3708 25.649 60.9605 25.5139 61.891 24.5352L62.8116 23.5668L62.9959 24.455C63.3733 26.274 63.8411 29.5441 63.8434 30.3783C63.8457 31.1737 63.7627 31.2276 62.7767 31.0704C61.2931 30.8338 60.2626 31.7162 59.9291 33.5088C59.7768 34.327 59.835 36.5279 60.0689 38.7934C60.2891 40.9289 60.4028 43.3137 60.3214 44.0931L60.1731 45.5102L59.4592 42.8092C58.0531 37.4889 54.9356 33.1622 50.7553 30.7285C49.7781 30.1597 46.9987 28.9599 44.5784 28.0628C39.4892 26.1758 38.2046 25.4719 37.5378 24.2046C36.9595 23.1059 36.9095 20.5541 37.4375 19.0664C37.8684 17.8515 37.8008 17.7652 39.041 21.1123ZM91.2095 18.4691C87.7431 19.2718 83.3521 22.5439 81.844 25.4481C80.0066 28.9869 79.7485 33.4571 81.168 37.1696C82.1495 39.7364 85.4107 43.1295 88.1424 44.4259C95.5045 47.9201 103.961 44.9058 107.691 37.4572C108.703 35.4356 108.769 35.0989 108.769 31.929C108.769 28.792 108.695 28.3982 107.716 26.3696C106.471 23.7854 103.631 20.8437 101.334 19.7591C98.1189 18.2399 94.2999 17.7533 91.2095 18.4691ZM110.239 19.51C110.149 19.598 110.208 22.4993 110.369 25.9572C110.542 29.6661 110.542 34.8097 110.369 38.5004C110.047 45.3735 109.973 45.0833 112.059 45.0833H113.172L113.257 32.9664L113.343 20.8494L115.802 20.8841C118.51 20.9226 119.887 21.4323 120.983 22.8013C122.003 24.0753 122.176 25.5842 121.463 26.9936C120.698 28.5048 119.659 29.2334 117.59 29.7094C116.692 29.9158 115.772 30.1334 115.546 30.1925C115.297 30.2576 116.832 32.8084 119.432 36.6486C121.795 40.1402 123.93 43.4665 124.176 44.0401C124.642 45.126 125.363 45.3125 127.158 44.8105C127.873 44.6108 127.796 44.4449 125.351 40.9106C123.946 38.8804 121.815 35.8353 120.615 34.1437L118.433 31.0681L120.16 30.3645C121.11 29.9774 122.384 29.158 122.991 28.543C123.965 27.5553 124.11 27.1839 124.228 25.3573C124.398 22.7339 123.65 21.3909 121.417 20.3105C120.064 19.6557 119.303 19.5524 115.14 19.4577C112.534 19.3986 110.329 19.4221 110.239 19.51ZM128.532 30.88C128.53 37.1911 128.438 42.8894 128.328 43.5426C128.146 44.6272 128.203 44.7485 128.985 44.9417C129.457 45.0579 130.186 45.0682 130.606 44.9645L131.369 44.7764L131.341 32.0907L131.312 19.4054L129.924 19.405H128.535L128.532 30.88ZM135.233 32.024C135.233 39.0001 135.306 44.7796 135.396 44.867C135.745 45.2059 144.774 44.4558 146.196 43.9695C149.454 42.8554 151.98 39.4431 151.653 36.597C151.356 34.0073 149.359 31.8388 146.328 30.8152L145.141 30.4143L146.268 29.7614C147.974 28.7725 149.113 27.1034 149.314 25.2985C149.553 23.1512 148.759 21.8227 146.479 20.5545C144.765 19.6012 144.554 19.5655 139.97 19.4545L135.233 19.3396V32.024ZM153.202 31.201C153.202 37.6886 153.08 43.4665 152.931 44.0401L152.66 45.0833H160.512H168.363L168.704 43.8796C169.187 42.1678 169.164 42.1341 167.986 42.84C167.056 43.3972 166.333 43.4762 162.162 43.4771C155.692 43.4787 155.979 43.7952 155.979 36.6602V31.3275L157.789 31.1053C159.365 30.9118 161.369 30.9927 163.657 31.3419C164.182 31.4221 164.31 31.261 164.31 30.5224V29.6032L160.119 29.6561L155.926 29.7094L156.035 25.546C156.094 23.2561 156.258 21.2696 156.399 21.1316C156.746 20.7917 161.869 20.7852 164.392 21.1216C166.422 21.3925 166.434 21.3897 166.434 20.5975C166.434 19.4956 165.932 19.4147 159.083 19.4092L153.202 19.4047V31.201ZM100.243 20.4948C102.39 21.3762 103.948 22.8501 105.044 25.0372C108.216 31.3673 105.145 39.6758 98.4113 42.9857C96.2726 44.0369 95.8838 44.12 93.1247 44.1171C89.4466 44.1133 87.5161 43.3465 85.4891 41.0842C83.4256 38.7812 82.7055 36.5812 82.8581 33.0466C82.9626 30.6274 83.1515 29.8038 84.0212 27.979C85.0958 25.7245 87.9258 22.481 89.824 21.3283C92.423 19.7504 97.4494 19.3482 100.243 20.4948ZM144.542 21.606C145.912 22.2396 146.493 23.2735 146.5 25.0912C146.509 27.6654 143.47 29.9761 140.058 29.9903C137.958 29.9989 137.947 29.971 138.078 24.8617L138.173 21.1704L139.48 20.9961C141.295 20.7544 143.194 20.9833 144.542 21.606ZM35.4484 29.1949C36.241 30.4172 36.2505 32.4396 35.4693 33.6982C35.1374 34.2329 33.6682 35.6635 32.2045 36.8768C28.1712 40.2208 26.1368 43.1045 25.1289 46.9064C23.6564 52.4606 25.7686 58.4437 30.1704 61.1861C32.4322 62.5952 35.0953 62.3683 35.0953 60.766C35.0953 59.9006 34.4706 59.7244 33.7201 60.3785C33.0517 60.9614 33.0461 60.9598 33.4052 60.2874C33.9217 59.319 34.7542 59.094 35.4693 59.7298C36.8759 60.9804 35.6415 62.7371 33.3565 62.7371C27.4623 62.7371 22.1881 55.856 22.7775 48.9347C23.182 44.1845 25.2723 40.944 30.5615 36.8672C36.1829 32.5347 36.49 31.5448 33.5888 27.1085C33.1791 26.482 33.2568 26.5173 33.9439 27.269C34.4278 27.7986 35.1051 28.6653 35.4484 29.1949ZM144.143 31.7707C149.044 33.2007 150.296 37.912 146.711 41.4344C144.63 43.4781 141.193 44.1107 139.072 42.84L138.01 42.2038V36.9564C138.01 34.0705 138.108 31.6128 138.228 31.4953C138.631 31.0992 142.451 31.2771 144.143 31.7707ZM63.418 33.0537C63.3073 33.7245 63.3563 34.1084 63.5386 33.9977C63.7078 33.8953 63.8457 34.0002 63.8457 34.2313C63.8454 34.5453 63.1527 38.6807 62.8345 40.2686C62.8169 40.3569 62.5457 38.77 62.2317 36.742C61.5727 32.4868 61.6371 31.9232 62.7832 31.9232C63.5405 31.9232 63.5902 32.0115 63.418 33.0537ZM45.6543 35.9431C47.0595 36.4686 48.7078 37.3015 49.3177 37.7945C51.2973 39.3946 51.1411 42.2134 48.9695 44.0867C47.1608 45.6469 45.5811 45.8613 42.6632 44.9421C41.2391 44.4933 42.51 46.0388 44.1517 46.7524C47.7469 48.3149 52.0141 45.6771 53.4 41.0358C53.6209 40.2959 53.7378 38.6275 53.6666 37.237L53.5392 34.7574L54.3119 35.6674C55.5687 37.1471 56.6861 39.8006 57.1664 42.4465C57.8815 46.3868 57.6653 47.1542 56.8308 43.6389C55.9824 40.0654 54.7977 36.7379 54.3743 36.7379C54.222 36.7379 54.2475 37.272 54.4308 37.9248C54.6144 38.5777 54.7092 40.0754 54.6412 41.2531C54.4916 43.8578 53.2906 46.0026 51.1575 47.4755C49.9744 48.2924 49.3854 48.4616 47.3744 48.5614C43.9551 48.7309 42.1304 47.6701 41.736 45.2829L41.5439 44.1191L42.9347 44.6012C45.523 45.4983 47.2931 45.0692 48.9417 43.1443C49.5938 42.3829 49.7973 41.7936 49.7973 40.666C49.7973 38.7042 49.0949 38.0125 45.7647 36.6936C43.2552 35.6995 40.3227 33.4841 40.3227 32.5822C40.3227 32.4056 40.9473 32.8746 41.7112 33.6244C42.694 34.5892 43.8463 35.2668 45.6543 35.9431ZM39.1759 34.0452C39.9675 35.4893 41.855 37.0139 44.4066 38.2702C46.8847 39.4906 47.6561 40.2959 47.3806 41.375C47.1003 42.4721 45.8016 43.245 44.238 43.245C42.6652 43.245 41.8906 42.6747 42.0213 41.6122C42.1585 40.4984 43.0635 39.9916 43.9472 40.5341C44.8375 41.0801 45.2051 40.7263 44.3827 40.1149C41.3332 37.8484 38.4643 43.7217 40.8944 47.2566C42.0164 48.8882 43.1582 49.777 44.9166 50.3862C47.7766 51.3777 50.1923 50.8371 53.0645 48.5637C54.1443 47.7089 55.1009 47.0092 55.1898 47.0092C55.2786 47.0092 55.3502 47.9121 55.3482 49.0153C55.3446 51.3696 54.3099 53.8874 52.8979 54.9787C51.6145 55.9705 49.1704 55.9433 47.9638 54.9238C46.7099 53.864 47.0781 52.955 48.6597 53.2069C49.898 53.4043 50.1734 53.007 49.1655 52.477C46.7645 51.2146 44.2158 53.2477 45.3969 55.4827C45.6674 55.9943 45.849 56.444 45.801 56.4819C45.753 56.5197 44.5719 56.6318 43.1768 56.7306C40.8006 56.8991 40.5778 56.859 39.6503 56.0922C37.5247 54.3348 36.4913 50.894 36.1999 44.6018C36.0519 41.4046 36.1293 39.8664 36.5308 38.0218C36.819 36.6977 37.0552 35.2646 37.0552 34.8373C37.0555 34.1206 37.8674 32.8861 38.3389 32.8861C38.4496 32.8861 38.8263 33.4077 39.1759 34.0452ZM9.00069 36.0667C9.3934 36.4808 10.5026 37.1741 11.4657 37.6074C12.8971 38.2509 13.7446 38.3964 16.1106 38.4037C17.7024 38.4086 19.6479 38.3241 20.434 38.216C21.7013 38.0414 21.7709 38.0622 21.0466 38.3996C20.5559 38.6281 18.5286 38.7889 15.9695 38.8021C11.9235 38.8233 11.6209 38.7793 9.9524 37.929C8.72298 37.3028 8.12608 37.1442 7.96435 37.4016C7.47428 38.1807 7.33543 41.3317 7.69645 43.4794C8.08066 45.7663 8.6315 46.5158 8.6315 44.752C8.6315 43.5301 9.42868 41.6248 10.3376 40.6743C11.3736 39.591 13.5766 39.6543 14.4885 40.7934C15.2978 41.8039 15.3396 42.45 14.6571 43.4068C14.1281 44.1492 12.1329 44.4314 11.7474 43.8183C11.635 43.6399 12.0153 43.5895 12.6765 43.6947C13.5939 43.8411 13.8635 43.7487 14.1722 43.1821C15.3062 41.1003 12.0868 39.9923 10.7457 42.0032C9.81453 43.3994 9.52474 46.1791 10.086 48.3316C10.7823 51.0018 11.4706 51.828 14.7717 53.958C17.3351 55.6117 23.6737 61.1322 23.0095 61.1322C22.6328 61.1322 19.7796 58.859 18.5963 57.6165C18.0572 57.0503 16.2785 55.8126 14.6437 54.8657C11.1583 52.8471 8.89451 50.5752 7.40306 47.5985C5.36829 43.5378 5.23597 39.2277 7.02146 35.15C7.78335 33.4103 7.78434 33.4096 8.03525 34.3613C8.17345 34.8849 8.60765 35.6523 9.00069 36.0667ZM3.54001 37.5856C3.65305 37.8754 3.88273 39.3558 4.05 40.8756C4.21728 42.3954 4.49139 44.0722 4.659 44.6018C5.34575 46.7742 6.4239 49.0939 7.39816 50.4963C7.96697 51.3148 8.18162 51.7847 7.87483 51.5407C7.11294 50.9347 4.59529 46.918 3.6243 44.7604C3.18715 43.7881 2.53014 42.0128 2.16422 40.8152L1.49935 38.6377L2.20669 38.8473C2.78334 39.0181 2.83855 38.9789 2.50563 38.6355C2.28118 38.4041 2.09724 37.9544 2.09724 37.6366C2.09724 36.9019 3.25707 36.8611 3.54001 37.5856ZM33.2725 39.3859C32.5943 41.8892 32.7024 43.375 33.7819 46.3826C34.8176 49.2682 34.9597 50.7832 34.4128 53.1077C34.1217 54.3445 34.1514 54.5984 34.6192 54.8731C35.6566 55.482 36.7628 56.391 36.6282 56.5236C36.2858 56.8597 31.0506 54.902 29.8264 53.9802C26.898 51.7744 26.2972 48.4077 28.1693 44.6965C29.1667 42.7196 32.9736 37.7008 33.4757 37.7008C33.6153 37.7008 33.5238 38.4593 33.2725 39.3859ZM48.1331 56.1413C48.6712 56.4148 49.4863 56.6385 49.9444 56.6385C51.245 56.6385 50.9448 57.0522 48.7355 58.3047C45.6046 60.0797 44.2749 60.6799 41.8403 61.4169C38.76 62.3497 38.4418 62.3214 38.6195 61.1316C38.8031 59.9019 38.0086 58.6944 36.573 58.0216C35.6262 57.5783 35.32 57.5648 34.4258 57.9288C33.8067 58.1808 33.2052 58.7544 32.9452 59.3415C32.5583 60.2145 32.5057 60.2437 32.4943 59.5921C32.4874 59.1864 32.8707 58.5005 33.346 58.0675C34.0321 57.4429 34.5546 57.2821 35.8781 57.2875C38.1304 57.2971 39.6692 58.5884 39.6692 60.4691C39.6692 60.8337 39.8669 61.1322 40.108 61.1322C41.3329 61.1322 46.9772 58.7284 48.6535 57.4929C49.2916 57.0227 49.2857 57.0067 48.4075 56.79C47.3944 56.5403 45.8761 54.9415 45.8781 54.1262C45.8787 53.7908 46.1186 53.9747 46.5172 54.6167C46.8677 55.1819 47.595 55.8682 48.1331 56.1413Z" />
</svg>
