<svg  viewBox="0 0 195 31"  xmlns="http://www.w3.org/2000/svg">
<path fill-rule="evenodd" clip-rule="evenodd" d="M14.0448 0.0547142C10.9737 0.250378 7.98005 1.42732 5.56447 3.38866C2.89997 5.55219 0.960179 8.82431 0.298458 12.2717C0.0597231 13.5157 -0.00141389 14.1754 2.46303e-05 15.4938C0.00236223 17.6119 0.332204 19.3772 1.0725 21.2333C3.00984 26.0909 7.34884 29.6149 12.4574 30.4798C13.9183 30.727 15.8545 30.7775 17.2525 30.6047C23.693 29.8083 28.8068 25.1709 30.1909 18.8715C30.4709 17.5969 30.5492 16.8336 30.5501 15.3732C30.5513 13.1667 30.2385 11.4327 29.5029 9.56764C27.5323 4.57079 23.1923 1.12339 17.7545 0.235541C17.0933 0.127576 15.2782 -0.0199568 14.8849 0.00223939C14.8025 0.00694401 14.4245 0.0305276 14.0448 0.0547142ZM39.3398 15.3732V29.9696H46.3826H53.4254V28.522V27.0744H47.881H42.3367V13.9256V0.776814H40.8383H39.3398V15.3732ZM72.1177 0.912524C72.0777 0.987134 68.9893 7.54876 65.2546 15.4938L58.4643 29.9394L60.0647 29.9555C60.9449 29.9644 61.693 29.9609 61.727 29.9477C61.761 29.9346 62.7998 27.7762 64.0354 25.1513L66.2819 20.3789L72.5015 20.3942L78.7211 20.4096L80.9865 25.1745L83.2518 29.9394L84.8557 29.9555C85.738 29.9644 86.4488 29.9508 86.4355 29.9253C86.4221 29.8999 83.3804 23.3311 79.676 15.328L72.9408 0.776814H72.5656C72.2379 0.776814 72.1811 0.794003 72.1177 0.912524ZM93.8838 15.3732V29.9696H95.3523H96.8208V23.1907V16.4117L100.132 16.382C103.694 16.35 104.457 16.2999 105.931 16.0012C107.719 15.639 108.95 15.009 110.025 13.9068C112.223 11.6518 112.743 7.82826 111.248 4.91501C110.32 3.10512 108.532 1.72787 106.469 1.2337C104.85 0.845694 103.633 0.777356 98.3343 0.777055L93.8838 0.776814V15.3732ZM120.856 15.3732V29.9696H127.899H134.942V28.522V27.0744H129.367H123.793V13.9256V0.776814H122.325H120.856V15.3732ZM142.554 15.3732V29.9696H150.855H159.157V28.522V27.0744H152.324H145.491V21.3746V15.6748H152.324H159.157V14.1971V12.7193H152.324H145.491V8.19564V3.67197H152.324H159.157V2.22439V0.776814H150.855H142.554V15.3732ZM165.703 0.911619C165.963 1.31531 174.201 14.8986 174.201 14.9232C174.201 14.9469 166.291 27.8459 165.261 29.5022L164.97 29.9696L166.724 29.9672L168.477 29.9648L172.223 23.9067C174.284 20.5748 175.983 17.8484 176 17.8481C176.016 17.8478 177.702 20.575 179.745 23.9086L183.461 29.9696H185.185C186.133 29.9696 186.908 29.956 186.908 29.9395C186.908 29.923 184.854 26.5505 182.343 22.4453C179.833 18.34 177.779 14.954 177.779 14.9208C177.78 14.8877 179.702 11.712 182.051 7.86391C184.401 4.01577 186.335 0.8469 186.349 0.82205C186.364 0.7972 185.599 0.777718 184.649 0.778804L182.922 0.780855L179.476 6.41633C177.58 9.51583 176.016 12.0514 176 12.051C175.983 12.0505 174.43 9.52035 172.549 6.42851L169.128 0.806971L167.372 0.790988L165.615 0.774944L165.703 0.911619ZM17.3763 3.12086C22.2078 4.04146 25.9778 7.5715 27.1093 12.2342C27.3979 13.4234 27.4924 14.3792 27.4554 15.7351C27.434 16.5206 27.3828 17.1417 27.3011 17.6049C26.379 22.8352 22.5659 26.6957 17.4023 27.6267C16.3974 27.8079 14.6685 27.8461 13.6601 27.7095C9.18692 27.1033 5.53774 24.2367 3.89717 20.0401C3.63829 19.3779 3.35766 18.3368 3.21638 17.5144C3.06696 16.6448 3.0657 14.3231 3.21411 13.4378C3.59466 11.1675 4.48109 9.13614 5.81759 7.47185C6.31053 6.85802 7.3751 5.82433 7.97574 5.37637C9.63478 4.13905 11.5146 3.35603 13.5899 3.03775C14.4177 2.91078 16.5155 2.95686 17.3763 3.12086ZM104.082 3.73548C105.803 3.91154 106.809 4.31686 107.616 5.15887C108.59 6.17573 109.028 7.34163 108.971 8.76864C108.888 10.8572 107.702 12.4709 105.812 13.0687C104.682 13.4258 104.273 13.4572 100.372 13.4866L96.8208 13.5133V8.59264V3.67197H100.141C102.033 3.67197 103.728 3.69929 104.082 3.73548ZM74.9777 12.2841L77.3798 17.4541L72.5257 17.4695C69.8558 17.478 67.6605 17.474 67.6472 17.4606C67.6159 17.429 72.4968 7.1093 72.5418 7.11201C72.5604 7.11316 73.6566 9.44056 74.9777 12.2841ZM192.564 27.3176C192.241 27.4178 191.801 27.7561 191.6 28.059C191.359 28.4226 191.285 28.6866 191.284 29.1855C191.284 29.6517 191.507 30.1852 191.831 30.4937C192.591 31.2168 193.872 31.1573 194.563 30.3668C194.874 30.0119 195 29.6456 195 29.0994C195 28.3676 194.632 27.7728 193.964 27.4263C193.679 27.2779 192.89 27.2167 192.564 27.3176ZM193.775 27.7002C195.001 28.2747 194.981 30.0042 193.741 30.568C192.601 31.0868 191.308 29.9508 191.639 28.7206C191.713 28.4448 192.002 28.0278 192.246 27.8459C192.664 27.5346 193.293 27.4746 193.775 27.7002ZM192.363 29.1252V30.2109H192.543H192.722V29.7585V29.3061H193.056C193.474 29.3061 193.621 29.3812 193.622 29.5947C193.622 29.6848 193.64 29.8603 193.66 29.9847C193.696 30.201 193.707 30.2109 193.931 30.2109C194.144 30.2109 194.159 30.2003 194.103 30.0942C194.069 30.03 194.041 29.8461 194.041 29.6854C194.041 29.5186 194.001 29.3357 193.948 29.2593C193.863 29.1379 193.863 29.1125 193.948 28.9911C194.118 28.7472 194.045 28.3015 193.807 28.1168C193.745 28.0694 193.472 28.0426 193.037 28.0414L192.363 28.0395V29.1252ZM193.55 28.4738C193.589 28.5136 193.621 28.6031 193.621 28.6728C193.621 28.8813 193.501 28.9442 193.1 28.9442H192.722V28.6728V28.4014H193.1C193.314 28.4014 193.509 28.4328 193.55 28.4738Z" />
</svg>
