<svg viewBox="0 0 10 17" xmlns="http://www.w3.org/2000/svg"><path d="M3.44894 2.18403L3.13272 1.23535L1.23535 1.8678L1.55158 2.81649L3.44894 2.18403ZM1.55158 14.1841L1.23535 15.1328L3.13272 15.7652L3.44894 14.8165L1.55158 14.1841ZM1.55158 2.81649C2.63069 6.05384 4.42208 7.7558 6.0214 8.62817C6.80953 9.05806 7.53061 9.27558 8.06327 9.38579C8.32987 9.44095 8.55065 9.46953 8.71107 9.48434C8.79135 9.49175 8.85675 9.49573 8.90547 9.49787C8.92985 9.49893 8.95007 9.49954 8.96594 9.49988C8.97387 9.50005 8.98071 9.50015 8.98644 9.50021C8.9893 9.50024 8.99189 9.50026 8.99419 9.50027C8.99534 9.50028 8.99643 9.50028 8.99744 9.50029C8.99794 9.50029 8.99865 9.50029 8.9989 9.50029C8.99958 9.50029 9.00025 9.50029 9.00026 8.50029C9.00027 7.50029 9.0009 7.50029 9.00152 7.50029C9.0017 7.50029 9.00231 7.50029 9.00267 7.50029C9.00341 7.5003 9.00408 7.5003 9.00469 7.5003C9.0059 7.50031 9.00685 7.50032 9.00754 7.50032C9.00893 7.50034 9.00929 7.50035 9.00864 7.50034C9.00736 7.50031 9.00207 7.50018 8.99299 7.49978C8.97483 7.49899 8.94159 7.49711 8.89492 7.4928C8.80143 7.48417 8.65503 7.46587 8.4685 7.42728C8.09491 7.34998 7.56599 7.1925 6.97912 6.87238C5.82844 6.24473 4.36983 4.94668 3.44894 2.18403L1.55158 2.81649ZM9.00026 8.50029C9.00027 7.50029 8.9996 7.50029 8.99891 7.50029C8.99866 7.50029 8.99795 7.50029 8.99745 7.50029C8.99644 7.5003 8.99536 7.5003 8.99421 7.50031C8.9919 7.50032 8.98932 7.50034 8.98645 7.50037C8.98073 7.50043 8.97388 7.50053 8.96595 7.5007C8.95009 7.50104 8.92986 7.50165 8.90549 7.50271C8.85676 7.50485 8.79136 7.50883 8.71108 7.51624C8.55066 7.53105 8.32988 7.55962 8.06329 7.61477C7.53062 7.72498 6.80954 7.94249 6.02141 8.37238C4.42208 9.24473 2.6307 10.9467 1.55158 14.1841L3.44894 14.8165C4.36982 12.0539 5.82844 10.7558 6.97911 10.1282C7.56598 9.80807 8.0949 9.65059 8.46848 9.5733C8.65501 9.53471 8.80142 9.5164 8.8949 9.50778C8.94158 9.50347 8.97481 9.50159 8.99298 9.5008C9.00206 9.5004 9.00734 9.50027 9.00863 9.50025C9.00927 9.50023 9.00892 9.50024 9.00753 9.50026C9.00683 9.50027 9.00588 9.50027 9.00467 9.50028C9.00407 9.50028 9.0034 9.50029 9.00266 9.50029C9.00229 9.50029 9.00169 9.50029 9.00151 9.50029C9.00089 9.50029 9.00025 9.50029 9.00026 8.50029Z"/></svg>
