<svg xmlns="http://www.w3.org/2000/svg" viewBox="0 0 13.25 14.9"><path d="M7,14.3l-.24-.44h0Zm-.81,0L6,14.74H6Zm6-7.67A7,7,0,0,1,10,11.47a13.5,13.5,0,0,1-3.25,2.39l.47.88a14.71,14.71,0,0,0,3.5-2.57,8,8,0,0,0,2.49-5.54ZM6.63,1a5.63,5.63,0,0,1,5.62,5.63h1A6.63,6.63,0,0,0,6.63,0ZM1,6.63A5.63,5.63,0,0,1,6.63,1V0A6.63,6.63,0,0,0,0,6.63Zm5.46,7.23a13.5,13.5,0,0,1-3.25-2.39A7,7,0,0,1,1,6.63H0a8,8,0,0,0,2.49,5.54A14.71,14.71,0,0,0,6,14.74Zm.33,0a.38.38,0,0,1-.33,0L6,14.74a1.36,1.36,0,0,0,1.27,0Zm2-7.23A2.12,2.12,0,0,1,6.63,8.75v1A3.12,3.12,0,0,0,9.75,6.63ZM6.63,4.5A2.12,2.12,0,0,1,8.75,6.63h1A3.13,3.13,0,0,0,6.63,3.5ZM4.5,6.63A2.13,2.13,0,0,1,6.63,4.5v-1A3.13,3.13,0,0,0,3.5,6.63ZM6.63,8.75A2.12,2.12,0,0,1,4.5,6.63h-1A3.13,3.13,0,0,0,6.63,9.75Z"/></svg>