<svg viewBox="0 0 11 19" xmlns="http://www.w3.org/2000/svg">
<path d="M5.49986 2.87385C6.61893 2.87385 7.52922 3.78454 7.52922 4.90413C7.52922 6.02278 6.61871 6.93348 5.49986 6.93348C4.38148 6.93348 3.47096 6.02278 3.47096 4.90413C3.47074 3.7843 4.38172 2.87385 5.49986 2.87385ZM5.49986 9.80595C8.20301 9.80595 10.4013 7.60734 10.4013 4.90413C10.4013 2.19951 8.20325 0 5.49986 0C2.79694 0 0.598432 2.19975 0.598432 4.90413C0.598432 7.60734 2.79694 9.80595 5.49986 9.80595ZM7.48276 13.8057C8.49103 13.5759 9.45326 13.1773 10.3288 12.6267C10.6511 12.4239 10.8797 12.1012 10.9642 11.7297C11.0487 11.3583 10.9823 10.9684 10.7795 10.6459C10.6791 10.4861 10.5484 10.3476 10.3945 10.2385C10.2407 10.1292 10.0669 10.0514 9.88296 10.0095C9.6991 9.96753 9.5087 9.96227 9.32283 9.994C9.13688 10.0257 8.95896 10.0938 8.79937 10.1943C6.79137 11.4573 4.20693 11.4564 2.20057 10.1943C2.04097 10.0938 1.86313 10.0257 1.67721 9.994C1.49128 9.96219 1.30093 9.96745 1.11704 10.0094C0.933146 10.0513 0.759328 10.1292 0.605521 10.2384C0.451721 10.3476 0.320956 10.4861 0.220712 10.6459C0.017871 10.9683 -0.0486737 11.3581 0.035711 11.7295C0.120096 12.101 0.3485 12.4237 0.670691 12.6267C1.54612 13.1772 2.50816 13.5758 3.51625 13.8057L0.776265 16.5474C0.506997 16.8169 0.355763 17.1824 0.355829 17.5634C0.355895 17.9444 0.507256 18.3098 0.776614 18.5792C1.04597 18.8486 1.41126 18.9999 1.79213 18.9998C2.17299 18.9997 2.53824 18.8483 2.8075 18.5789L5.49939 15.8853L8.19293 18.5791C8.3261 18.7125 8.4843 18.8184 8.65838 18.8906C8.83246 18.9628 9.01911 19 9.2076 19C9.39608 19 9.58273 18.9628 9.75681 18.8906C9.93089 18.8184 10.0891 18.7125 10.2223 18.5791C10.3559 18.4459 10.4619 18.2876 10.5341 18.1133C10.6064 17.9391 10.6437 17.7522 10.6437 17.5635C10.6437 17.3747 10.6064 17.188 10.5341 17.0137C10.4619 16.8393 10.3559 16.6811 10.2223 16.5479L7.48276 13.8057Z"/>
</svg>
