<svg  viewBox="0 0 77 142" xmlns="http://www.w3.org/2000/svg">
<path d="M75.4616 123.593C75.4616 123.593 73.4216 129.737 61.1168 131.062C48.812 132.389 43.5625 129.737 43.5625 129.737C43.5625 129.737 51.7657 123.274 59.6408 122.941C67.5155 122.609 75.4616 123.593 75.4616 123.593Z" fill="white"/>
<path d="M75.4642 123.593C75.4642 123.593 76.3903 117.166 66.2002 110.072C56.0082 102.979 50.1415 102.781 50.1415 102.781C50.1415 102.781 53.5087 111.539 61.7099 116.667C68.4125 120.857 75.4642 123.593 75.4642 123.593Z" fill="white"/>
<path d="M60.8711 119.042C60.8711 119.042 54.5965 116.18 45.1212 116.18C35.6461 116.18 28.5109 121.156 28.5109 121.156C28.5109 121.156 35.5237 124.014 45.6144 124.014C55.7034 124.015 60.8711 119.042 60.8711 119.042Z" fill="white"/>
<path d="M49.2727 112.951C49.2727 112.951 48.7636 106.012 44.2415 97.5997C39.7195 89.1833 31.9883 85.2207 31.9883 85.2207C31.9883 85.2207 32.8485 92.8143 37.6654 101.775C42.4817 110.734 49.2727 112.951 49.2727 112.951Z" fill="white"/>
<path d="M44.5417 112.085C44.5417 112.085 39.1044 107.817 29.8934 105.576C20.6826 103.334 12.5928 106.48 12.5928 106.48C12.5928 106.48 18.7489 110.924 28.5593 113.311C38.3663 115.697 44.5417 112.085 44.5417 112.085Z" fill="white"/>
<path d="M36.3889 104.687C36.3889 104.687 33.0039 98.6305 25.365 92.9646C17.7259 87.2988 9.06335 87.0413 9.06335 87.0413C9.06335 87.0413 13.0441 93.5402 21.1765 99.5744C29.3104 105.608 36.3889 104.687 36.3889 104.687Z" fill="white"/>
<path d="M28.2908 92.2289C28.2908 92.2289 30.5831 86.0275 29.9833 76.9391C29.3852 67.849 24.2639 61.3154 24.2639 61.3154C24.2639 61.3154 22.0178 68.2253 22.6548 77.9077C23.2934 87.5842 28.2908 92.2289 28.2908 92.2289Z" fill="white"/>
<path d="M21.8651 86.3544C21.8651 86.3544 19.5094 80.8356 13.4651 75.2598C7.41918 69.6819 0 68.655 0 68.655C0 68.655 2.82623 74.6089 9.26428 80.5471C15.7003 86.4851 21.8651 86.3544 21.8651 86.3544Z" fill="white"/>
<path d="M18.2195 74.1231C18.2195 74.1231 17.9285 68.1185 14.2031 60.7528C10.4776 53.3883 3.8869 49.7949 3.8869 49.7949C3.8869 49.7949 4.46893 56.3713 8.43553 64.2156C12.4022 72.0607 18.2195 74.1231 18.2195 74.1231Z" fill="white"/>
<path d="M15.6746 56.2072C15.6746 56.2072 16.1856 50.2193 13.4749 42.4146C10.7623 34.6079 4.711 30.1528 4.711 30.1528C4.711 30.1528 4.4114 36.7493 7.29763 45.0587C10.1839 53.3745 15.6746 56.2072 15.6746 56.2072Z" fill="white"/>
<path d="M18.1303 44.4036C18.1303 44.4036 20.8498 39.0589 21.2704 30.7971C21.6907 22.5354 17.7612 16.0938 17.7612 16.0938C17.7612 16.0938 15.008 22.0797 14.5592 30.8777C14.1102 39.6765 18.1303 44.4036 18.1303 44.4036Z" fill="white"/>
<path d="M24.8328 30.1986C24.8328 30.1986 28.3755 25.372 30.1193 17.2896C31.8614 9.20669 29.0212 2.20325 29.0212 2.20325C29.0212 2.20325 25.3402 7.65919 23.4844 16.2673C21.6287 24.8755 24.8328 30.1986 24.8328 30.1986Z" fill="white"/>
<path d="M18.5316 66.419C18.5316 66.419 22.9612 62.4096 26.2718 54.8439C29.5822 47.2775 28.1895 39.8406 28.1895 39.8406C28.1895 39.8406 23.5007 44.4415 19.9757 52.4969C16.4487 60.5539 18.5316 66.419 18.5316 66.419Z" fill="white"/>
<path d="M23.4258 39.3755C23.4258 39.3755 29.0869 37.5343 35.1594 31.9869C41.2302 26.4397 42.9526 19.0742 42.9526 19.0742C42.9526 19.0742 36.818 21.3482 30.3535 27.2554C23.8854 33.1624 23.4258 39.3755 23.4258 39.3755Z" fill="white"/>
<path d="M31.7911 22.8263C31.7911 22.8263 37.1486 20.2116 42.4054 13.8758C47.6634 7.53594 48.366 0 48.366 0C48.366 0 42.6004 3.10356 36.9997 9.85559C31.4027 16.6066 31.7911 22.8263 31.7911 22.8263Z" fill="white"/>
<path d="M76.3154 127.482C76.3154 135.803 62.7706 144.857 62.7706 140.436C62.7706 136.015 76.3154 130.432 76.3154 127.482Z" fill="white"/>
</svg>
