<svg viewBox="0 0 21 12" xmlns="http://www.w3.org/2000/svg">
<path fill-rule="evenodd" clip-rule="evenodd" d="M20.174 11.97H17.8805C17.0121 11.97 16.7449 11.3098 15.1862 9.79752C13.8279 8.54088 13.2267 8.37049 12.8926 8.37049C12.4251 8.37049 12.2914 8.49829 12.2914 9.11595V11.0968C12.2914 11.6292 12.1133 11.9487 10.6437 11.9487C8.21657 11.9487 5.52225 10.543 3.62954 7.92322C0.779351 4.0894 0 1.21403 0 0.617668C0 0.298183 0.133603 0 0.77935 0H3.07287C3.65181 0 3.87448 0.255587 4.09715 0.851959C5.23278 3.9829 7.12548 6.73047 7.90483 6.73047C8.1943 6.73047 8.32791 6.60268 8.32791 5.89981V2.66236C8.23884 1.17144 7.41495 1.04365 7.41495 0.511173C7.41495 0.255586 7.63763 0 7.9939 0H11.6012C12.091 0 12.2692 0.255586 12.2692 0.809359V5.17564C12.2692 5.64422 12.4919 5.81462 12.6254 5.81462C12.9149 5.81462 13.1598 5.64422 13.6942 5.13305C15.3421 3.36524 16.5222 0.638969 16.5222 0.638969C16.6781 0.319484 16.9453 0.0212987 17.5243 0.0212987H19.8177C20.508 0.0212987 20.6639 0.362081 20.508 0.830657C20.2186 2.1086 17.4128 5.89981 17.4128 5.89981C17.168 6.2832 17.0789 6.45359 17.4128 6.87956C17.6578 7.19905 18.4595 7.85931 18.9939 8.45568C19.9736 9.52063 20.7307 10.4152 20.9311 11.0329C21.1538 11.6505 20.8198 11.97 20.174 11.97Z"/>
</svg>
