<svg viewBox="0 0 20 20" xmlns="http://www.w3.org/2000/svg">
<path fill-rule="evenodd" clip-rule="evenodd" d="M9.10846 0.0086369C8.75021 0.0426904 7.94271 0.184183 7.56326 0.279384C4.00907 1.17119 1.18174 3.99696 0.290027 7.54858C0.112388 8.25623 0.0292213 8.87533 0.00512402 9.67022C-0.0592267 11.7924 0.48218 13.712 1.64972 15.501L1.8896 15.8685L1.27234 17.7048C0.93283 18.7148 0.662909 19.549 0.672533 19.5586C0.682156 19.5682 1.54649 19.3016 2.59327 18.9661L4.49657 18.3562L4.81723 18.5472C5.55231 18.9853 6.08918 19.2367 6.82 19.4849C8.58606 20.0847 10.6214 20.1642 12.4531 19.7049C16.0039 18.8143 18.8348 15.9851 19.7264 12.4357C19.952 11.5376 20 11.1088 20 9.99214C20 8.87549 19.952 8.44664 19.7264 7.54858C18.8348 3.99919 16.0039 1.16994 12.4531 0.279423C11.6483 0.077604 11.1445 0.0163781 10.1842 0.00374977C9.68938 -0.00277943 9.20528 -0.000550902 9.10846 0.0086369ZM6.59698 4.59417C7.03848 4.64527 6.99967 4.58627 7.69939 6.26963C8.21956 7.52101 8.24029 7.61113 8.07259 7.89349C8.01923 7.98334 7.82469 8.22398 7.64025 8.42826C7.24139 8.8701 7.17579 8.98007 7.20473 9.15855C7.25316 9.45682 8.10193 10.5916 8.72102 11.1858C9.33676 11.7768 9.87241 12.1567 10.5977 12.5169C11.2054 12.8188 11.4785 12.9032 11.6755 12.8502C11.7608 12.8273 11.8651 12.7764 11.9071 12.7371C12.0108 12.6405 12.3054 12.2699 12.5901 11.878C12.8801 11.4788 13.0116 11.3877 13.2597 11.4144C13.4494 11.4348 14.1256 11.7361 15.2986 12.3231C15.8307 12.5893 15.9649 12.6729 15.9987 12.7591C16.1027 13.024 15.93 13.9628 15.7076 14.3421C15.3257 14.9934 14.1821 15.583 13.301 15.583C12.6645 15.583 11.4906 15.2489 10.2731 14.7211C8.54452 13.9718 6.92539 12.5435 5.46613 10.4809C4.57661 9.22349 4.21949 8.32583 4.21886 7.34586C4.21828 6.41633 4.47521 5.73874 5.06864 5.1047C5.38015 4.77191 5.58697 4.6561 5.97022 4.6C6.26901 4.55621 6.26932 4.55621 6.59698 4.59417Z"/>
</svg>
