<svg  viewBox="0 0 19 19" xmlns="http://www.w3.org/2000/svg">
<path fill-rule="evenodd" clip-rule="evenodd" d="M8.65304 0.00820506C8.3127 0.0405559 7.54558 0.174973 7.1851 0.265415C3.80861 1.11263 1.12266 3.79712 0.275526 7.17115C0.106769 7.84342 0.0277602 8.43157 0.00486782 9.18671C-0.0562653 11.2028 0.458071 13.0264 1.56724 14.7259L1.79512 15.0751L1.20873 16.8196C0.886189 17.7791 0.629764 18.5716 0.638906 18.5807C0.648048 18.5898 1.46917 18.3365 2.46361 18.0178L4.27174 17.4384L4.57636 17.6199C5.27469 18.0361 5.78472 18.2748 6.479 18.5107C8.15676 19.0805 10.0903 19.156 11.8305 18.7196C15.2037 17.8736 17.8931 15.1858 18.7401 11.8139C18.9544 10.9608 19 10.5534 19 9.49253C19 8.43172 18.9544 8.0243 18.7401 7.17115C17.8931 3.79923 15.2037 1.11144 11.8305 0.265452C11.0659 0.0737239 10.5873 0.0155592 9.67502 0.00356228C9.20491 -0.00264046 8.74501 -0.000523357 8.65304 0.00820506ZM6.26713 4.36446C6.68655 4.41301 6.64969 4.35696 7.31442 5.95615C7.80858 7.14496 7.82828 7.23058 7.66896 7.49882C7.61827 7.58417 7.43346 7.81278 7.25823 8.00685C6.87932 8.42659 6.817 8.53107 6.8445 8.70063C6.89051 8.98398 7.69683 10.062 8.28497 10.6265C8.86992 11.188 9.37879 11.5489 10.0678 11.8911C10.6451 12.1778 10.9046 12.2581 11.0917 12.2077C11.1728 12.1859 11.2718 12.1375 11.3118 12.1002C11.4102 12.0085 11.6901 11.6564 11.9606 11.2841C12.2361 10.9049 12.361 10.8184 12.5967 10.8437C12.7769 10.8631 13.4193 11.1493 14.5336 11.7069C15.0392 11.9599 15.1666 12.0393 15.1988 12.1212C15.2975 12.3728 15.1335 13.2647 14.9222 13.625C14.5594 14.2437 13.473 14.8039 12.6359 14.8039C12.0313 14.8039 10.9161 14.4864 9.75942 13.985C8.11729 13.2732 6.57912 11.9164 5.19282 9.95681C4.34777 8.76232 4.00851 7.90953 4.00792 6.97857C4.00736 6.09551 4.25145 5.4518 4.81521 4.84946C5.11114 4.53331 5.30762 4.4233 5.67171 4.37C5.95556 4.3284 5.95586 4.3284 6.26713 4.36446Z" />
</svg>
