<svg  viewBox="0 0 311 270" fill="none" xmlns="http://www.w3.org/2000/svg" xmlns:xlink="http://www.w3.org/1999/xlink">
<path opacity="0.99" d="M38.698 0.519999H75.538V46H69.718V3.34H44.518V46H38.698V0.519999ZM114.313 42.28C111.233 45.24 107.433 46.72 102.913 46.72C98.3925 46.72 94.5925 45.24 91.5125 42.28C88.4325 39.32 86.8925 35.52 86.8925 30.88C86.8925 26.2 88.4325 22.4 91.5125 19.48C94.5925 16.52 98.3925 15.04 102.913 15.04C107.433 15.04 111.233 16.52 114.313 19.48C117.393 22.4 118.933 26.2 118.933 30.88C118.933 35.52 117.393 39.32 114.313 42.28ZM103.273 44.68C105.953 44.68 108.233 43.66 110.113 41.62C112.033 39.58 112.993 36.58 112.993 32.62C112.993 28.5 112.013 24.88 110.053 21.76C108.093 18.6 105.593 17.02 102.553 17.02C99.8725 17.02 97.5725 18.06 95.6525 20.14C93.7725 22.18 92.8325 25.18 92.8325 29.14C92.8325 33.26 93.8125 36.88 95.7725 40C97.7325 43.12 100.233 44.68 103.273 44.68ZM146.585 46V33.16C144.025 33.8 141.505 34.12 139.025 34.12C137.105 34.12 135.485 34 134.165 33.76C132.885 33.52 131.625 33.06 130.385 32.38C129.145 31.7 128.225 30.64 127.625 29.2C127.025 27.72 126.725 25.84 126.725 23.56V15.88H132.125V23.56C132.125 26.84 132.745 29.04 133.985 30.16C135.225 31.24 137.225 31.78 139.985 31.78C142.105 31.78 144.305 31.58 146.585 31.18V15.88H151.985V46H146.585ZM177.777 46.72C173.177 46.72 169.457 45.24 166.617 42.28C163.817 39.32 162.417 35.56 162.417 31C162.417 26.2 163.917 22.34 166.917 19.42C169.957 16.5 173.457 15.04 177.417 15.04C181.257 15.04 184.497 16.16 187.137 18.4C189.777 20.6 191.397 23.76 191.997 27.88H167.877V28.6C167.877 33.04 168.977 36.58 171.177 39.22C173.377 41.86 176.257 43.18 179.817 43.18C185.577 43.18 189.257 40.4 190.857 34.84H192.477C191.637 38.76 189.957 41.72 187.437 43.72C184.957 45.72 181.737 46.72 177.777 46.72ZM177.297 16.78C174.977 16.78 172.957 17.58 171.237 19.18C169.557 20.74 168.497 22.96 168.057 25.84H185.817C185.577 22.8 184.677 20.54 183.117 19.06C181.597 17.54 179.657 16.78 177.297 16.78ZM205.007 46H202.367V15.88H207.287L218.027 33.1L227.987 15.88H232.787V46H227.387V22.12L217.547 38.98H215.627L205.007 22.06V46ZM247.533 60.88L255.213 45.52L241.053 15.88H246.993L258.213 39.46L269.973 15.88H273.033L250.533 60.88H247.533ZM11.2048 120H0.464838V89.88H11.7448C19.8248 89.88 23.8648 92.12 23.8648 96.6C23.8648 98.4 23.1448 99.98 21.7048 101.34C20.2648 102.7 18.1848 103.58 15.4648 103.98V104.04C18.8248 104.2 21.4248 104.94 23.2648 106.26C25.1448 107.58 26.0848 109.24 26.0848 111.24C26.0848 113.96 24.8448 116.1 22.3648 117.66C19.9248 119.22 16.2048 120 11.2048 120ZM11.5048 91.86H5.86484V103.5H11.4448C15.8048 103.5 17.9848 101.62 17.9848 97.86C17.9848 93.86 15.8248 91.86 11.5048 91.86ZM5.86484 105.3V118.02H11.5048C17.3048 118.02 20.2048 115.88 20.2048 111.6C20.2048 109.6 19.4248 108.06 17.8648 106.98C16.3048 105.86 14.1648 105.3 11.4448 105.3H5.86484ZM64.8233 120V89.88H70.2233V120H64.8233ZM36.2633 89.88H41.6633V101.88H45.6833C55.6833 101.88 60.6833 104.62 60.6833 110.1C60.6833 113.02 59.4833 115.4 57.0833 117.24C54.7233 119.08 50.9833 120 45.8633 120H36.2633V89.88ZM41.6633 104.1V117.78H45.8633C48.5033 117.78 50.6433 117.22 52.2833 116.1C53.9233 114.98 54.7433 113.22 54.7433 110.82C54.7433 108.54 53.9233 106.86 52.2833 105.78C50.6433 104.66 48.5033 104.1 45.8633 104.1H41.6633ZM112.663 105.24C112.663 109.8 111.163 113.52 108.163 116.4C105.203 119.28 101.363 120.72 96.643 120.72C94.603 120.72 92.683 120.4 90.883 119.76C89.083 119.12 87.383 118.14 85.783 116.82C84.183 115.46 82.923 113.56 82.003 111.12C81.083 108.68 80.623 105.82 80.623 102.54C80.623 94.42 82.423 88.14 86.023 83.7C89.623 79.22 94.783 76.5 101.503 75.54C104.863 75.06 106.963 74.66 107.803 74.34C108.683 74.02 109.123 73.4 109.123 72.48H110.203C110.203 75.16 109.663 77.1 108.583 78.3C107.503 79.46 105.343 80.22 102.103 80.58C95.343 81.34 91.543 81.86 90.703 82.14C90.023 82.34 89.363 82.68 88.723 83.16C87.283 84.24 86.563 87.3 86.563 92.34V94.8C87.683 93.2 89.223 91.94 91.183 91.02C93.183 90.1 95.243 89.64 97.363 89.64C101.923 89.64 105.603 91.1 108.403 94.02C111.243 96.9 112.663 100.64 112.663 105.24ZM97.003 118.68C100.363 118.68 102.823 117.56 104.383 115.32C105.943 113.04 106.723 110.28 106.723 107.04C106.723 102.32 105.863 98.72 104.143 96.24C102.423 93.72 99.583 92.46 95.623 92.46C93.903 92.46 92.203 92.74 90.523 93.3C88.883 93.86 87.563 94.6 86.563 95.52V101.82C86.563 107.22 87.543 111.38 89.503 114.3C91.503 117.22 94.003 118.68 97.003 118.68ZM123.036 120V89.88H128.436V115.26L143.796 89.88H149.196V120H143.796V94.62L128.436 120H123.036ZM161.823 134.88V89.88H167.223V94.32C169.383 90.8 172.683 89.04 177.123 89.04C181.363 89.04 184.803 90.54 187.443 93.54C190.083 96.5 191.403 100.28 191.403 104.88C191.403 109.48 190.083 113.28 187.443 116.28C184.803 119.24 181.363 120.72 177.123 120.72C172.683 120.72 169.383 118.96 167.223 115.44V134.88H161.823ZM174.783 91.68C171.663 91.68 169.143 92.8 167.223 95.04V114.72C169.183 116.96 171.703 118.08 174.783 118.08C177.983 118.08 180.563 116.84 182.523 114.36C184.483 111.88 185.463 108.72 185.463 104.88C185.463 101.04 184.483 97.88 182.523 95.4C180.563 92.92 177.983 91.68 174.783 91.68ZM208.86 120.72C206.06 120.72 203.74 120 201.9 118.56C200.06 117.08 199.14 115.16 199.14 112.8C199.14 107 205.72 103.46 218.88 102.18V100.02C218.88 96.82 218.34 94.48 217.26 93C216.22 91.48 214.58 90.72 212.34 90.72C209.82 90.72 208.06 91.38 207.06 92.7C206.7 93.14 206.48 93.64 206.4 94.2C206.32 94.76 206.32 95.42 206.4 96.18C206.48 96.94 206.52 97.36 206.52 97.44C206.52 98.24 206.28 98.88 205.8 99.36C205.32 99.84 204.7 100.08 203.94 100.08C203.1 100.08 202.42 99.82 201.9 99.3C201.42 98.78 201.18 98.08 201.18 97.2C201.18 95.04 202.28 93.14 204.48 91.5C206.68 89.86 209.42 89.04 212.7 89.04C216.54 89.04 219.42 89.9 221.34 91.62C223.26 93.34 224.2 96.26 224.16 100.38L224.1 114.18C224.1 115.62 224.26 116.64 224.58 117.24C224.94 117.8 225.52 118.08 226.32 118.08C227.64 118.08 228.76 117.28 229.68 115.68L230.64 116.22C229.36 119.18 227.2 120.66 224.16 120.66C222.6 120.66 221.34 120.16 220.38 119.16C219.46 118.16 219 116.64 219 114.6V112.92C217.8 118.12 214.42 120.72 208.86 120.72ZM211.38 118.14C213.38 118.14 215.12 117.42 216.6 115.98C218.12 114.54 218.88 112.3 218.88 109.26V103.62C216.76 103.9 214.92 104.24 213.36 104.64C211.84 105 210.4 105.5 209.04 106.14C207.72 106.78 206.72 107.58 206.04 108.54C205.36 109.5 205.02 110.62 205.02 111.9C205.02 113.62 205.6 115.1 206.76 116.34C207.92 117.54 209.46 118.14 211.38 118.14ZM237.755 120V89.88H243.155V103.26H247.595C247.955 99.02 249.575 95.6 252.455 93C255.375 90.36 258.875 89.04 262.955 89.04C267.315 89.04 270.975 90.52 273.935 93.48C276.895 96.4 278.375 100.2 278.375 104.88C278.375 109.52 276.895 113.32 273.935 116.28C270.975 119.24 267.315 120.72 262.955 120.72C258.715 120.72 255.115 119.32 252.155 116.52C249.235 113.68 247.695 110 247.535 105.48H243.155V120H237.755ZM263.315 118.68C265.835 118.68 267.975 117.66 269.735 115.62C271.535 113.58 272.435 110.58 272.435 106.62C272.435 102.5 271.515 98.88 269.675 95.76C267.835 92.6 265.475 91.02 262.595 91.02C260.075 91.02 257.915 92.06 256.115 94.14C254.355 96.18 253.475 99.18 253.475 103.14C253.475 107.26 254.395 110.88 256.235 114C258.075 117.12 260.435 118.68 263.315 118.68ZM293.865 92.1H282.765V89.88H310.365V92.1H299.265V120H293.865V92.1ZM29.2442 194H16.5242V148.52H29.0042C32.9642 148.52 36.5842 148.96 39.8642 149.84C43.1842 150.72 46.1242 152.04 48.6842 153.8C51.2842 155.56 53.3042 157.9 54.7442 160.82C56.2242 163.74 56.9642 167.12 56.9642 170.96C56.9642 174.8 56.2242 178.22 54.7442 181.22C53.3042 184.22 51.3042 186.64 48.7442 188.48C46.1842 190.28 43.2442 191.66 39.9242 192.62C36.6442 193.54 33.0842 194 29.2442 194ZM22.3442 191.36H29.0042C35.6042 191.36 40.8042 189.76 44.6042 186.56C48.4442 183.32 50.3642 178.2 50.3642 171.2C50.3642 164.2 48.4442 159.12 44.6042 155.96C40.8042 152.76 35.6042 151.16 29.0042 151.16H22.3442V191.36ZM100.062 194L92.8016 176.9H73.0616L65.8616 194H62.5016L81.8816 148.16H86.8016L106.302 194H100.062ZM74.2616 174.08H91.6016L82.9016 153.68L74.2616 174.08ZM126.658 194.36L106.618 148.52H112.978L129.598 186.74L146.218 148.52H149.638L129.658 194.36H126.658ZM159.486 194V148.52H165.306V194H159.486ZM212.789 194L205.529 176.9H185.789L178.589 194H175.229L194.609 148.16H199.529L219.029 194H212.789ZM186.989 174.08H204.329L195.629 153.68L186.989 174.08ZM231.976 148.52L263.536 184.94V148.52H266.656V194H263.536L231.976 157.22V194H228.856V148.52H231.976ZM282.233 194V148.52H288.053V194H282.233ZM56.2827 268.72C51.9627 268.72 48.4427 267.42 45.7227 264.82C43.0027 262.22 41.6427 259.16 41.6427 255.64C41.6427 252.32 42.7827 249.46 45.0627 247.06C47.3827 244.62 50.4027 242.76 54.1227 241.48C52.2027 239.52 50.7627 237.74 49.8027 236.14C48.8427 234.5 48.3627 232.82 48.3627 231.1C48.3627 228.26 49.5027 225.96 51.7827 224.2C54.0627 222.44 56.9827 221.56 60.5427 221.56C63.7827 221.56 66.4027 222.3 68.4027 223.78C70.4027 225.22 71.4027 227.16 71.4027 229.6C71.4027 232.24 70.4627 234.4 68.5827 236.08C66.7027 237.76 63.9427 239.22 60.3027 240.46L73.2627 253.24C73.4227 253.04 73.7627 252.44 74.2827 251.44L81.7227 237.88H84.7827L76.0227 254.02L75.3027 255.28L85.3827 265.24L81.8427 269.02L72.4827 259.72C70.1227 262.92 67.6427 265.22 65.0427 266.62C62.4827 268.02 59.5627 268.72 56.2827 268.72ZM53.1627 229.48C53.1627 231.08 53.6627 232.64 54.6627 234.16C55.7027 235.64 57.2427 237.4 59.2827 239.44C64.8027 237.24 67.5627 234.12 67.5627 230.08C67.5627 228.04 66.9027 226.44 65.5827 225.28C64.3027 224.12 62.5627 223.54 60.3627 223.54C58.1627 223.54 56.4027 224.1 55.0827 225.22C53.8027 226.34 53.1627 227.76 53.1627 229.48ZM46.6827 253.84C46.6827 257.28 47.7427 260.08 49.8627 262.24C52.0227 264.4 54.6227 265.48 57.6627 265.48C60.1827 265.48 62.4427 264.88 64.4427 263.68C66.4427 262.44 68.4427 260.44 70.4427 257.68L55.1427 242.5C52.3827 243.66 50.2827 245.24 48.8427 247.24C47.4027 249.2 46.6827 251.4 46.6827 253.84ZM123.975 268.72C118.655 268.72 114.255 267.9 110.775 266.26L109.575 253.72H111.375L114.675 263.44C115.315 265.28 118.395 266.2 123.915 266.2C127.155 266.2 129.755 265.46 131.715 263.98C133.675 262.46 134.655 260.38 134.655 257.74C134.655 255.1 133.815 253.06 132.135 251.62C130.455 250.14 127.775 248.8 124.095 247.6L120.855 246.52C113.255 243.96 109.455 239.58 109.455 233.38C109.455 229.78 111.015 226.92 114.135 224.8C117.295 222.64 121.075 221.56 125.475 221.56C130.035 221.56 133.615 222.22 136.215 223.54L137.835 235.24H136.035L132.615 226.66C131.935 224.94 129.435 224.08 125.115 224.08C122.235 224.08 119.815 224.74 117.855 226.06C115.935 227.34 114.975 229.14 114.975 231.46C114.975 233.62 115.575 235.42 116.775 236.86C117.975 238.3 119.895 239.46 122.535 240.34L125.775 241.42C130.535 242.98 134.135 244.82 136.575 246.94C139.055 249.06 140.295 251.98 140.295 255.7C140.295 259.5 138.715 262.62 135.555 265.06C132.395 267.5 128.535 268.72 123.975 268.72ZM158.448 268H152.628V222.52H167.988C170.788 222.52 173.248 222.7 175.368 223.06C177.528 223.42 179.528 224.04 181.368 224.92C183.208 225.76 184.608 227.02 185.568 228.7C186.568 230.34 187.068 232.34 187.068 234.7C187.068 243.1 180.708 247.3 167.988 247.3H158.448V268ZM158.448 225.16V244.6H167.508C171.708 244.6 174.928 243.88 177.168 242.44C179.448 241 180.588 238.5 180.588 234.94C180.588 231.38 179.448 228.86 177.168 227.38C174.888 225.9 171.668 225.16 167.508 225.16H158.448ZM225.97 268L218.71 250.9H198.97L191.77 268H188.41L207.79 222.16H212.71L232.21 268H225.97ZM200.17 248.08H217.51L208.81 227.68L200.17 248.08ZM247.078 255.04L246.478 245.8C246.358 244.04 246.578 242.86 247.138 242.26C247.698 241.66 248.978 241.16 250.978 240.76L255.238 239.92C260.318 238.96 262.858 236.7 262.858 233.14C262.858 230.5 261.738 228.32 259.498 226.6C257.298 224.84 254.638 223.96 251.518 223.96C248.478 223.96 246.138 224.94 244.498 226.9C244.378 227.06 244.178 227.32 243.898 227.68C243.658 228 243.458 228.24 243.298 228.4C243.178 228.56 242.998 228.76 242.758 229C242.518 229.2 242.238 229.36 241.918 229.48C241.598 229.56 241.258 229.6 240.898 229.6C239.978 229.6 239.198 229.3 238.558 228.7C237.958 228.1 237.658 227.36 237.658 226.48C237.658 225.12 238.778 223.96 241.018 223C243.258 222.04 245.958 221.56 249.118 221.56C254.038 221.56 258.138 222.9 261.418 225.58C264.698 228.22 266.338 231.52 266.338 235.48C266.338 238.2 265.518 240.26 263.878 241.66C262.238 243.06 259.818 244.06 256.618 244.66L252.238 245.5C250.758 245.78 249.818 246.12 249.418 246.52C249.058 246.88 248.858 247.76 248.818 249.16L248.638 255.04H247.078ZM247.798 268.72C246.758 268.72 245.858 268.34 245.098 267.58C244.378 266.82 244.018 265.9 244.018 264.82C244.018 263.78 244.378 262.9 245.098 262.18C245.858 261.42 246.758 261.04 247.798 261.04C248.918 261.04 249.838 261.42 250.558 262.18C251.318 262.9 251.698 263.78 251.698 264.82C251.698 265.9 251.318 266.82 250.558 267.58C249.838 268.34 248.918 268.72 247.798 268.72Z" fill="url(#pattern0)"/>
<defs>
<pattern id="pattern0" patternContentUnits="objectBoundingBox" width="1" height="1">
<use xlink:href="#image0_328_890" transform="matrix(0.00349637 0 0 0.00405154 -1.0856 -0.587838)"/>
</pattern>
<image id="image0_328_890" xlink:href="/img/index/advantages/title-img.png"/>
</defs>
</svg>
