<svg width="83" height="24" viewBox="0 0 83 24" fill="none" xmlns="http://www.w3.org/2000/svg">
<path fill-rule="evenodd" clip-rule="evenodd" d="M12 24C5.37258 24 0 18.6274 0 12C0 5.37258 5.37258 0 12 0C18.6274 0 24 5.37258 24 12C24 18.6274 18.6274 24 12 24ZM8.82468 16.4471C10.0473 18.2852 11.8207 19.0546 13.5608 19.0673C15.7439 19.0832 17.4083 18.0432 18.5344 16.8273L18.0948 15.8508C17.1181 17.4591 15.2562 18.3103 13.5385 18.3332C12.043 18.3531 10.3285 17.8243 8.82468 16.4471ZM8.71747 13.3649C8.0382 13.3649 7.56597 13.3649 7.30078 13.3649C6.83195 13.3649 6.29232 13.7957 6.29232 14.1335C6.61021 14.1335 7.97275 14.1335 8.20918 14.1335C8.44562 14.1335 8.48888 14.0178 8.56666 13.7957C8.6672 13.5085 8.71747 13.3649 8.71747 13.3649ZM10.129 13.0464C13.5608 11.7278 17.5262 12.8536 18.8961 16.297C19.9988 14.9531 20.2898 13.4498 20.2898 12.4785C17.935 11.2726 13.6306 10.6455 10.129 13.0464ZM9.58249 12.7328C12.9349 10.4098 17.0761 10.4098 20.2212 11.87C20.146 9.84781 19.6424 8.80959 18.9713 7.89215C14.7945 7.65728 11.0987 9.6336 9.58249 12.7328ZM8.71747 6.01111V12.7961C8.78174 12.7961 8.8446 12.7961 8.90605 12.7961C10.9174 8.50697 15.5917 7.29246 18.4041 7.29246C17.0165 5.54982 14.6417 4.82307 12.885 4.82307C11.3017 4.82307 9.91249 5.21908 8.71747 6.01111ZM8.29796 6.60467C8.29796 5.47985 7.09634 4.68814 6.39335 4.68814C6.1335 4.68814 6.09254 4.71297 6.05183 4.77125C6.0098 4.8314 6.01183 4.91258 6.1335 5.01427C6.23689 5.10068 6.96415 5.69045 7.64731 6.12897C5.67797 7.89947 4.25868 9.249 4.14686 9.35674C4.03504 9.46448 4.05294 9.6336 4.25031 9.6336C4.44769 9.6336 5.70497 9.6336 6.40409 9.6336C7.10322 9.6336 8.29796 8.93638 8.29796 7.73418C8.29796 6.53197 8.29796 7.72948 8.29796 6.60467Z" fill="#374047"/>
<path d="M33.2617 6.80005H37.0217C37.7577 6.80005 38.3817 6.86938 38.8937 7.00805C39.4164 7.14672 39.8377 7.34405 40.1577 7.60005C40.4884 7.85605 40.7284 8.17605 40.8777 8.56005C41.0271 8.93338 41.1017 9.36005 41.1017 9.84005C41.1017 10.3307 40.9844 10.7787 40.7497 11.184C40.5151 11.5894 40.1524 11.92 39.6617 12.176C40.2697 12.4214 40.7124 12.7734 40.9897 13.232C41.2777 13.68 41.4217 14.192 41.4217 14.768C41.4217 15.3014 41.3471 15.7707 41.1977 16.176C41.0484 16.5707 40.8084 16.9067 40.4777 17.184C40.1577 17.4507 39.7364 17.6534 39.2137 17.792C38.7017 17.9307 38.0777 18 37.3417 18H33.2617V6.80005ZM35.1817 13.024V16.368H37.3417C38.1097 16.368 38.6431 16.2347 38.9417 15.9681C39.2511 15.6907 39.4057 15.264 39.4057 14.688C39.4057 14.1227 39.2511 13.7067 38.9417 13.44C38.6431 13.1627 38.1097 13.024 37.3417 13.024H35.1817ZM35.1817 8.43205V11.456H37.0217C37.7791 11.456 38.3124 11.328 38.6217 11.072C38.9311 10.8054 39.0857 10.4267 39.0857 9.93605C39.0857 9.45605 38.9311 9.08805 38.6217 8.83205C38.3124 8.56538 37.7791 8.43205 37.0217 8.43205H35.1817Z" fill="black"/>
<path d="M43.3536 10H44.8096L44.9536 10.896C45.2309 10.5547 45.5723 10.2987 45.9776 10.128C46.3936 9.94672 46.8523 9.85605 47.3536 9.85605H48.1536V11.584H47.3536C46.6176 11.584 46.0736 11.744 45.7216 12.064C45.3803 12.384 45.2096 12.816 45.2096 13.36V18H43.3536V10Z" fill="black"/>
<path d="M52.8855 18.144C51.6801 18.144 50.7361 17.8027 50.0535 17.12C49.3815 16.4374 49.0455 15.4827 49.0455 14.256V13.744C49.0455 13.136 49.1308 12.592 49.3015 12.112C49.4828 11.632 49.7388 11.2267 50.0695 10.896C50.4108 10.5547 50.8161 10.2987 51.2855 10.128C51.7548 9.94672 52.2881 9.85605 52.8855 9.85605C54.0908 9.85605 55.0295 10.1974 55.7015 10.88C56.3841 11.5627 56.7255 12.5174 56.7255 13.744V14.256C56.7255 14.864 56.6348 15.4081 56.4535 15.8881C56.2828 16.368 56.0268 16.7787 55.6855 17.12C55.3548 17.4507 54.9495 17.7067 54.4695 17.888C54.0001 18.0587 53.4721 18.144 52.8855 18.144ZM52.8855 16.416C53.4935 16.416 53.9575 16.2401 54.2775 15.8881C54.6081 15.536 54.7735 14.992 54.7735 14.256V13.744C54.7735 13.0187 54.6028 12.48 54.2615 12.128C53.9308 11.7654 53.4721 11.584 52.8855 11.584C52.2775 11.584 51.8081 11.76 51.4775 12.112C51.1575 12.464 50.9975 13.008 50.9975 13.744V14.256C50.9975 14.9814 51.1628 15.5254 51.4935 15.8881C51.8348 16.2401 52.2988 16.416 52.8855 16.416Z" fill="black"/>
<path d="M61.1878 15.312L59.3798 18H57.2998L60.0678 13.952L57.4278 10H59.5718L61.2518 12.544L62.9638 10H65.0118L62.3718 13.8881L65.1398 18H62.9958L61.1878 15.312Z" fill="black"/>
<path d="M69.4698 18.144C68.5312 18.144 67.7898 17.856 67.2458 17.28C66.7018 16.6934 66.4298 15.8134 66.4298 14.64V10H68.2858V14.64C68.2858 15.2267 68.4245 15.6694 68.7018 15.9681C68.9792 16.2667 69.3418 16.416 69.7898 16.416C70.3338 16.416 70.7658 16.2614 71.0858 15.952C71.4165 15.6427 71.5925 15.232 71.6138 14.72V10H73.4698V18H72.0138L71.8698 17.12C71.5818 17.4507 71.2352 17.7067 70.8298 17.888C70.4245 18.0587 69.9712 18.144 69.4698 18.144Z" fill="black"/>
<path d="M78.6867 18.144C77.5881 18.144 76.7721 17.904 76.2387 17.424C75.7161 16.9334 75.4121 16.2454 75.3267 15.36H77.2787C77.3641 15.8187 77.5027 16.144 77.6947 16.3361C77.8974 16.5174 78.2281 16.608 78.6867 16.608C79.2307 16.608 79.5987 16.5334 79.7907 16.384C79.9934 16.224 80.0947 16.016 80.0947 15.76C80.0947 15.472 79.9774 15.2534 79.7427 15.104C79.5187 14.9547 79.2361 14.8374 78.8947 14.752C78.5534 14.656 78.1854 14.5707 77.7907 14.496C77.3961 14.4107 77.0281 14.288 76.6867 14.128C76.3454 13.9574 76.0574 13.728 75.8227 13.44C75.5987 13.1414 75.4867 12.7307 75.4867 12.208C75.4867 11.8774 75.5507 11.568 75.6787 11.28C75.8067 10.992 76.0041 10.7467 76.2707 10.544C76.5374 10.3307 76.868 10.1654 77.2627 10.048C77.6681 9.92005 78.1427 9.85605 78.6867 9.85605C79.7107 9.85605 80.4787 10.0961 80.9907 10.576C81.5027 11.0454 81.8014 11.7067 81.8867 12.56H79.9347C79.8494 12.1227 79.7161 11.8187 79.5347 11.648C79.3641 11.4774 79.0814 11.392 78.6867 11.392C78.2281 11.392 77.9027 11.4667 77.7107 11.616C77.5294 11.7654 77.4387 11.9467 77.4387 12.16C77.4387 12.4267 77.5507 12.624 77.7747 12.752C78.0094 12.8694 78.2974 12.9707 78.6387 13.056C78.9801 13.1307 79.3481 13.2107 79.7427 13.296C80.1374 13.3707 80.5054 13.4987 80.8467 13.68C81.1881 13.8507 81.4707 14.096 81.6947 14.416C81.9294 14.7361 82.0467 15.168 82.0467 15.712C82.0467 16.064 81.9774 16.3894 81.8387 16.688C81.7107 16.9867 81.5081 17.2427 81.2307 17.456C80.9641 17.6694 80.6174 17.84 80.1907 17.9681C79.7747 18.0854 79.2734 18.144 78.6867 18.144Z" fill="black"/>
</svg>
