<?xml version="1.0" encoding="UTF-8"?><!DOCTYPE svg PUBLIC "-//W3C//DTD SVG 1.1//EN" "http://www.w3.org/Graphics/SVG/1.1/DTD/svg11.dtd"><svg xmlns="http://www.w3.org/2000/svg" xmlns:xlink="http://www.w3.org/1999/xlink"><defs><clipPath id="arrow-styled-with-line-a"><path d="M0 0h29v16H0z"/></clipPath></defs><symbol id="arrow-styled-with-line" viewBox="0 0 29 16"><g clip-path="url(#arrow-styled-with-line-a)"><path d="m22.449 1.684-.316-.949-1.898.633.317.948 1.897-.632Zm-1.897 12-.317.949 1.898.632.316-.949-1.897-.632Zm0-11.368c1.079 3.238 2.87 4.94 4.47 5.812a7.43 7.43 0 0 0 2.041.758 5.892 5.892 0 0 0 .843.112 2.776 2.776 0 0 0 .088.002H28L28 8c0-1 0-1 .002-1h.006s.001 0 0 0h-.015l-.098-.007a3.896 3.896 0 0 1-.427-.066 5.432 5.432 0 0 1-1.489-.555c-1.15-.627-2.61-1.925-3.53-4.688l-1.897.632ZM28 8 28 7h-.005a1.224 1.224 0 0 0-.088.003 5.893 5.893 0 0 0-.842.112 7.43 7.43 0 0 0-2.043.757c-1.599.873-3.39 2.575-4.47 5.812l1.898.633c.92-2.763 2.38-4.061 3.53-4.689a5.432 5.432 0 0 1 1.49-.555 3.893 3.893 0 0 1 .54-.073H28V8Z"/><path fill-rule="evenodd" clip-rule="evenodd" d="M0 7h25v2H0V7Z"/></g></symbol><symbol id="expand-styled" viewBox="0 0 10 17"><path d="m3.449 2.184-.316-.949-1.898.633.317.948 1.897-.632Zm-1.897 12-.317.949 1.898.632.316-.949-1.897-.632Zm0-11.368c1.079 3.238 2.87 4.94 4.47 5.812a7.43 7.43 0 0 0 2.041.758 5.89 5.89 0 0 0 .842.112 2.762 2.762 0 0 0 .09.002h.004L9 8.5c0-1 0-1 .002-1h.006s.001 0 0 0h-.015l-.098-.007a3.898 3.898 0 0 1-.426-.066 5.431 5.431 0 0 1-1.49-.555c-1.15-.627-2.61-1.925-3.53-4.688l-1.897.632ZM9 8.5 9 7.5h-.005a1.277 1.277 0 0 0-.089.003 5.892 5.892 0 0 0-.842.112 7.43 7.43 0 0 0-2.042.757c-1.599.873-3.39 2.575-4.47 5.812l1.898.633c.92-2.763 2.38-4.061 3.53-4.689a5.43 5.43 0 0 1 1.49-.555 3.895 3.895 0 0 1 .54-.073h-.007C9 9.5 9 9.5 9 8.5Z"/></symbol><symbol id="expand" viewBox="0 0 9.6 5.93"><path d="M4.8 5.93.23 1.37a.81.81 0 0 1 0-1.14.81.81 0 0 1 1.14 0L4.8 3.67 8.23.23a.81.81 0 0 1 1.14 0 .81.81 0 0 1 0 1.14Z"/></symbol><symbol id="location" viewBox="0 0 13.25 14.9"><path d="m7 14.3-.24-.44Zm-.81 0-.19.44Zm6-7.67A7 7 0 0 1 10 11.47a13.5 13.5 0 0 1-3.25 2.39l.47.88a14.71 14.71 0 0 0 3.5-2.57 8 8 0 0 0 2.49-5.54ZM6.63 1a5.63 5.63 0 0 1 5.62 5.63h1A6.63 6.63 0 0 0 6.63 0ZM1 6.63A5.63 5.63 0 0 1 6.63 1V0A6.63 6.63 0 0 0 0 6.63Zm5.46 7.23a13.5 13.5 0 0 1-3.25-2.39A7 7 0 0 1 1 6.63H0a8 8 0 0 0 2.49 5.54A14.71 14.71 0 0 0 6 14.74Zm.33 0a.38.38 0 0 1-.33 0l-.46.88a1.36 1.36 0 0 0 1.27 0Zm2-7.23a2.12 2.12 0 0 1-2.16 2.12v1a3.12 3.12 0 0 0 3.12-3.12ZM6.63 4.5a2.12 2.12 0 0 1 2.12 2.13h1A3.13 3.13 0 0 0 6.63 3.5ZM4.5 6.63A2.13 2.13 0 0 1 6.63 4.5v-1A3.13 3.13 0 0 0 3.5 6.63Zm2.13 2.12A2.12 2.12 0 0 1 4.5 6.63h-1a3.13 3.13 0 0 0 3.13 3.12Z"/></symbol><symbol id="logo" viewBox="0 0 145 131"><path d="M30.317 127.42v-8.421h.549v3.728c.274-.276.686-.552.96-.691a2.572 2.572 0 0 1 1.097-.276c.686 0 1.235.276 1.784.829.411.552.686 1.242.686 2.07 0 .967-.275 1.657-.824 2.347-.548.552-1.371.829-2.332.829-.274 0-.548 0-.96-.138-.274 0-.686 0-.96-.277Zm.549-.552c.137.138.411.276.548.276.275.138.55.138.823.138.686 0 1.235-.276 1.647-.69.411-.414.685-1.104.685-1.795 0-.69-.137-1.242-.548-1.656-.412-.414-.823-.69-1.372-.69-.274 0-.686.138-.96.276-.275.138-.549.414-.823.828v3.313Z"/><path fill-rule="evenodd" clip-rule="evenodd" d="M30.052 118.733h1.078v3.424a4.44 4.44 0 0 1 .578-.359c.299-.15.751-.304 1.215-.304.773 0 1.386.318 1.97.906l.014.014.012.015c.442.594.738 1.339.738 2.23 0 1.031-.297 1.78-.88 2.514l-.01.011-.01.011c-.613.616-1.513.906-2.52.906-.273 0-.572 0-1.002-.138-.266 0-.76-.007-1.105-.354l-.078-.078v-8.798Zm.53.533v8.03c.183.125.438.134.695.134h.043l.04.014c.371.124.61.124.877.124.908 0 1.65-.259 2.135-.74.508-.642.756-1.272.756-2.169 0-.757-.248-1.387-.622-1.895-.507-.507-.99-.737-1.583-.737-.358 0-.73.122-.979.248a3.573 3.573 0 0 0-.32.187c.29-.137.71-.278 1.025-.278.653 0 1.128.335 1.559.769.483.485.626 1.122.626 1.844 0 .753-.296 1.514-.763 1.983a2.528 2.528 0 0 1-1.834.769h-.017c-.252 0-.561 0-.876-.143a1.075 1.075 0 0 1-.322-.11 1.37 1.37 0 0 1-.343-.239l-.078-.078v-3.505l.044-.067c.072-.107.144-.208.218-.301l-.262.264v-4.104h-.02Zm2.067 3.451c-.214 0-.583.117-.842.248-.203.102-.43.315-.677.672v3.106a.983.983 0 0 0 .24.124c.027.008.04.01.044.011.001 0 .001 0 0 0h.063l.056.028c.21.106.423.11.704.11.609 0 1.092-.243 1.46-.612.356-.359.608-.978.608-1.607 0-.657-.131-1.125-.471-1.468-.393-.395-.74-.612-1.185-.612Z"/><path d="M42.526 127.144c-.412.276-.823.553-1.097.553-.412.138-.686.138-1.098.138-.823 0-1.509-.277-2.058-.829-.548-.552-.823-1.38-.823-2.209 0-.828.275-1.518.686-2.07.549-.552 1.098-.829 1.92-.829.687 0 1.373.277 1.784.691.412.552.686 1.242.686 2.07h-4.527c0 .691.137 1.381.549 1.795.411.414.96.69 1.509.69.411 0 .686 0 1.097-.138.412-.138.686-.414 1.098-.69v.828h.274Zm-4.39-2.899h3.704c0-.552-.274-.966-.549-1.242-.274-.276-.685-.414-1.234-.414-.412 0-.823.138-1.235.414-.411.276-.549.69-.686 1.242Z"/><path fill-rule="evenodd" clip-rule="evenodd" d="M38.337 122.902a3.125 3.125 0 0 0-.598 1.491h.088l.053-.212c.136-.551.291-1.061.795-1.4.446-.299.908-.459 1.382-.459.59 0 1.08.149 1.422.492.303.306.626.784.626 1.431v.148h.146a3.126 3.126 0 0 0-.611-1.629c-.358-.352-.967-.599-1.583-.599-.38 0-.686.063-.956.184a2.56 2.56 0 0 0-.764.553Zm-.603 1.534c-.012.117-.019.238-.019.361 0 .776.258 1.53.746 2.021.495.499 1.113.75 1.87.75.41 0 .646-.001 1.014-.124l.04-.014h.044c.064 0 .184-.038.37-.14.06-.033.123-.07.188-.11v-.344l-.132.095a2.355 2.355 0 0 1-.617.328c-.452.152-.763.152-1.173.152h-.008c-.635 0-1.248-.317-1.696-.769-.49-.492-.627-1.275-.627-1.983v-.223Zm4.782 2.442h.884l-.733.492c-.202.135-.415.279-.614.388-.178.097-.382.19-.577.203-.433.14-.738.14-1.137.14h-.008c-.888 0-1.643-.301-2.245-.906-.61-.614-.9-1.516-.9-2.398 0-.891.296-1.636.739-2.23l.01-.015.014-.014c.29-.291.59-.521.937-.676.348-.155.728-.23 1.17-.23.748 0 1.504.298 1.971.768l.014.014.01.015c.443.594.74 1.339.74 2.23v.267h-4.52c.033.562.175 1.049.464 1.34.374.376.86.612 1.322.612.409 0 .646-.001 1.014-.124.17-.058.318-.145.48-.259l.191-.14c.113-.084.239-.178.363-.261l.411-.276v1.06Zm-2.46-4.023c-.349 0-.71.117-1.087.369-.25.168-.377.398-.486.755h3.066a1.571 1.571 0 0 0-.445-.788c-.207-.208-.54-.336-1.047-.336Z"/><path d="M48.013 127.282c-.274.276-.548.415-.96.553-.274.138-.549.138-.823.138-.412 0-.823-.138-1.097-.415-.275-.276-.412-.69-.412-1.104 0-.69.274-1.104.823-1.518.549-.415 1.372-.553 2.47-.553v-.552c0-.414-.138-.69-.275-.966-.274-.138-.549-.276-.96-.276-.275 0-.55 0-.824.138-.274.138-.548.276-.96.552v-.69c.275-.276.686-.414.96-.414.275-.139.55-.139.824-.139.685 0 1.097.139 1.371.415.275.276.412.828.412 1.518V127.282l.137.138c.137 0 .275-.138.549-.276l.137-.138v.552c-.137.139-.411.277-.549.415-.137.138-.274.138-.411.138-.137 0-.275 0-.412-.138v-.691Zm0-.69v-1.795c-.823 0-1.509.139-1.92.415-.412.276-.686.69-.686 1.104 0 .276.137.552.274.69.137.138.412.276.823.276.275 0 .412 0 .686-.138.275 0 .549-.276.823-.552Z"/><path fill-rule="evenodd" clip-rule="evenodd" d="M46.178 122.369c.21-.047.41-.047.583-.047h.018c.474 0 .795.162 1.07.3l.087.044.044.088c.137.276.298.6.298 1.077v4.003l.005.001a.605.605 0 0 0 .142.009c.073 0 .11-.001.141-.009a.172.172 0 0 0 .083-.051 1.19 1.19 0 0 1 .119-.102.51.51 0 0 1-.069.005h-.11l-.292-.294v-3.424c0-.329-.032-.615-.094-.846-.062-.233-.147-.391-.24-.484-.202-.204-.529-.336-1.184-.336-.236 0-.423.003-.601.066Zm2.912 4.557.56-.563v1.306l-.078.078c-.087.088-.209.169-.303.232a1.724 1.724 0 0 0-.246.182c-.215.216-.447.216-.59.216h-.017c-.142 0-.375 0-.59-.216l-.077-.078v-.26c-.178.104-.371.183-.595.259-.325.157-.647.157-.907.157h-.017c-.464 0-.95-.155-1.285-.492-.335-.338-.489-.826-.489-1.293 0-.383.077-.706.24-.995.163-.285.4-.518.69-.737.572-.432 1.379-.581 2.363-.602v-.289c0-.312-.09-.527-.208-.768-.238-.118-.452-.208-.762-.208-.281 0-.494.004-.705.11-.271.137-.534.269-.932.536l-.411.276v-1.299l.077-.078c.308-.309.75-.472 1.084-.49.312-.14.62-.14.87-.14h.017c.716 0 1.212.144 1.559.492.182.183.301.44.377.724.076.287.112.622.112.983v3.111l.014-.008c.064-.04.15-.093.25-.146Zm-1.523.384a.85.85 0 0 1-.31.097 1.35 1.35 0 0 1-.366.121c-.125.021-.247.021-.375.021h-.012c-.468 0-.814-.158-1.01-.354a1.326 1.326 0 0 1-.352-.879c0-.516.325-.99.764-1.298-.073.04-.14.083-.203.131-.259.195-.434.376-.547.574-.11.195-.17.424-.17.731 0 .361.12.701.334.916.213.215.55.336.91.336.28 0 .494-.004.705-.11l.016-.008.018-.006a2.47 2.47 0 0 0 .598-.272Zm-1.625-4.869c-.186.004-.47.094-.682.266v.091a8.998 8.998 0 0 1 .682-.357Zm1.807 2.628c-.679.027-1.203.159-1.51.364-.364.245-.567.586-.567.883 0 .201.106.41.196.502.08.079.281.198.636.198.143 0 .223-.001.3-.014a.898.898 0 0 0 .268-.096l.056-.028h.062c.051 0 .13-.027.253-.119.097-.073.196-.169.306-.277v-1.413Z"/><path d="M55.558 126.868c-.274.276-.548.552-.96.69a2.557 2.557 0 0 1-1.097.277c-.686 0-1.098-.138-1.51-.553-.411-.414-.548-.966-.548-1.794v-3.59h.686v3.176c0 .69.137 1.242.411 1.518.275.276.549.552 1.098.552.411 0 .686-.138 1.097-.276.275-.138.549-.552.823-.828v-4.142h.686v5.799h-.686v-.829Z"/><path fill-rule="evenodd" clip-rule="evenodd" d="M51.178 121.632h1.215v3.442c0 .328.033.615.094.846.062.233.148.391.24.484.272.273.478.474.91.474.277 0 .466-.068.747-.169l.247-.087c.084-.046.187-.145.318-.293.039-.044.08-.093.124-.145.07-.082.146-.171.22-.251v-4.301h1.216v6.331h-1.215v-.489a2.027 2.027 0 0 1-.594.331c-.3.148-.744.296-1.2.296-.359 0-.666-.036-.946-.136a1.986 1.986 0 0 1-.75-.494c-.486-.49-.626-1.131-.626-1.983v-3.856Zm4.38 5.236h.265v.562h.156v-5.265h-.156v3.985l-.078.078c-.084.085-.164.179-.25.281a8.695 8.695 0 0 1-.15.174c-.136.153-.303.329-.492.423l-.016.009-.018.006-.219.077c-.295.107-.586.213-.962.213-.659 0-1.001-.345-1.277-.622l-.008-.009c-.182-.183-.302-.439-.377-.723a3.892 3.892 0 0 1-.112-.983v-2.909h-.156v3.323c0 .804.134 1.267.47 1.606.184.184.357.298.554.369.2.072.442.105.769.105.358 0 .729-.122.979-.248l.016-.008.018-.006c.344-.116.578-.345.857-.626l.187.188Z"/><path d="M59.81 126.454c0 .414 0 .69.138.828.137.138.274.138.549.138.137 0 .274 0 .411-.138.137 0 .275-.138.549-.276v.691c-.137.138-.412.138-.549.138h-.549c-.411 0-.823-.138-.96-.277a2.77 2.77 0 0 1-.274-1.242v-3.727H57.89v-.553h1.235v-1.242l.549-.552h.137v1.933h1.509v.552h-1.51v3.727Z"/><path fill-rule="evenodd" clip-rule="evenodd" d="M59.564 119.975h.511v1.933h1.51v1.085h-1.51v3.461c0 .213 0 .367.016.485.014.12.039.15.044.155.03.031.052.041.088.048.054.011.127.012.274.012.073 0 .11-.001.141-.009a.172.172 0 0 0 .083-.051l.078-.078h.105a.532.532 0 0 0 .091-.048l.055-.034c.073-.046.172-.107.289-.166l.383-.193v1.232l-.078.078a.757.757 0 0 1-.418.195c-.124.021-.245.021-.313.021h-.553c-.234 0-.465-.039-.66-.098-.183-.055-.372-.139-.488-.256l-.03-.031-.02-.038a3.042 3.042 0 0 1-.302-1.362v-3.461h-1.234v-1.085h1.234v-1.086l.704-.709Zm-.018.772v1.694h1.51v.019h-1.51v4.008c0 .196 0 .382.02.537.018.151.06.321.182.452a.732.732 0 0 1-.136-.067 2.527 2.527 0 0 1-.222-1.074v-3.994h-1.235v-.019h1.235v-1.399l.156-.157Zm1.432 6.821a1.106 1.106 0 0 0 .214-.025v-.075a.696.696 0 0 1-.168.066l-.046.034Z"/><path d="m65.298 126.73-2.47-4.694h.824l1.92 4.004 1.92-4.004h.687l-4.253 8.698h-.549l1.921-4.004Z"/><path fill-rule="evenodd" clip-rule="evenodd" d="M62.39 121.77h1.428l1.754 3.657 1.755-3.657h1.277L64.091 131h-1.135L65 126.736l-2.612-4.966Zm.878.533 2.325 4.419 2.16-4.419h-.094l-2.087 4.35-2.086-4.35h-.218Z"/><path d="m82.171 127.835-1.234-1.381c-.412.552-.823.828-1.372 1.104a3.624 3.624 0 0 1-1.646.415c-.686 0-1.235-.138-1.647-.553-.411-.414-.685-.966-.685-1.518s.137-.966.548-1.519c.412-.414.96-.828 1.646-1.104-.411-.276-.685-.69-.823-.966-.137-.277-.274-.691-.274-.967 0-.552.137-.966.549-1.38.411-.414.823-.552 1.509-.552.548 0 1.097.138 1.371.552.412.276.55.828.55 1.38 0 .414-.138.829-.412 1.243-.275.414-.686.69-1.372.966l1.92 2.071c.138-.276.412-.552.55-.829.136-.276.273-.69.41-1.104h.687c-.138.414-.275.966-.412 1.381a3.008 3.008 0 0 1-.686 1.104l1.784 1.933h-.96v-.276Zm-1.783-1.933-2.195-2.347c-.686.276-1.097.552-1.372.966-.274.415-.411.829-.411 1.243 0 .414.137.828.411 1.104.275.276.686.414 1.098.414.411 0 .823-.138 1.234-.276.549-.276.96-.69 1.235-1.104Zm-1.92-3.037c.548-.276.96-.552 1.234-.829.274-.276.412-.552.412-.966 0-.414-.138-.69-.412-.966-.274-.276-.549-.414-.96-.414-.412 0-.686.138-.96.414-.275.276-.412.552-.412.828 0 .276.137.552.274.828.275.415.549.829.823 1.105Z"/><path fill-rule="evenodd" clip-rule="evenodd" d="m80.377 121.009.001.061c0 .238-.04.449-.126.643-.085.194-.21.358-.363.512-.302.304-.742.596-1.303.878l-.17.086-.136-.136c-.293-.295-.579-.727-.845-1.129l-.02-.03-.008-.015-.012-.025c-.128-.257-.29-.582-.29-.922 0-.226.07-.441.191-.643a1.437 1.437 0 0 0-.245.411c-.07.185-.102.392-.102.646 0 .216.116.586.246.847.125.252.374.623.733.864l.296.199.038-.016.188.201.33-.133c.666-.268 1.02-.518 1.25-.867.252-.379.368-.743.368-1.095 0-.117-.007-.23-.02-.337Zm.324 4.901-.093.14c-.296.446-.74.895-1.336 1.195l-.017.008-.038.013c-.397.133-.844.283-1.298.283-.464 0-.95-.155-1.285-.492-.335-.338-.489-.826-.489-1.293 0-.477.159-.941.456-1.39.036-.055.075-.108.115-.158a5.126 5.126 0 0 0-.38.342c-.373.505-.485.862-.485 1.344 0 .465.234.953.609 1.33.34.343.805.474 1.459.474.503 0 1.011-.126 1.527-.386.526-.264.9-.517 1.279-1.026l.193-.259.094.105.149-.15c.249-.251.5-.63.622-1.001.066-.2.133-.436.202-.679l.001-.003.1-.348h-.136c-.117.351-.24.705-.365.958-.08.159-.194.314-.292.445l-.007.009a2.613 2.613 0 0 0-.25.374l-.17.343-.165-.178Zm1.735 1.838v.096h.088l-.088-.096Zm-4.64-8.465c.279-.1.587-.136.946-.136.554 0 1.203.132 1.562.627.492.362.623 1.015.623 1.572 0 .477-.159.941-.456 1.39-.262.396-.627.67-1.142.914l1.43 1.542c.032-.046.065-.089.096-.131l.007-.009c.107-.143.194-.261.25-.374.126-.255.257-.648.397-1.069l.06-.182h1.244l-.116.35c-.067.201-.134.436-.203.68v.003c-.069.239-.138.485-.209.698-.122.369-.34.733-.577 1.018l2.03 2.201h-1.831v-.44l-.96-1.073c-.38.436-.778.688-1.264.933-.58.292-1.17.442-1.764.442-.718 0-1.35-.144-1.834-.63-.448-.452-.763-1.068-.763-1.707 0-.618.16-1.087.602-1.678l.01-.016.014-.013c.35-.352.795-.705 1.337-.982a3.018 3.018 0 0 1-.563-.781c-.145-.291-.303-.749-.303-1.086 0-.298.037-.574.138-.837.101-.265.261-.503.489-.732.228-.229.466-.392.75-.494Zm.522.754a1.167 1.167 0 0 0-.35.255c-.245.247-.333.46-.333.64 0 .198.098.41.239.694.228.345.443.667.651.909.445-.237.772-.467.99-.687a1.17 1.17 0 0 0 .254-.351 1.03 1.03 0 0 0 .08-.427 1.03 1.03 0 0 0-.08-.427 1.17 1.17 0 0 0-.254-.351 1.167 1.167 0 0 0-.35-.255 1.003 1.003 0 0 0-.423-.081c-.175 0-.31.029-.424.081Zm-.192 3.835c-.56.242-.874.479-1.085.797-.25.379-.367.743-.367 1.095 0 .361.12.701.334.916.214.215.552.336.91.336.356 0 .72-.118 1.133-.256.42-.215.751-.518.995-.835l-1.92-2.053Z"/><path d="M95.89 120.38a7.85 7.85 0 0 0-.961-.552c-.274-.138-.686-.138-.96-.138-.549 0-.96.138-1.235.414-.274.276-.549.69-.549 1.104 0 .414.138.69.275.967.274.276.686.552 1.372.828 0 0 .137 0 .137.138.823.276 1.372.69 1.646.966.137.138.274.414.412.69.137.277.137.553.137.829 0 .69-.275 1.242-.686 1.656-.412.415-1.098.691-1.784.691-.411 0-.823 0-1.097-.138a4.102 4.102 0 0 1-1.097-.553v-.966c.411.276.823.552 1.097.69.412.138.686.276 1.097.276.55 0 .96-.138 1.372-.414.275-.276.549-.69.549-1.242 0-.414-.137-.69-.274-.967-.275-.276-.686-.552-1.51-.828-.823-.276-1.371-.69-1.646-1.104a2.345 2.345 0 0 1-.411-1.381c0-.69.274-1.242.686-1.656.411-.415 1.097-.691 1.783-.691.412 0 .686 0 .96.138.275.138.686.277.96.415v.828h-.274Z"/><path fill-rule="evenodd" clip-rule="evenodd" d="M95.085 119.376c-.208-.105-.416-.11-.842-.11-.447 0-.89.13-1.236.336.275-.123.6-.179.962-.179h.004c.135 0 .318 0 .502.019.184.018.393.057.572.147.247.124.5.252.852.479v-.346a9.966 9.966 0 0 0-.314-.13l-.006-.003c-.167-.067-.347-.139-.494-.213Zm-2.804 2.995c.037.07.079.139.125.208.232.35.723.736 1.51.999.849.285 1.3.58 1.612.893l.03.031.024.047c.137.276.298.6.298 1.077 0 .648-.323 1.125-.627 1.431l-.018.018-.022.015a2.573 2.573 0 0 1-1.519.459c-.376 0-.667-.106-.962-.213a11.607 11.607 0 0 0-.219-.077l-.018-.006-.016-.008a8.195 8.195 0 0 1-.715-.433v.326c.33.214.57.328.917.444l.017.006.017.008c.094.047.227.078.403.094.175.016.368.016.576.016.625 0 1.24-.254 1.597-.612.367-.37.608-.856.608-1.468 0-.283-.004-.497-.11-.709a7.886 7.886 0 0 0-.198-.384 1.15 1.15 0 0 0-.163-.237c-.247-.249-.76-.64-1.543-.902l-.18-.061v-.095c-.685-.278-1.121-.565-1.424-.867Zm1.617.371c.03.006.074.016.12.04a.383.383 0 0 1 .15.131l.011.02c.795.288 1.336.697 1.623.986.095.095.177.224.248.349.073.128.144.271.211.407l.002.003c.166.333.165.664.165.93v.018c0 .768-.307 1.386-.763 1.845-.467.47-1.223.768-1.97.768h-.007c-.201 0-.417 0-.618-.018a1.711 1.711 0 0 1-.573-.139 4.36 4.36 0 0 1-1.144-.578l-.118-.079v-1.607l.411.276c.41.275.797.534 1.053.666l.25.087c.28.101.47.169.745.169a2.04 2.04 0 0 0 1.203-.355c.239-.246.453-.59.453-1.035 0-.33-.1-.551-.226-.808-.239-.23-.612-.478-1.376-.734-.86-.289-1.466-.732-1.783-1.21a2.606 2.606 0 0 1-.456-1.528c0-.768.308-1.386.764-1.845.467-.47 1.223-.768 1.97-.768h.033c.384 0 .715 0 1.046.166.125.063.285.128.46.198l.007.003c.166.067.346.139.493.213l.146.074v1.259h-.619l-.066-.045a7.622 7.622 0 0 0-.932-.535 1.144 1.144 0 0 0-.388-.094c-.157-.016-.316-.016-.454-.016-.508 0-.84.128-1.048.336-.257.259-.47.608-.47.916 0 .33.099.551.226.808.238.23.603.475 1.22.726Z"/><path d="M99.73 119.137h2.058c.96 0 1.646.138 2.195.553.549.414.686.966.686 1.794a2.29 2.29 0 0 1-.686 1.657c-.412.414-1.097.69-1.921.69h-1.783v4.004h-.549v-8.698Zm.823.553v3.451h1.372c.686 0 1.235-.138 1.646-.414.412-.276.549-.691.549-1.381 0-.552-.137-.966-.549-1.242-.411-.276-.823-.414-1.509-.414h-1.509Z"/><path fill-rule="evenodd" clip-rule="evenodd" d="M99.466 118.871h2.322c.981 0 1.737.14 2.354.606.649.49.792 1.151.792 2.007 0 .769-.308 1.387-.764 1.845-.471.475-1.23.768-2.108.768h-1.518v4.004h-1.078v-9.23Zm.53.533v8.164h.018v-4.003h2.048c.769 0 1.382-.259 1.734-.612a2.22 2.22 0 0 0 .289-.358 1.39 1.39 0 0 1-.367.353c-.469.315-1.074.459-1.793.459h-1.636v-3.984h1.773c.733 0 1.197.151 1.656.459.515.345.667.865.667 1.464 0 .359-.035.672-.137.94.1-.238.156-.505.156-.802 0-.8-.132-1.243-.58-1.581-.48-.363-1.096-.499-2.036-.499h-1.793Zm.822.552v2.918h1.107c.653 0 1.145-.131 1.5-.369a.824.824 0 0 0 .328-.409c.069-.18.102-.419.102-.75 0-.505-.122-.814-.43-1.021-.364-.243-.723-.369-1.363-.369h-1.244Z"/><path d="m106.315 127.835 3.841-8.836h.274l3.842 8.836h-.824l-1.234-3.038h-3.841l-1.235 3.038h-.823Zm2.332-3.728h3.292l-1.646-4.003-1.646 4.003Z"/><path fill-rule="evenodd" clip-rule="evenodd" d="M109.983 118.733h.621l4.072 9.368h-1.405l-1.235-3.037h-3.486l-1.234 3.037h-1.406l4.073-9.368Zm.31.615-3.573 8.22h.24l1.235-3.037h4.197l1.234 3.037h.241l-3.574-8.22Zm0 .059 2.042 4.967h-4.084l2.042-4.967Zm0 1.393-1.25 3.041h2.5l-1.25-3.041Z"/><path d="M143.491 8.421c-5.762 1.657-13.581 3.175-19.205 3.313-1.784 0-4.39-.414-4.802-.414h-.411c-.275.138-.412.276-.412.414 0 .276.137.414.275.553.548.552.686.69 1.646 1.38 1.234.828 2.058 1.242 2.058 1.242l.411.138-24.28 9.112c-.687-1.243-1.373-2.071-1.373-2.347.549-1.657.549-4.97-1.509-6.35-.411-.277-1.234-.553-1.92-.829-1.92-.69-2.47-1.932-2.607-2.346 0 .276-.137.414-.137.69-.548-.69-.96-1.795-.686-3.313 2.744-2.761 4.39-.829 5.625-2.071-.412-1.933-2.195-1.795-2.195-1.795s.274-.552.274-.69c-4.39-.828-5.35 1.933-5.35 1.933l-.686-.69s-1.92 1.656-2.057 3.313c-.275-.139-1.235.276-2.058 0-1.51-.967-4.664-2.21-5.213-2.485-.137 0-.274-.138-.549-.138 0 0 .137-2.071-3.84-.967-.412-.138-.824-.138-1.236-.276a6.092 6.092 0 0 0-1.508-1.104c-2.47-1.38-2.881.552-2.881.552-4.39-.414-7.134-.414-7.134-.414s.275-1.105-.686-2.761C60.36.828 59.4 0 59.4 0c-.686.966-1.234 1.104-2.195 2.761-1.509 2.347-3.978 3.175-8.78 2.761-4.526-.414-6.584-.966-9.053.69-1.372.967-1.51 3.037-.823 4.142 0 0 1.097 1.656 2.743 1.242 1.372-.414 1.235-1.242 1.235-1.242s1.92 0 2.058 2.347c.274 2.346-1.098 4.555-2.744 4.693-.274 0 .686 1.657 2.47 1.933 1.234.138 2.057 0 2.469-.276 0 0 .137 0 .274-.138v6.074s-3.018-1.794-4.801.552c-.275.276 1.92-.138 2.057 2.071.412 4.694 1.098 5.798 1.92 6.35.412.276.961.414.961.967-1.372.138-2.47 1.104-2.47 2.07 0 1.105 1.098 1.933 2.607 2.071 0 .138 0 .552-.137.829-.274.552-1.509 1.104-2.057 2.76-.138.553-.275 1.105-.275 1.657l-15.364 5.798c-1.784.69-2.195.552-3.841.138-.412-.138-.823-.138-1.235-.276-.549-.138-1.097-.276-1.509-.276-1.92-.414-2.606-.552-6.173.828l-2.195.829c-5.076 1.932-11.935 4.417-13.306 4.832-.138 0-.138 0-.275.138-.686.276-.823.69-.686 1.104.138.276.96.966 1.51 1.104.548.138 1.234 0 1.92 0 .96-.138 1.92-.138 3.155.138.823.138 1.646.967 1.646.967v.138s-.411.966-.686 1.932c-.686 2.21-3.018 4.694-2.88 4.97.137.276.411.69 1.097.414.137 0 .137 0 .274-.138 1.235-.552 7.408-3.037 12.484-4.97l1.646-.828c3.567-1.38 4.39-2.485 5.624-4.003.275-.276 1.235-1.519 1.51-1.795.96-1.38 1.508-1.794 3.154-2.347l14.13-5.66c-.549 1.657-1.783 1.657-1.783 1.657s.411 1.104 2.057 1.104c1.784.138 2.47-.414 2.47-.414v9.526s-1.235-2.071-3.155-2.485c-4.939-1.105-5.35 3.589-4.665 3.727.686.138.55-.966 2.058-.828 1.235.138 2.47.966 2.195 4.28-.274 3.174-3.155 3.865-3.155 3.865s.549-2.485-2.058-2.761c-2.606-.276-4.115 3.589-.686 6.35 2.332 1.933 6.448.828 8.78.138 4.252-1.242 5.899-1.795 9.054-2.07 1.234-.139 8.093.69 7.545 4.831-.275 2.485-2.744 2.347-2.195 3.037.548.828 3.566 1.105 4.801-.276 1.372-1.519.823-2.76.823-2.76s1.098-.691 1.235-2.21c0-.966-.137-1.242-.137-1.242s2.469-.138 5.487-.69c.274 1.794 1.372 1.518 1.92 1.104.275-.138 1.098-.966 1.51-1.657 1.646-.414 2.331-.828 3.566-1.38 1.51 0 3.43-.69 3.155-1.933 1.92-1.242 3.155-2.209 4.253-3.451.549.552 1.234.138 1.509-.138-.274 1.242.96 2.76 1.097 2.899.412.552.412.966.412 1.242.411.553 1.234-.138 1.372-.276.274.276.823.414 1.234.552 2.195.553 4.116-.828 3.567-2.76-.549.414-1.509.828-2.058.69-1.234-.138-1.646-.967-2.058-1.519 0-.966-.274-.966-.274-1.518-.137-2.761 3.841-1.38 4.253-5.108.274.414.96.414 1.097.276-.137-.552-.411-1.38 0-2.07.275-.83.96-1.381 1.098-2.348.137-1.518-.275-1.932-.275-1.932s1.098-1.243.549-2.9c-.274-.69-.137-.966.96-2.76 1.646-.277 2.607-.967 3.704-2.486.823-.69 1.098-.828 1.509-1.656 1.372-2.485-.137-4.694-.137-4.694s1.372-3.451-2.195-5.66c-.137-.966-1.235-1.932-1.92-2.347-.549-.276-.686-.552-1.372-2.07l24.144-9.112-.138.414s-.411.829-.823 2.21c-.411 1.242-.411 1.518-.411 2.208 0 .138 0 .414.137.552.137.138.411.138.549 0 .137 0 .274-.138.411-.276.137-.276 1.921-2.347 3.293-3.451 4.115-3.313 11.111-7.179 16.461-9.802.412-.138.137-.69-.137-.552ZM98.084 24.987c0-.138.137-.138.275-.138l.96-.414h.137c.137 0 .274.138.412.276v.276c0 .138-.138.138-.138.138l-1.234.414h-.137c-.138 0-.275-.138-.412-.276 0 0 0-.138.137-.276Zm-.96.276c.137 0 .274.138.412.276v.276c0 .138-.138.138-.138.138l-13.306 5.108h-.137c-.138 0-.275-.138-.412-.276-.137-.138 0-.414.274-.552l13.307-4.97c-.137 0-.137 0 0 0Zm1.509 10.63c-.137 0-.274-.138-.274-.138-.412 0-.686.276-.96.828-.275.553.136 1.519.548 2.071.274.414.549.69.823.69 0 0 .137 0 .137-.138.275-.828.686-.966 1.098-.966.274 0 .548.138.686.138 0 0-.138 0-.138.138-.137.138-.274.552 0 1.795.412 2.07-.548 2.346-.685 2.346 0 0 0-1.242-1.098-2.208-.411-.276-.411-.276-.549-.414-.137 0-.137-.138-.411-.276-.549-.415-.96-1.243-1.098-1.933 0-.69.138-1.243.686-1.795.412-.414.823-.552 1.235-.552.686 0 1.372.552 1.372 1.242 0 .277 0 .69-.275.829a1.045 1.045 0 0 1-.686.276c-.411 0-.823-.276-.96-.552s-.137-.553 0-.69c.137-.139.275-.277.412-.277.274 0 .411.138.411.414h.138c.137 0 .137 0 .137-.138-.138-.276-.275-.552-.55-.69ZM87.384 55.22c-1.783 1.105-3.704.276-3.978-.828-.275.276-.686 1.38 0 2.76.549 1.105 1.097 1.381 1.097 1.381s-1.097 1.657-3.704 3.313c0 0-2.88-.966-5.212 2.347-6.722-.828-8.643 1.105-8.78 1.38l-.686.139s-4.527.414-5.487.138c-.275-.276-.686-.414-.96-.69-.138 0-.138-.138-.138-.138-.274-.138-.411-.415-.686-.553-.274-.276-.548-.552-1.097-.828V50.388c.274 0 .686 0 .96-.138.55 0 1.098-.138 1.784-.69a4.26 4.26 0 0 0 .686-.966s-2.195.414-2.607-4.142c-.137-.966-.137-1.794-.274-2.347l36.353-13.667c.137.553.137.829.137.829s-.549.69-.686 1.932c-1.372.69-2.058 3.452-.96 5.108-.412.138-.96 1.243-.686 2.761.411 2.209 1.372 1.933 1.509 3.175.274 1.105 0 1.38-.549 1.933-.549.414-1.509.138-1.646 1.519-.96.414-2.606 1.38-3.292 4.003-.55 2.623.823 4.28-1.098 5.522Zm-7.27 7.869c1.92-1.38 3.292-2.347 3.978-3.037.137 0 .137-.138.274-.138s.137 0 .275.138a.422.422 0 0 1 0 .552c-.96.966-2.47 2.209-4.528 3.451-.274-.552-.137-.966 0-.966Zm-2.058 2.347H77.644c1.098-1.795 2.332-2.623 2.332-2.623-1.097.966-1.92 2.623-1.92 2.623Zm-7.82-.276c-.548 0-.96 0-1.371.138.686-.414 1.783-.552 3.292-.552 1.646 0 3.292.276 3.292.276l-.548.828c-.138-.138-2.195-.69-4.664-.69Zm2.607 1.104c0 .138 0 .138 0 0-3.018.69-7.133.829-8.78.967-.686-.138-1.371-.139-1.783-.139h-.412c-.274 0-.548-.138-.548-.276s0-.138.274-.276c1.235 0 5.35-.138 8.78-.552.823 0 1.509.138 2.469.276ZM56.244 38.93c1.51 0 2.606-.966 2.606-2.07 0-1.105-1.371-2.071-2.606-2.071h-.274c.137-.69 1.234-.829 2.057-2.071 1.098-1.657.823-4.556 1.235-5.66.823-1.795 2.058-1.519 2.058-1.519s-.823-1.104-1.92-1.38H58.987c-.549 0-.96-.138-1.372 0V14.77c.137-.414.274-.69.411-1.104.686.276 1.784.552 2.47 0 1.097-.828 1.234-1.38 1.234-1.38s-1.372-.277-1.646-.829c0-.552-.274-1.104-.274-1.104s1.646-.276 6.859 0c.137 0 .686 0 1.372.138.137.138.274.276.548.414.275 0 .686 0 1.098-.276 1.372.138 3.155.414 4.801.828.412.966 1.235.414 1.235.414l.137-.138c.686.138 1.372.276 1.92.553 3.43.966 3.841 1.932 3.841 1.932s-2.606.966-2.057 3.728c.274 1.794 2.606 1.932 3.43.966.548-.69.274-1.38.274-1.38s.823-.277.686-1.243c0-.276.274-.138.548.138.412.414.549.69 1.51 1.104.136.415.548 1.243.96 1.657-.138 0-.686.138-.823.276 0 0 .685.552 1.371 3.175.412 1.519 3.293 2.761 4.39 2.761.274 0 .549.138.823.138.275.276.549.69.823.967L56.52 40.035c-.412-.138-.686-.415-.686-.69 0-.139 0-.277-.138-.415h.55Zm-.411-1.656c0-.139.137-.276.274-.276h1.097c.138 0 .275.138.275.276s-.137.276-.275.276h-.96c-.274-.138-.411-.138-.411-.276Zm1.646 0c0-.139.137-.276.274-.276h.137c.137 0 .275.138.275.276s-.138.276-.275.276h-.137c-.137-.138-.274-.138-.274-.276Zm12.62-27.058c-.137 0-.137 0 0 0 0-.138 1.51-1.105 2.881-1.795.274.138.412.276.412.552-.686.276-1.784.69-3.293 1.243Zm3.704 0c.137 0 .137 0 0 0 .137 0 .137.138.275.138v.276a65.237 65.237 0 0 0-2.195-.414c0-.138.274-.276.411-.276.549.138.96.138 1.51.276Zm-1.509-2.071c-.548.276-1.783.828-3.704 2.209h-.274c0-.276.823-1.519 3.292-2.9.412 0 .55.139.55.277.273 0 .273.276.136.414Zm-3.566.552c-2.47-.276-4.527-.276-5.9-.276h-1.783c-.137-.138-.137-.414-.137-.552 0-.276.275-.414.549-.552h1.646c1.51 0 3.978 0 6.722.414.137 0 .137.138.137.138 0 .276-.686.69-1.234.828Zm-.686.828c0 .139-.138.139-.138.277-.411 0-.96-.138-1.371-.138 0 0-.138 0-.138-.139V9.25c0-.138.138-.138.138-.138.548.276.96.276 1.509.414 0-.138 0-.138 0 0Zm-2.332-.138s0 .138-.138.277h-.96s-.137-.139 0-.277l.137-.138h.96v.138Zm-3.704-.276h1.646c.137 0 .137.138.137.138 0 .138 0 .138-.137.138h-4.39c0-.138.137-.276.412-.414.685.276 1.371.138 2.332.138Zm13.443-.414.275-.138c2.606.552 4.938 1.38 6.859 2.485.549.828 1.234 1.104 1.646 1.38.137.139.274.139.412.277.137.138.274.276.274.552 0 .138-.275.276-.549.276-2.058-1.38-4.801-2.623-7.956-3.451-.55-.414-.96-1.243-.96-1.38 0 .137-.138 0 0 0Zm-.274-.552c-.137-.276-.137-.414-.274-.552.548-.276 1.92-.69 2.606-.829-.686.69-1.92 1.105-2.332 1.381Zm12.62 9.802c.138-.829.138-1.657.138-2.347v-.138c1.372.552 2.332 2.346 2.195 4.417 0 .414.137.828.274.967a.883.883 0 0 0 .686.276c-.137-.276-.274-.967.137-1.519h.137c.686.414.96.552 1.235 2.07.137.83.96 1.105 1.509 1.105.274 0 .412 0 .549-.138v.138s-1.098 1.38-2.607 1.38c-.411 0-.686-.137-1.097-.275.137 0 .137-.138.274-.138.275-.276.686-.553 1.098-.553h.137c-.275-.69-1.098-.828-1.784-.966-.274 0-.548-.138-.686-.138.275.414.824.414.96.414 0 0-.274.138-.685.138-.412 0-.96-.138-1.646-.552.274.276.549.414.549.414s-.275.138-.55.138c-.274 0-.822-.276-1.234-1.242-.137-.414-.137-.69-.274-.828-.137-.553-.137-.69-.412-.829.137 0 .275-.138.412-.138.274 0 .549.138.823.276a4.095 4.095 0 0 1-.137-1.933Zm7.683 5.66c.549.828.823 1.38.823 1.38s-.96.552-1.784.69c-.274-.966-.96-.966-1.097-.966 0 0 1.509-.276 2.058-1.104Zm-8.368-5.384c0 .138 0 .138 0 0-.137 0 .137-2.761-2.195-3.728-.686-.276-.686-.414-.686-.414l.137-.138c.412 0 1.372.276 2.058 1.104.686.967.96 2.071.686 3.176Zm-4.39-1.38c-.137 0-.137 0 0 0-.137-.139-.137-.277-.274-.415-.275-.276-.412-.414-.412-.966-.412 0-.686.414-.823.828-.137.276 0 .552.137.69.137.138.137.138.275.138.274 0 .411-.276.411-.276s.549.276.686.828c0 .276 0 .553-.137.69-.412.139-.686.277-1.098.277-.411 0-.823-.276-1.097-.552-.275-.277-.549-.967-.275-1.933.275-.828 1.235-1.795 2.607-1.795.96 0 2.195.414 3.567 2.347 0 0-.96-.276-1.784-.966-.274-.276-.686-.553-.96-.553-.274 0-.412.139-.412.139-.137.138-.137.276-.137.414.138.828-.137.966-.274 1.104Zm-.96-3.452c-.275-.138-.549-.276-.686-.414-.137 0-.137-.138-.137-.276s.137-.138.137-.138h.137c.274.138.412.276.686.414.137 0 .137.138.137.276s-.137.138-.274.138Zm-1.235-.966c0 .138-.137.138-.137.138a27.109 27.109 0 0 0-4.39-1.519c-.137-.138 0-.276 0-.414 1.783.414 3.155.966 4.527 1.518v.277Zm1.92 19.05c0 .138-.137.138-.274.138l-3.704 1.381h-.137c-.137 0-.274-.138-.411-.276-.138-.138 0-.414.274-.552l3.704-1.38h.137c.137 0 .274.137.412.275.137.276.137.415 0 .415ZM56.93 40.45l20.303-7.731h.137c.137 0 .274.138.411.276.138.138 0 .414-.274.552L57.48 41.14c-.137-.276-.275-.414-.549-.69Zm37.45-6.35c.412 1.242.275 1.932-.411 2.208-.549-.966-.686-1.933-.412-2.76.275-.967 1.235-1.243 1.235-1.381-.137.138-.686 1.242-.412 1.932Zm-.686 3.037h.275c.549 0 .96.414 1.234 1.38.275.552 1.235.966 1.235.966h-.549c-.548.138-1.783-.138-2.195-2.346Zm.55 7.868c.41 0 .685-.828.685-1.518.274.69 1.509 1.657 2.744 1.933 0 0-.138.138-.412.828-.686-.69-1.509-.966-3.018-1.243Zm.822-3.313c.549-.276 1.098-.552 1.098-.69H95.752c-.823 0-1.372-.276-1.92-.69-.55-.69-.55-1.519-.55-1.795.687.966.961 1.242 3.293 1.795.96.276 1.372 1.104 1.646 1.518.275.552.275 1.105.275 1.243-.549-.69-1.51-.967-2.058-.967H95.889c-.686.138-.823-.414-.823-.414Zm2.744-11.044c-.823.829-.823 2.209-.686 2.623.274.552.274.966.137 1.243-.137.276-.274.276-.274.276-.275-.415-.823-1.105-.96-1.105.411 2.623-.55 2.9-.824 3.037.275-.552.275-.828.138-1.656 0-.414-.138-1.105-.138-1.933 0-.552.138-1.104.686-1.518.412-.69 1.51-1.105 1.92-.967 0-.138-.136-.138 0 0Zm-5.625-14.771c-.137-.138-.548-.69-.411-1.38.137.275.411.275.96.413.275 0 .549.138.96.138.686.138 1.098.553 1.235.829.137.414-.137.69-.137.69s-.137-.276-.412-.552c.96 1.242.549 2.209.549 2.209s0-.553-.412-.829c.138.138.138.415.275.69.137.69.411 1.52 1.097 1.657-.137-.414.138-.828.412-1.242 0-.138.137-.138.137-.276 1.097 1.932-.96 3.865-1.097 3.865v-.138c.137-.138.274-.966 0-1.519a1.032 1.032 0 0 0-.96-.69c-1.51 0-1.784-.414-2.196-1.104.138-.276.55-.414.823-.414.275 0 .412 0 .55.138-.138-.138-.55-.553-1.235-.553h-.275c-1.509 0-2.058-1.656-2.058-1.656s.275.138.55.138c.136 0 .274 0 .41-.138.687-.138 1.098-.138 1.235-.276Zm2.195-9.802c.275 0 .823.138 1.098.69-.412.139-.823.277-1.098.277-.686 0-.96-.277-.96-.277l.412-.552s.274-.138.548-.138Zm-3.566-.138a3.635 3.635 0 0 1 1.646-.414c.549 0 .96.138.96.138s-1.235 2.347-3.567 2.9v-.277c.275-.276.686-.69.96-1.104.138-.276.412-.415.55-.553-.687.277-1.235.69-1.51.967 0-.138 0-.414-.137-.552 0 0 0-.553 1.098-1.105Zm-.55 8.007c.412.414.55.552.687.552s.137.138.137.276c0 0-1.235-.276-1.372-1.932 0-.415-.137-.69-.137-.829 0 .415.274 1.38.686 1.933Zm-6.584-3.451c.137 0 .275 0 1.92-.276h.275c.823 0 1.235.414 1.51.69 0-.276-.138-.828-.138-1.38 0-.967.274-1.381.686-1.795.137-.138.274-.276.274-.552 1.646 1.518 1.098 4.141 1.098 4.141 0-.414-.412-1.38-.55-1.656-.136.276-.273.828-.273 1.518 0 .828.686 1.795.686 1.795l-.96-1.105c.136.415.548 1.105.685 1.519.686 1.242 2.195 1.794 2.332 1.933h-.549c-.96 0-1.783-.415-1.783-.415l.137-.414c-.137.138-.274.138-.548.138h-.549c-.275 0-.412.138-.412.138v-.138c0-.414.549-1.104.686-1.104 0 0-.411-1.104-2.195-1.519-2.332-.276-2.332-1.518-2.332-1.518Zm-.96-1.243c.274.138.274.415.137.553-.137.138-.274.276-.411.276l-.138-.138C80.8 9.11 79.016 8.42 77.096 7.869c-.138-.414.274-.69.548-.828 1.92.828 3.567 1.518 5.076 2.208ZM74.215 6.35c1.372-.414 2.469-.552 2.88-.552.275 0 .686 0 .686.138 0 0 0 .138-.137.138-1.234.138-2.469.552-3.155.829 0-.139-.137-.277-.274-.553 0 .138 0 .138 0 0Zm-4.253-1.932c.137-.138.275-.138.412-.138.274 0 1.372.138 2.88 2.208 1.647 2.071 2.058 3.176 2.195 4.418v.69h-.137c-.137 0-.137 0-.137-.138-2.195-5.522-5.213-6.764-5.213-6.764-.137-.138-.137-.276 0-.276ZM61.045 5.66c.275 0 .412-.138.55-.138h2.057c1.646 0 4.115.138 6.996.414.412.138.823.552.686.967-3.155-.415-5.899-.553-7.82-.553h-2.606c-.137-.138-.137-.138-.137-.276 0 0 .137-.276.274-.414ZM47.19 17.394s-.549-.414-.686-.828c-.274 1.242-.96 1.519-1.509 1.519h-.411c-1.235 0-1.51-.69-1.51-.69s1.235-.139 1.51-1.381c.137-.829.823-1.105.823-1.105v.69c.549-.275.823-1.242.686-2.208-.138-1.104 0-2.209 0-2.209.137 0 .411 0 .411.138v-.138c0-.138-.274-.828-1.783-1.795-.96-.552-1.92-.966-2.606-.966-.686 0-1.098.276-1.098.414-.274.276-.274.552-.274.69l.137.139v-.139c0-.138.137-.414.411-.69.138.138.138.414.138.69 0 .139-.138.277-.275.415-.137.138-.274.138-.549.138-.548 0-1.097-.276-1.371-.829-.275-.414-.412-1.104.137-2.346 0 0 .549-.967 2.332-1.381h1.372c1.92 0 5.35.414 6.722 2.623-.275-.966-1.372-1.795-2.332-2.347l.685.138c1.098.276 1.784.276 2.744.276.549 0 1.235 0 1.92-.138.275 0 .687-.138.96-.138 0 0 .275 0 .687-.138.686-.138 1.372-.138 1.92-.138.686 0 1.235 0 1.784.138-.412-.138-.96-.414-1.784-.414h-.274a4.18 4.18 0 0 0 1.783-1.657c.412-1.104.96-1.656 1.372-1.932.274-.276.549-.414.686-.69.137.276.137.552.274.69.275.69.686 1.38-.137 2.07-.549.415-.96.553-1.372.69-.274.139-.548.139-.548.415-.138.276 0 .276.411.552.274.138.686.414 1.098.966-.138 0-.275.138-.412.276-.274.277-.686.69-1.509.69h-.411c-.275 0-.686-.137-.96-.275-.412-.138-.687-.276-.961-.276-.137 0-.274 0-.411.138-.138.138-.275.414-.138.552.138.276.549.552 1.235.552H56.519c1.097 0 1.508.276 1.783.69-.137 0 0 .138.137.138-.137 0-.274.138-.274.276-.138.276-.412.415-.823.415h-.275c-.137 0-.274.138-.411.276v.276c0 .138.137.138.274.138h.274c.275 0 .55-.138.686-.138.549 0 .823.276 1.372.966.823 1.104.96 1.242 1.372 1.242h-.137c-.275.139-.823.277-1.372.277-.823 0-1.51-.415-2.058-1.105 0 0-.548-1.104-1.097-1.104-.137 0-.275.138-.412.276-.137.138 0 .276.275.552.274.276.548.552.548.966 0 .69-.274.967-.274.967s-.96-.138-1.646-1.105c-.275-.276-.275-.69-.412-1.242 0-.276-.137-.552-.274-.966-.549-1.657-1.098-1.795-1.235-1.795s-.274.138-.411.276a.885.885 0 0 0 0 .828c.274 1.105-.137 1.519-.412 1.933-.137.138-.274.276-.274.414-.137-.138-.275-.138-.412-.276-.274-.138-.548-.276-.823-.69-.274-.414-.411-.828-.411-1.105 0-.276 0-.414-.138-.552 0 .414 0 .69-.274.967-.823-.276-1.097-.69-1.372-1.243-.137-.414-.411-.828-.823-1.242-.686-.69-1.097-.829-1.372-.829-.411 0-.685.138-.823.553-.137.414-.137.828 0 1.104.412.552.823.69 1.372.828.686.138 1.372.414 2.195 1.243.686.828.274 1.794 0 2.347h-.137c-.549-.138-.686-.69-.823-.967 0-.138-.137-.276-.137-.276-.138.138-.138.552-.138 1.105-.137 1.242-.274 3.037-1.509 4.141.823-.552 1.098-1.242 1.647-2.76.274-.967.274-1.381.274-1.381s.549.69.686 1.38c.137.552 0 .828 0 .828-.137 0-.412 0-.549-.414 0 .276.137.552.137.69.137.277.275.553.137 1.105-.685 1.104-.96 1.242-.96 1.242Zm8.917 3.037c-.137 0-.274-.138-.274-.276V15.185h.137c.137 0 .137 0 .274.139 0 .138.137.138.137.276v4.693c0 .138-.137.138-.274.138Zm.274.553v3.589c0 .552-.274.69-.274.69s-.137 0-.137-.138v-4.141c0-.138.137-.277.274-.277 0 0 .137.139.137.277Zm-.686-5.66v10.353c-.137-.138-.823-.414-.96-.828V14.771c.137-.138.137-.138.275-.138.137 0 .411.138.548.276.137.138.137.276.137.415Zm-2.469 5.66c-.137 0-.274-.138-.274-.277v-.276c0-.138.137-.276.274-.276s.275.138.275.276v.276c0 .139-.138.277-.275.277Zm.275.552v1.794c-.138-.137-.275-.276-.412-.276v-1.518c0-.138.137-.276.274-.276 0 0 .138.138.138.276Zm-.275-1.657c-.137 0-.274-.138-.274-.276V13.53c0-.138.137-.138.137-.138.137 0 .274.138.274.276v5.936c.138.138 0 .276-.137.276Zm-.549-5.936v8.697c-.137-.138-.274-.138-.411-.276l-.549.552v-8.973c0-.276.275-.552.549-.552.137 0 .411.276.411.552Zm-2.332 8.145c-.137 0-.274-.138-.274-.276v-6.488c.137-.139.274-.277.412-.277h.137v6.765l-.275.276Zm.138.69v2.071c-.138.138-.275.138-.412.276v-2.347c0-.138.137-.276.274-.276 0 0 .138.138.138.276Zm-.824-6.626v9.525c-.137.138-.137.276-.137.276 0-.414-.274-.552-.686-.69v-7.317c.412-.552.55-.966.686-1.656-.137-.138 0-.138.137-.138ZM47.602 32.58c-.686-.414-1.235-.828-1.51-2.485-.685-4.28-1.783-4.694-2.331-4.694h-.275s.412-.414 1.235-.414c.274 0 .686.138 1.097.276.686.276.823.967.823 1.519 0 .414.138.828.275.966.137-.138.274-.138.549-.138h.274c.274 0 .411 0 .549-.414l.411.414c.275.276.686.552.275 1.657-.275.552-.138 1.104.274 1.518.137.138.411.276.549.276.274 0 .686-.276.823-.552.274-.414.274-.966 0-1.518-.96-1.519-.96-1.795-.96-1.795s.274-.138.548-.138c.137 0 .275 0 .549.138a.885.885 0 0 1 0-.828c.137-.415.411-.69.823-.69v-1.105c.137-.138.274-.276.412-.552.137-.276.274-.276.274-.414 0 0 .137.138.274.414.137.138.275.414.412.552v1.104c.274 0 .549.415.823.69a.885.885 0 0 1 0 .829c.137 0 .274-.138.549-.138.274 0 .548.138.548.138s0 .276-.96 1.795c-.274.414-.274.966 0 1.518.137.414.549.552.823.552.275 0 .412-.138.549-.276.411-.414.411-.966.274-1.518-.411-1.105-.137-1.38.275-1.657l.411-.414c.137.414.275.414.549.414h.274c.137 0 .412 0 .549.138.274-.138.274-.552.274-.966 0-.552.137-1.243.823-1.519.412-.138.686-.276 1.098-.276.823 0 1.234.414 1.234.414h-.274c-.549 0-1.646.414-2.332 4.694-.274 1.657-.823 1.933-1.509 2.485-.274.138-.411.276-.686.552-.549.552-.411.828-.411.828h-.138s-.411-.414-.685-.552l-.412-.138c-1.235-.552-1.92-.828-2.058-2.485 0-1.794-.137-2.347-.274-2.623-.137.276-.274.69-.274 2.623 0 1.657-.824 2.071-2.058 2.485l-.412.138c-.411.138-.686.552-.686.552H48.7s.275-.276-.411-.828c-.275-.138-.55-.276-.686-.552Zm6.173 2.347c0 .138 0 .138 0 0l-4.664.138c.137-.414.686-.69 1.097-.69h2.058c.96.138 1.372.414 1.509.552Zm-6.585 2.485h-.96c-.137 0-.274-.138-.274-.276 0-.139.137-.277.274-.277h.96c.137 0 .275.139.275.276-.138.277-.138.277-.275.277Zm-1.234-.829c0-.828 1.92-1.242 2.469-1.242h7.27c.55 0 2.607.552 2.607 1.242H45.956Zm8.642 3.728c-.137.138-.412.138-.549.138h-4.252c-.823 0-1.372-1.105-1.372-1.795h1.509c1.646 0 3.567.276 4.664 1.657 0-.138 0-.138 0 0Zm-6.722-3.037c0-.139.137-.276.274-.276h5.076c.137 0 .275.138.275.276s-.138.276-.275.276H48.15c-.137-.138-.274-.138-.274-.276ZM15.64 51.493c1.234-.414 2.469-.69 3.566-.69.686 0 1.235.138 1.51.138-.412-.139-.961-.415-1.51-.553.549-.138.96-.276 1.51-.276.96 0 1.783.276 2.743.552.96.277 1.92.553 3.155.69-.549.277-1.372.415-2.332.415-.823 0-1.372-.138-1.509-.138v.138c.137.276.96.414 1.235.414l-1.372.552c-.137.138-.412.138-.549.138-.549 0-1.234-.276-2.058-.552-1.097-.414-2.194-.828-3.566-.828h-.823Zm-3.841 1.38s3.018-.828 5.212-.828h.55c.822 0 1.37.276 2.057.552.549.138.96.414 1.509.414-.274.138-.823.138-1.235.138-.411 0-.96 0-1.372-.138-1.92-.69-2.88-.414-2.88-.414h.274s.686.138 2.332.552c.412.138.96.276 1.509.276.686 0 1.235-.138 1.235-.138l-.823.415s-.96.276-1.921.276c-.274 0-.549 0-.823-.138-2.47-.829-4.527-.967-5.35-.967-.137.138-.274.138-.274 0 0 .138 0 .138 0 0ZM5.35 55.358s1.372-.414 3.155-.414c.823 0 1.646.138 2.47.276.96.276 2.057.276 2.88.276h.686l-1.646-.414c-.274-.138-.549-.138-.823-.138-1.097-.276-1.92-.414-2.88-.414-1.098 0-1.784.138-1.784.138s1.234-.414 2.88-.828c.824-.138 1.51-.277 2.333-.277.823 0 1.509.139 2.332.277.274.138.548.138.823.276a5.474 5.474 0 0 0 2.058.414c.274 0 .548 0 .823-.138l-2.881 1.104c-.137 0-.275.138-.412.138-.686.276-1.92.69-3.155.69-.412 0-.96 0-1.372-.137-2.195-.69-5.487-.69-5.487-.829-.137.138-.137.138 0 0-.137 0-.137 0 0 0Zm2.332 1.657c-.274-.138-.549-.138-.823-.276l1.097.552s-1.234-.138-2.469-.138H3.703c-1.234 0-1.782-.552-1.782-.552.685-.414 1.783-.553 2.469-.553-.412-.138-.686-.138-.686-.138h.686c.823 0 2.332.138 4.252.69.686.139 1.372.277 1.647.277h.274s-.686.414-1.646.414c-.275-.138-.823-.138-1.235-.276Zm1.51 4.417c.273-.966.685-1.794 2.331-2.346-.274.138-1.234.69-2.058 2.623-.411 1.38-1.646 2.484-1.783 2.484 0 0 1.372-1.794 1.51-2.76Zm1.508 2.21c-.137.275-.686.551-1.509 1.104.412-.553 1.098-1.519 1.235-1.933l-.412.414c-.411.552-.96 1.104-1.372 1.519-.548.414-1.509.828-1.509.966 0 0 1.92-1.519 3.018-3.727.686-1.38 1.372-2.21 2.195-2.9.549-.414 1.372-.69 1.51-.69 0 0-.687.69-.961 1.105-.274.552-.686 1.518-1.098 2.346-.548.829-.96 1.657-1.097 1.795Zm1.098.275c0-.138 0-.138 0 0 .274-.552.685-1.38.96-2.209.686-1.656 1.372-3.727 3.018-4.28-.823.691-1.51 1.934-2.058 3.314-.549 1.243-1.097 2.485-1.92 3.175Zm1.097-.69s-.137.138-.274.138c-.275 0-.138.138-.412.276 1.372-1.242 2.195-3.451 2.607-4.417 0-.138.137-.276.137-.276.274-.415.823-1.52 1.783-1.795-.549.552-.96 1.104-1.235 1.656-1.097 2.9-1.371 3.452-2.606 4.418Zm2.606-.828c-.137 0-.137 0 0 0 .824-1.38 2.058-3.59 2.195-4.004-.411.276-.823.967-1.372 1.795-.823 1.242-1.783 2.623-2.743 3.037h-.137c.96-.966 1.371-1.518 2.469-4.28.412-.828 1.097-1.518 1.509-1.932 1.235-.552 3.43-1.243 3.43-1.243s-1.51 1.105-2.333 3.59c-.411 1.518-3.018 3.037-3.018 3.037Zm5.625-3.866c-.686.69-1.51 1.657-2.332 2.21.411-.415.823-1.105 1.234-1.934.686-1.104 1.372-2.346 2.058-3.313.823-.966 2.47-1.38 2.607-1.38 0 0-.55.414-.824.966-.548.966-1.783 2.347-2.194 2.761-.138.276-.275.552-.55.69Zm6.447-5.384s-.411.414-.823 1.105c-.274.414-.686.966-.96 1.38-.274.414-.412.69-.549.69-.686.69-3.155 2.762-3.155 2.762s1.235-1.795 1.646-2.485l.412-.829c.549-.966.96-1.794 1.646-1.932.137 0 .137 0 .274-.138l-.137.138c-.411.552-.686.966-.96 1.38-.274.414-.549.967-.96 1.38l-.412.415s.137-.138.686-.552c.412-.415.823-1.105 1.097-1.657.275-.552.686-.966 1.235-1.519.686-.138.823-.276.96-.138-.137-.138-.137-.138 0 0Zm-16.461 5.384c-.137 0-.137 0 0 0-.275 0-.412-.138-.55-.276-.136-.138 0-.414.275-.552L45.27 44.866c0 .276 0 .415-.138.69l-34.02 12.977Zm36.215-11.458c-.137 0-.411 0-.548-.138-.275.138-.275.552-.275.967 0 .552-.137 1.242-.823 1.518-.411.138-.686.276-1.097.276-.823 0-1.235-.414-1.235-.414h.275c.548 0 1.646-.414 2.331-4.694.275-1.656.824-1.933 1.51-2.485.274-.138.411-.276.685-.552.55-.552.412-.828.412-.828h.137s.412.414.686.552l.412.138c1.234.552 1.92.828 2.057 2.485 0 1.795.138 2.347.275 2.623.137-.276.274-.69.274-2.623 0-1.657.823-2.07 2.058-2.485l.411-.138c.412-.138.686-.552.686-.552h.137s-.274.276.412.828c.274.276.412.414.686.552.686.415 1.234.829 1.509 2.485.686 4.28 1.783 4.694 2.332 4.694h.274s-.411.414-1.234.414c-.275 0-.686-.138-1.098-.276-.686-.276-.823-.966-.823-1.518 0-.415-.137-.829-.274-.967-.137.138-.275.138-.549.138h-.274c-.275 0-.412 0-.55.414l-.41-.414c-.275-.276-.686-.552-.275-1.656.274-.553.137-1.105-.274-1.519-.137-.138-.412-.276-.55-.276-.273 0-.685.276-.822.552-.274.414-.274.966 0 1.519.96 1.518.96 1.794.96 1.794s-.274.138-.549.138c-.137 0-.274 0-.548-.138a.885.885 0 0 1 0 .829c-.137.414-.412.69-.823.69v1.104a1.904 1.904 0 0 0-.412.552c-.137.139-.274.277-.274.415 0 0-.137-.138-.275-.415-.137-.138-.274-.414-.411-.552v-1.104c-.275 0-.549-.414-.823-.69a.885.885 0 0 1 0-.829c-.137 0-.275.138-.549.138s-.549-.138-.549-.138 0-.276.96-1.794c.275-.414.275-.967 0-1.519-.137-.414-.548-.552-.823-.552-.274 0-.411.138-.548.276-.412.414-.412.966-.275 1.519.412 1.104.138 1.38-.274 1.656l-.412.414c-.137-.414-.274-.414-.548-.414h-.275Zm8.78 7.731c-.137 0-.274-.138-.274-.276v-5.246c0-.276.137-.414.274-.414s.137 0 .137.138v5.384c.137.276 0 .414-.137.414Zm.274.69v7.317c0 .138-.137.138-.137.138-.137 0-.274-.138-.274-.276v-7.179c0-.138.137-.276.274-.276 0 .138.137.276.137.276Zm-.686 7.317c0 .276-.274.414-.411.414-.274 0-.549-.138-.549-.552V50.388c0-.828.549-.828.686-.828s.274.138.412.138l-.138 13.115Zm-2.469-4.28c-.137 0-.274-.138-.274-.276v-.138c0-.138.137-.276.274-.276s.275.138.275.276v.138c0 .138-.138.276-.275.276Zm.275.553v1.242c0 .138-.138.276-.275.276s-.274-.138-.274-.276v-1.242c0-.139.137-.277.274-.277s.275.139.275.277Zm-.275-1.381c-.137 0-.274-.138-.274-.276v-4.97c0-.276.274-.414.274-.414h.137v5.246c.138.276 0 .414-.137.414Zm-.549 4.694v.276c-.137.138-.274.138-.411.138-.274 0-.549-.138-.686-.552v-9.802h.137c.137 0 .412.138.686.414.137.138.274.414.274.553v8.973Zm-2.332-2.9c-.137 0-.274-.137-.274-.275v-5.66c0-.139.137-.277.274-.277.138 0 .275.139.275.276v5.66c-.137.277-.275.277-.275.277Zm.138.69v2.762l-.138.138c0-.414-.137-.69-.274-.966v-1.795c0-.138.137-.276.274-.276 0 0 .138 0 .138.138Zm-.138-7.178c-.137 0-.274-.138-.274-.276v-2.76c.137 0 .137-.139.137-.139.137 0 .275.138.275.138v2.761c0 .138-.138.276-.138.276Zm-.686-3.589v11.872c0 .138-.137.276-.274.276-.274 0-.686-.276-.686-.828V49.56c0-.138 0-.138.137-.276.275-.138.55 0 .823.138 0-.138 0-.138 0 0Zm16.736 24.159c-.137 0-.137 0 0 0-.137-.414-.274-1.105-.548-1.105-.137 0-.137 0-.275.139 0 .138 0 .276.138.552.137.414.411.828.274 1.242-.137.69-.412 1.104-.549 1.104l-.411-.414c.137.414.137 1.243-.55 1.933a2.307 2.307 0 0 1-1.37.414 3.33 3.33 0 0 1-.961-.138c.274 0 1.783-.138 2.332-2.485.549-2.07-.549-4.003-1.235-4.417l-.137-.138h.137c.412 0 1.784.414 2.47.966-.412-.552-1.51-1.519-3.156-1.519-2.195-.138-3.018-.414-3.704-.69-.274-.552-.548-.69-.823-.69-.685-.138-1.371-.276-2.057-.276-1.646 0-2.744.552-3.293.828-.274.138-.411.138-.411.138l.96-.966.823-.828c-2.47 1.656-4.39 2.623-5.761 2.623-.55 0-.823.552-.823.552s.274-.69.274-1.243c-.137.552-.412.829-.823 1.243-1.098.966-2.881 1.656-4.253 1.794h-.548c-1.098 0-4.802-.276-5.213-3.865-.138-.966.137-1.38.411-1.657.274-.276.549-.414.96-.414.55 0 .96.276 1.098.828.137.276 0 .69-.137.967a.754.754 0 0 1-.686.414c-.137 0-.275 0-.412-.138-.137-.138-.274-.414-.137-.552 0-.276.274-.552.412-.552h.274-.274c-.275 0-.412.138-.412.414-.137.414 0 1.104.137 1.656.549.967 1.235 1.519 2.607 1.657h.548c-.274 0-.411-.276-.548-.414l-.138-.138c.55 0 2.058-.276 3.293-1.38.96-.83 1.097-2.21 1.097-2.9-.137.69-.686 2.209-1.371 2.209h-.138c-.274-.138 0-.552.275-1.104.274-.553.823-1.52.823-2.347v-.138c.137-1.243.274-2.21-.412-3.452-.686-1.38-1.783-1.518-2.332-1.518-.823 0-1.372.276-1.509.552 0 0 .274-1.657 1.646-1.933.275 0 .549-.138.686-.138.823 0 1.646.414 2.195.967.686.828.96 2.208.686 3.589-.137 1.104 0 1.518.137 1.794.137.139.275.139.412.139h.137c.137 0 .274 0 .274-.138.137-.139 0-.553-.137-1.105v-.138c-.411-1.519.274-2.07.274-2.07.138 0 1.784 1.104 1.784 1.932 0 .552-.275.966-.412 1.104.137 0 .275-.138.412-.138.274 0 .686.138.96.276.412.277.686.69.686.829 0 0-.686.552-1.646.552-.137 0-.412 0-.549-.138h-.274c-.275 0-.412.138-.412.276s0 .138.137.138c.138 0 .275.138.412.138H48.15c.686 0 1.235.276 1.372.828.137.415.137.829-.274 1.105-.137.138-.274.138-.549.138h-.274c-.137-.138-.275-.276-.275-.414 0-.138 0-.138.275-.276.137 0 .137 0 .274.138v-.415a1.045 1.045 0 0 0-.686-.276c-.411 0-.823.139-1.234.276-.824.415-1.51 1.243-1.51 1.795 0 .138 0 .276.138.276.137 0 .274.138.274.138.275 0 .412-.276.686-.552.274-.276.549-.828 1.372-1.242v.552a.487.487 0 0 0 .411.276h.275c.411 0 1.097-.138 1.097-1.243 0-.828.275-1.38 1.235-2.484.411-.553 1.235-.69 1.783-.69.412 0 .823.137.823.137s-.137.967-.411 1.243c-.412.276-.412.552-.412.69l.137.138c.138 0 .275-.138.55-.276l.274-.276c.411-.552.96-1.104 1.646-1.104.274 0 .548 0 .823.276.96.414 1.097.414 1.097.414l-.686.69-.274.276c-.274.276-.274.414-.823.552h.274c.549 0 .823-.276 1.235-.552.137-.138.274-.138.411-.276.275-.138.55-.276.96-.276.686 0 1.235.414 1.647.828.274.138.411.414.686.414-.412.276-.96.276-1.235.276H58.576c-.137 0-.274 0-.274.139v.276h1.372c1.097 0 2.194.138 3.84.828 2.47.966 3.43 2.761 3.43 3.59.275.966-.549 1.38-.549 1.38Zm7.683-4.418c-2.058.552-3.293.552-3.293.552-.137 0-.137-.138-.137-.138 0-.138.137-.138.137-.138s1.235 0 3.293-.552v.276Zm-7.134-.138c-.686-.138-1.097-.276-1.234-.69 0-.138 0-.276.137-.414 2.057 0 5.213-.276 8.78-1.38l-.412 1.242c-3.018.828-5.625 1.104-7.27 1.242Zm7.957 1.795c-.412 0-.686-.414-.55-1.243.138-2.208 2.059-7.316 5.625-7.316h.138c0 .138-3.979 1.932-5.213 8.559Zm.548-.552c.686-1.519 1.372-3.452 1.372-3.452l.549.138v.138c-.686 1.519-1.372 2.623-1.92 3.176Zm2.744-2.485c-.137 0-.274.138-.549.138-.137 0-.274.138-.411.138l.137-.276h.823c.137 0 .137 0 0 0Zm4.664-.967c-.274.276-.823.276-1.509.276-.96 0-2.332-.276-3.567-.414l-.685-.138c-.138 0-.138-.138-.275-.138-.137-.276.275-.69.412-.828.137.138 4.252 1.104 5.624 1.242Zm3.018-3.727c-.549.414-1.097.966-1.509 1.242-.137 0-.137.138-.274.138h-.137v-.138s0-.138.274-.276c.549-.414 1.097-.828 1.509-1.242h.274s0 .138-.137.276Zm-5.213 2.347h-.549c-.411 0-.685-.138-.823-.414.138-.138.138-.276.275-.415 2.606-1.242 4.664-2.898 6.447-4.831.138-.138.275-.138.412-.138.137 0 .274 0 .411.138.275.276.275.552 0 .828-1.783 1.933-3.84 3.451-6.173 4.832Zm6.448-3.59-.549.553-.137.138c-.137 0-.137 0-.137-.138v-.276l.548-.553h.275v.276Zm-.549-3.589h-.137c-2.607-.138-2.88-2.76-2.88-2.76s.685 1.38 2.331 1.38c.412 0 .96-.138 1.51-.276 2.057-.829 1.645-4.418 1.645-4.418.275.69.549 1.519.686 1.519 0-.415-.137-.69-.137-.967-.137-.828-.411-1.656 0-3.037.549-1.794 1.92-3.175 3.567-3.175.823 0 1.509.276 2.057.828 1.235 1.243.412 2.761.412 2.9 0-.277-.137-.415-.274-.553 0 .138 0 .552-.275.828-.274.276-.549.415-1.097.415-.823 0-1.098-1.243-1.098-1.243s.275.138.55.138c.273 0 .548-.138.685-.552.137-.276 0-.552-.137-.828-.275-.415-.686-.553-1.235-.553-.274 0-.686.139-.96.277-1.372.69-1.51 2.07-1.372 2.623.274-.967.412-.967.412-.967l.137.138c0 .138.137.414.274.69.275.415.412.967.686 1.519.274 1.104-.549 2.209-.549 2.347l-.274-.552v.414c0 .552-.274 1.104-.549 1.518-.137.277-.274.415-.411.69-.275-.276-.549-.552-.686-.828.137.276-.412 2.485-2.881 2.485Zm5.076 7.317c0 .138 0 .138 0 0-.138 0-.138 0 0 0 0-.414-.275-.828-.686-1.243-.412-.552-.823-1.242-.686-2.07.137-.69.686-1.243 1.509-1.795 0 0-1.235 1.519-.275 2.347 1.098 1.242.55 2.209.138 2.76Zm3.018.138c.274-.138.548-.138.823-.138.274 0 .686 0 1.234-.276-.137.552-.686.828-1.371.828a.754.754 0 0 1-.686-.414c0 .138-.138 0 0 0Zm-.823-.414c.137.414.411.966.96.966h-.549c-.823 0-1.783-.414-1.783-1.38.137-.276.274-.415.137-.69h.137c.686.137.96.69 1.098 1.104ZM92.46 59.5c-.686.828-1.646 1.104-2.332 1.38-.549.138-1.098.276-1.235.69-.137-.69.137-1.794.686-2.484.412-.415.823-.69 1.372-.69h.549c1.234 0 1.234 0 1.508-.277-.137 0 .138.414-.548 1.38Zm3.567-5.108v.552c0 1.242-.96 2.9-2.744 2.9h-.275c-.823-.139-1.371-.553-1.646-1.243-.137-.553 0-1.243.412-1.657.274-.276.549-.414.823-.414.274 0 .686.138.823.552.274.414.274.828.137 1.105a.754.754 0 0 1-.686.414c-.274 0-.548-.138-.548-.414 0-.277 0-.415.137-.553 0-.138-.137-.138-.275-.138-.137 0-.137 0-.274.138s-.137.414-.137.69c.137.415.549.829.96.829h.412c.96-.276 1.783-2.07 1.646-2.761 0-.138-.137-.276-.137-.276h-.138c-.274.138-.411.138-.548.138-.96 0-1.098-1.105-1.098-1.105h.138c.137 0 .548-.138 1.646-1.242.823-.828 1.509-1.104 1.92-1.104.412 0 .686.138.686.276 0 0-1.234.828-1.234 2.484v.829Zm1.646-.967c-.55.69-.412 1.243-.412 1.519v.138c-.274-.276-.96-1.38-.686-2.485.137-.552.412-.966.96-1.242.138 0 .55.414.55.966s-.138.828-.412 1.105Zm.686-2.622c-.138-.415-.138-.553-.275-.829-1.372-3.451-3.704-4.003-4.664-4.141h-1.097c0-.138 0-.138.137-.276.274-.276 1.372-.415 1.509-.415.686 0 3.84.69 4.664 4.142 0 0 .137 1.242-.274 1.519Zm.823-6.213c-1.372 0-2.607-.552-3.704-1.518 0 0 1.783.966 3.84.966a6.347 6.347 0 0 0 2.882-.69c-.138.552-1.372 1.242-3.018 1.242Zm4.252-8.007c-.274.415-.274.69-.274 1.105 0 .414.137 1.104 0 2.485-.137 1.794-2.332 3.037-3.018 3.037h-.137c1.097-1.105 1.097-2.623 1.097-3.175-.137-.69-.137-1.105.137-1.519.138-.276.412-.276.412-.276.274.552.549 1.242.686 1.242-.275-1.518 0-2.208.274-2.623.275-.276.549-.414.823-.276 0-.138-.137-.138 0 0Zm.275 4.142c-.138 0-.138 0 0 0 0-.138.411-1.243.274-1.795-.274-.966-.137-1.656.412-1.794 1.234 2.484-.686 3.589-.686 3.589Zm-.823-8.421s.96.138 1.509 1.104c.411.69.411 1.657.137 2.761-.686-.138-.961-.828-.823-2.07 0-.829-.823-1.795-.823-1.795Zm-.275 1.38c.275.553.275 1.105.137 1.657-.274.69-.686 1.104-1.371 1.104-.412 0-.824-.276-1.098-.552-.137-.276-.137-.552-.137-.828.137-.276.274-.414.549-.552h.411c.275 0 .412.138.549.276.137.138.137.276.137.552s-.274.414-.411.414c-.138 0-.275-.138-.412-.276-.137 0-.137.138-.137.138 0 .138.274.414.549.414.274 0 .411-.138.548-.276.137-.138.275-.414.275-.828 0-.967-1.372-1.795-1.921-1.795h-.137v.138c0 .414 0 .69-.274.966-.275.277-.823.415-.96.415 0-.138 0-.415-.687-1.519-.96-1.518-.137-2.209-.137-2.209s.412 1.105 1.646 1.38c.412.139.412.139.549.139.137 0 .137 0 .412.138.96 0 1.646.414 1.92 1.104Zm-2.058-3.727c.686.276 1.372.414 1.509 1.518h-.548c-1.098 0-1.784-.552-2.332-1.242-.55-.552-1.098-.966-1.92-1.104-.824 1.38-2.059 1.518-2.196 1.518 1.235-1.242.412-2.347.275-2.347l1.92-.69s.549 1.242 2.195 2.07c.549.139.823.139 1.097.277Zm17.834-11.872-10.426 3.865h-.137l-7.408 2.761h-.137c-.137 0-.274-.138-.274-.276-.137-.138 0-.414.137-.414l17.833-6.765h.138c.137 0 .274.138.411.276.137.276.137.415-.137.553Zm17.01-6.489-15.775 5.936h-.138c-.137 0-.274-.138-.411-.276v-.276c0-.138.137-.138.137-.138l4.664-1.794c.275-.139.549-.277.823-.277-.411-.138-1.646-.552-2.743-1.242-1.235-.69-1.921-1.242-1.921-1.242s-.137-.139-.137-.277.137-.138.274-.138.412 0 .686.138c.275 0 .549.138.823.138.823.139 1.784.415 3.43.415 2.058 0 4.938-.415 8.642-1.105.686.138 1.372.138 1.646.138ZM13.306 94.84c-.685-.69-1.646-1.104-2.606-1.518-.96-.276-2.058-.552-3.155-.552H6.173c-.411 0-.823 0-1.372.138H1.372c-.412 0-.823 0-1.235-.138L0 92.908v.276l.137.138c.96.552 1.372 1.242 1.372 1.933 0 .966.137 2.07.137 3.037v8.145c0 .276-.137.69-.411.966-.275.414-.55.69-.96.828l-.138.138v.139l.137.138c.275 0 .55 0 1.098-.138h1.097c.412 0 1.235 0 2.058.138.96.138 1.646.138 2.058.138 1.371 0 2.606-.276 3.704-.691 1.097-.414 2.057-1.104 2.88-1.794.823-.829 1.372-1.657 1.784-2.761.411-1.105.686-2.209.686-3.452a6.45 6.45 0 0 0-.686-2.899c-.412-.966-.96-1.794-1.646-2.346Zm.138 5.937c0 .828-.138 1.794-.412 2.623-.274.828-.686 1.518-1.235 2.208-.548.553-1.234 1.105-1.92 1.381-.686.276-1.509.552-2.195.552-1.097 0-1.92 0-2.47-.138-.548-.138-.96-.276-1.37-.414v-.276c-.138-1.933-.138-3.727-.138-5.522V94.703c.137-.139.549-.139 1.372-.277.686 0 1.509-.138 2.606-.138.823 0 1.646.138 2.332.415.686.276 1.372.69 1.784 1.242.548.552.96 1.38 1.234 2.209.274.69.412 1.656.412 2.623ZM36.216 106.437l-4.39-11.182-.823-2.21-.137-.137H29.22c-.412 0-.824 0-1.098-.138l-.137.276v.276c.411.276.686.552.96.966.274.276.412.69.412.967v.276l-4.527 10.906c-.412.966-1.098 1.656-1.92 1.932h-.138l.137.277c.549-.138 1.098-.138 1.646-.138.412 0 .96 0 1.51.138l.136-.138v-.277c-.137-.138-.274-.414-.274-.552 0-.138.137-.414.137-.828l1.646-4.28c.824-.138 1.647-.138 2.47-.138.549 0 1.372 0 2.332.138l1.372 3.866c0 .138 0 .138.137.276v.276c0 .138 0 .276-.275.552-.137.276-.274.414-.274.552v.138l.137.138c.686-.138 1.372-.138 2.195-.138.686 0 1.372 0 2.058.138l.137-.138v.138l-.137-.138c-.686-.276-1.235-.966-1.646-1.794Zm-4.253-4.97H28.26l1.92-4.832 1.784 4.832ZM60.36 92.908h-1.51c-.411 0-.96 0-1.646-.138h-.274l-.137.138v.138l.137.138c.274 0 .412.138.549.276.137.138.137.276.137.552 0 .138 0 .414-.137.552 0 .277-.137.415-.137.553-.138.276-.412.966-.686 1.932l-.137.276c-.412.967-.686 1.795-.824 2.21-.137.551-.411 1.104-.685 1.656a207.888 207.888 0 0 0-1.51 3.865c-.274-.552-.411-.966-.685-1.656-.55-1.381-.96-2.209-1.235-2.761-.137-.414-.412-.829-.549-1.38-.411-1.105-.686-1.933-.96-2.486-.274-.69-.549-1.242-.686-1.794-.137-.415-.137-.69-.137-1.105 0-.414.137-.69.411-.828v-.276l-.137-.138c-.823 0-1.509.138-1.92.138-.275 0-.686 0-1.372-.138h-.686l-.137.138v.138l.137.138c.412.276.823.552.96.69.137.276.412.69.549 1.105v.138c0 .138.137.276.137.276.549 1.104.96 2.209 1.372 3.175.274.828.686 1.518.96 2.347.137.414.549 1.242 1.098 2.623.548 1.242.96 2.208 1.234 2.899.275.69.549 1.38.823 1.794 0 .138.138.415.412.415.137 0 .274 0 .412-.277.411-1.242.823-2.07 1.097-2.761.274-.69.686-1.518 1.097-2.623.412-.828.686-1.656.96-2.208.138-.276.275-.829.687-1.657.274-.828.548-1.519.96-2.209.274-.552.411-1.104.823-1.794.274-.553.549-.967.823-1.243.274-.414.686-.552.96-.828l.137-.138v-.138l-.137-.138c-.274.414-.411.414-.549.414ZM76.684 106.575c-.137-2.209-.137-4.004-.137-5.522v-3.866c0-.69 0-1.242.137-1.794 0-.414.137-.967.274-1.243.138-.414.412-.552.686-.828l.137-.138v-.138l-.137-.138h-2.058c-.548 0-1.234 0-1.92-.138l-.137.138v.414c.411.276.686.552.823.828.137.276.274.69.274 1.105 0 .828.137 1.794.137 2.899V106.713c0 .414-.137.69-.274.966s-.411.414-.686.552l-.274.138v.139l.137.138c.823 0 1.509-.138 1.92-.138.412 0 1.098 0 2.058.138h.137l.138-.138v-.139l-.138-.138c-.685-.414-.96-.828-1.097-1.656ZM102.886 106.437l-4.39-11.182-.823-2.21-.138-.137H95.89c-.411 0-.823 0-1.097-.138l-.137.138v.276c.411.276.686.552.96.966.274.276.412.69.412.967v.276l-4.528 10.906c-.411.966-1.097 1.656-1.92 1.932h-.137v.138l.137.277c.549-.138 1.098-.138 1.646-.138.412 0 .96 0 1.51.138l.136-.138v-.277c-.137-.138-.274-.414-.274-.552 0-.138.137-.414.137-.828l1.646-4.28c.823-.138 1.647-.138 2.47-.138.548 0 1.371 0 2.332.138l1.371 3.866c0 .138.138.138.138.276v.276c0 .138 0 .276-.275.552-.274.276-.274.414-.274.552v.138l.137.138c.686-.138 1.372-.138 2.195-.138.686 0 1.372 0 2.058.138l.137-.138v.138l-.137-.138c-.686-.276-1.235-.966-1.646-1.794Zm-4.253-4.97H94.929l1.92-4.832 1.784 4.832ZM126.343 92.908h-1.234c-.137 0-.412 0-.686-.138-.137 0-.412-.138-.549-.138l-.137.138v.276c.412.276.549.552.686.828.137.276.137.69.274 1.105 0 .966.137 1.932.137 3.037v6.626L114.82 92.908h-.96c-.412 0-.686 0-.96-.138l-.137.138v.276c.411.276.685.552.823.828.137.276.274.69.274.967v11.734c0 .414-.137.69-.274.966-.138.276-.412.414-.686.552l-.137.138.137.139h1.234c.549 0 1.235 0 2.058.138l.137-.138v-.139l-.137-.138c-.686-.276-.96-.828-.96-1.656-.137-1.657-.137-3.589-.137-5.522v-4.28l10.014 11.596c.549.553.549.553.686.553s.274-.138.274-.553V97.187c0-.69 0-1.242.137-1.794 0-.414.137-.829.275-1.243.137-.414.411-.552.686-.828l.137-.138v-.138l-.137-.276c-.138 0-.275 0-.824.138ZM144.451 108.231c-.686-.276-.96-.828-.96-1.656-.137-2.209-.137-4.004-.137-5.522v-3.866c0-.69 0-1.242.137-1.794 0-.414.137-.967.274-1.243.138-.414.412-.552.686-.828l.137-.138v-.138l-.137-.138h-2.057c-.686 0-1.235 0-1.921-.138l-.137.138v.276l.137.138c.412.276.686.552.823.828.137.276.274.69.274 1.105 0 .828.138 1.794.138 2.899V106.713c0 .414-.138.69-.275.966s-.411.414-.686.552l-.137.138v.139l.137.138c.823 0 1.509-.138 1.921-.138.411 0 1.097 0 2.058.138h.137l.137-.138v-.139l-.549-.138Z"/></symbol></svg>