<svg  viewBox="0 0 112 79" fill="none" xmlns="http://www.w3.org/2000/svg">
<path opacity="0.77" fill-rule="evenodd" clip-rule="evenodd" d="M44.1733 0.0395885C28.3928 0.390567 16.7522 1.17686 12.6454 2.16966C10.1603 2.77013 8.08622 3.99432 5.96474 6.11288C3.04829 9.02525 2.17438 11.195 1.22924 17.8702C-0.714747 31.6009 -0.290638 56.0991 2.06088 65.9124C3.4369 71.6547 7.86412 75.8467 13.7033 76.9363C21.9889 78.4821 47.4543 79.368 68.8118 78.8531C87.449 78.4039 96.5328 77.7226 100.554 76.4728C104.391 75.2803 107.908 71.9155 109.339 68.0686C111.077 63.3954 112.007 53.2793 112 39.1309C111.992 23.5063 110.929 13.997 108.694 9.53786C106.867 5.89534 103.009 2.97874 98.886 2.12385C95.2654 1.37303 88.5018 0.79464 78.387 0.37013C72.5578 0.125572 50.0721 -0.0917348 44.1733 0.0395885Z" fill="black"/>
<path opacity="0.99" fill-rule="evenodd" clip-rule="evenodd" d="M62.2525 31.4827C69.8064 35.8547 75.9018 39.5066 75.7978 39.5977C75.6937 39.6891 69.5133 43.2884 62.0633 47.5965C54.6134 51.9048 48.1763 55.6314 47.759 55.8781L47 56.327V39.4833V22.6396L47.759 23.0867C48.1763 23.3324 54.6984 27.1107 62.2525 31.4827Z" fill="white"/>
</svg>
