<svg  viewBox="0 0 119 91"  xmlns="http://www.w3.org/2000/svg">
<path d="M13.5499 32.647C8.79599 32.647 0.0254257 34.7751 0.0254257 61.0136C0.0254257 87.2763 8.79599 89.8156 13.5499 89.8156C15.787 89.8156 17.1598 89.3803 17.1598 89.3803V86.309C16.4734 86.4541 15.8633 86.5267 15.1006 86.5267C10.9568 86.5267 4.88101 83.0927 4.88101 61.0136C4.88101 39.3699 10.7281 35.9359 14.8718 35.9359C15.7107 35.9359 16.5751 36.1535 17.1852 36.3712V33.1548C17.1598 33.179 15.787 32.647 13.5499 32.647Z" />
<path d="M31.9299 33.0098H28.3199V89.4529H33.0993V69.5019C34.7008 71.3882 36.7092 74.532 38.2599 78.1352C39.6327 81.4241 40.4208 85.8012 40.4208 89.4771H44.8696C44.8696 85.6803 44.0307 80.9888 42.0224 76.3941C40.497 72.8875 38.4887 70.0339 36.6329 67.9058C39.4802 65.9954 45.556 60.5058 45.556 49.5509C45.5306 35.9359 38.1328 33.0098 31.9299 33.0098ZM33.0738 65.9954V36.3229C36.3787 36.3229 40.675 38.1366 40.675 49.5509C40.675 61.2555 34.5992 65.4875 33.0738 65.9954Z" />
<path d="M72.5796 33.0098H57.6061V66.4307H55.6741V69.7196H57.6061V89.4771H72.5796V86.1882H62.36V69.7196H70.2154V66.4307H62.36V36.2987H72.5796V33.0098Z" />
<path d="M115.238 33.0098H111.17L105.17 71.63L99.1709 33.0098H96.9592L90.9596 71.63L84.96 33.0098H80.257L89.4088 89.4771H91.8748L97.7981 52.9124L103.645 89.4771H106.086L115.238 33.0098Z" />
<path d="M2.38966 3.19217L2.99979 7.61765H1.77954L2.38966 3.19217ZM1.70327 0.0725602L0.0254257 10.6647H1.37279L1.62701 8.77843H3.15232L3.43196 10.6647H4.85559L3.17774 0.0725602H1.70327Z" />
<path d="M21.2273 0.0725602L19.1682 5.58628L17.109 0.0725602H16.3718V10.6647H17.8462V5.00589L18.8377 7.78693H19.4986L20.4901 5.00589V10.6647H21.9646V0.0725602H21.2273Z" />
<path d="M34.1163 0.0725602V6.02157H33.6332V7.18236H34.1163V10.6647H37.777V9.50392H35.6416V7.18236H37.3194V6.02157H35.6416V1.23334H37.777V0.0725602H34.1163Z" />
<path d="M50.5642 0.0725602H49.3693V10.6647H50.8947V7.37582C51.1743 7.66602 51.5302 8.17386 51.7844 8.80262C52.0132 9.38301 52.1403 10.0601 52.1403 10.6647H53.6402C53.6402 9.93921 53.5385 9.117 53.1826 8.29477C52.903 7.61765 52.4708 7.03726 52.1403 6.65033C52.6488 6.31177 53.7419 5.32027 53.7419 3.26471C53.7165 0.870598 52.1912 0.0725602 50.5642 0.0725602ZM50.8947 5.92484V1.25753C51.581 1.25753 52.1912 1.717 52.1912 3.2889C52.1912 5.07844 51.2251 5.87647 50.8947 5.92484Z" />
<path d="M67.063 0.0725602H65.5377V10.6647H67.063V0.0725602Z" />
<path d="M82.0365 0C80.8925 0 78.9858 0.435294 78.9858 5.34444C78.9858 10.2536 80.8925 10.7131 82.0365 10.7131C82.4686 10.7131 82.7737 10.6163 82.7737 10.6163V9.47973C82.6212 9.50391 82.4686 9.5281 82.2907 9.5281C81.6043 9.5281 80.5111 9.06862 80.5111 5.32026C80.5111 1.59608 81.6043 1.1366 82.2653 1.1366C82.4686 1.1366 82.6212 1.18497 82.7737 1.20915V0.0725497C82.7737 0.0967327 82.4432 0 82.0365 0Z" />
<path d="M96.5524 3.19217L97.1626 7.61765H95.9423L96.5524 3.19217ZM95.866 0.0725602L94.1882 10.6647H95.5355L95.7898 8.77843H97.3151L97.5947 10.6647H99.0183L97.3405 0.0725602H95.866Z" />
<path d="M113.763 0.0725602V6.14249L111.297 0.0725602H110.56V10.6647H112.034V4.61896L114.526 10.6647H115.263V0.0725602H113.763Z" />
<path d="M115.263 21.4015H0V22.2721H115.263V21.4015Z" />
<path d="M115.339 84.0353C114.348 84.0353 113.458 84.398 112.772 85.0268C112.06 85.7039 111.653 86.5987 111.653 87.5177C111.653 88.4366 112.034 89.3072 112.721 89.9601C113.433 90.6373 114.348 91 115.314 91C116.28 91 117.195 90.6373 117.932 89.9601C118.619 89.3072 119 88.4608 119 87.5177C119 86.5745 118.619 85.7039 117.958 85.051C117.246 84.398 116.356 84.0353 115.339 84.0353ZM115.339 90.5889C114.5 90.5889 113.687 90.2745 113.077 89.6941C112.467 89.1137 112.136 88.3399 112.136 87.5418C112.136 86.7196 112.467 85.9458 113.102 85.3412C113.687 84.7608 114.475 84.4706 115.365 84.4706C116.254 84.4706 117.043 84.785 117.678 85.3654C118.288 85.9458 118.619 86.7196 118.619 87.566C118.619 88.3882 118.288 89.1379 117.678 89.7183C117.017 90.2745 116.204 90.5889 115.339 90.5889ZM115.441 85.4863H113.89V89.4765H114.602V87.7353H115.492L116.382 89.4765H117.17L116.229 87.6386C116.839 87.5418 117.22 87.1307 117.22 86.5745C117.195 85.8249 116.61 85.4863 115.441 85.4863ZM114.602 87.3V85.9216H115.314C116.102 85.9216 116.483 86.115 116.483 86.6229C116.483 87.1307 116.127 87.3 115.339 87.3H114.602Z" />
</svg>
