<svg xmlns="http://www.w3.org/2000/svg" viewBox="0 0 1195 649"><path d="M1192.11,70.07c-47.94,13.78-113,26.42-159.81,27.57-14.84,0-36.52-3.45-39.95-3.45h-3.42q-3.43,1.73-3.43,3.45c0,2.29,1.14,3.44,2.29,4.59,4.56,4.6,5.7,5.74,13.69,11.49a178.93,178.93,0,0,0,17.13,10.34l3.42,1.15L820,201c-5.71-10.34-11.42-17.23-11.42-19.53,4.57-13.78,4.57-41.35-12.55-52.84-3.43-2.3-10.28-4.59-16-6.89-16-5.74-20.54-16.08-21.68-19.53,0,2.3-1.14,3.45-1.14,5.74-4.57-5.74-8-14.93-5.71-27.56,22.83-23,36.53-6.9,46.8-17.23C794.87,47.1,780,48.24,780,48.24s2.29-4.59,2.29-5.74c-36.53-6.89-44.52,16.08-44.52,16.08l-5.71-5.74s-16,13.78-17.12,27.57c-2.28-1.15-10.27,2.29-17.12,0C685.29,72.37,659,62,654.47,59.73c-1.14,0-2.28-1.15-4.56-1.15,0,0,1.14-17.23-32-8-3.42-1.15-6.85-1.15-10.27-2.3a51,51,0,0,0-12.56-9.19c-20.54-11.48-24,4.6-24,4.6-36.53-3.45-59.35-3.45-59.35-3.45s2.28-9.19-5.71-23A69.73,69.73,0,0,0,492.38,0c-5.71,8-10.27,9.19-18.26,23C461.56,42.5,441,49.39,401.06,46c-37.67-3.45-54.79-8-75.34,5.74-11.41,8-12.55,25.27-6.85,34.46,0,0,9.14,13.78,22.83,10.34C353.12,93,352,86.15,352,86.15s16,0,17.12,19.53c2.28,19.53-9.13,37.9-22.83,39-2.28,0,5.71,13.79,20.55,16.08,10.27,1.15,17.12,0,20.54-2.29a3.52,3.52,0,0,0,2.28-1.15v50.54S364.53,193,349.69,212.5c-2.28,2.3,16-1.14,17.13,17.24,3.42,39.05,9.13,48.24,16,52.83,3.42,2.3,8,3.45,8,8-11.42,1.15-20.55,9.19-20.55,17.23,0,9.19,9.13,16.09,21.69,17.23,0,1.15,0,4.6-1.14,6.9-2.29,4.59-12.56,9.19-17.12,23-1.15,4.6-2.29,9.19-2.29,13.78L243.54,417c-14.84,5.74-18.27,4.59-32,1.15-3.42-1.15-6.85-1.15-10.27-2.3-4.57-1.15-9.13-2.3-12.56-2.3-16-3.44-21.69-4.59-51.36,6.89l-18.27,6.9C76.88,443.39,19.8,464.06,8.39,467.51c-1.14,0-1.14,0-2.28,1.15C.4,471-.74,474.4.4,477.85c1.14,2.29,8,8,12.55,9.19s10.28,0,16,0a69.11,69.11,0,0,1,26.26,1.15c6.85,1.14,13.7,8,13.7,8v1.15a155.19,155.19,0,0,0-5.71,16.08c-5.71,18.38-25.11,39-24,41.35s3.42,5.74,9.13,3.45c1.14,0,1.14,0,2.28-1.15,10.28-4.6,61.64-25.27,103.88-41.36l13.7-6.89c29.67-11.48,36.52-20.67,46.8-33.31,2.28-2.3,10.27-12.63,12.55-14.93,8-11.49,12.56-14.94,26.26-19.53L371.38,394c-4.56,13.79-14.84,13.79-14.84,13.79S360,417,373.67,417c14.83,1.15,20.54-3.45,20.54-3.45v79.26S383.94,475.55,368,472.1c-41.1-9.18-44.52,29.87-38.81,31s4.56-8,17.12-6.89c10.27,1.15,20.55,8,18.26,35.61C362.25,558.26,338.28,564,338.28,564s4.56-20.68-17.12-23-34.25,29.86-5.71,52.83c19.4,16.09,53.65,6.9,73.05,1.15,35.39-10.34,49.09-14.93,75.34-17.23,10.28-1.15,67.35,5.75,62.78,40.21-2.28,20.67-22.83,19.52-18.26,25.27,4.57,6.89,29.68,9.19,39.95-2.3,11.42-12.64,6.85-23,6.85-23a25.08,25.08,0,0,0,10.27-18.38c0-8-1.14-10.34-1.14-10.34A411.11,411.11,0,0,0,610,583.53c2.29,14.93,11.42,12.63,16,9.19,2.29-1.15,9.14-8.05,12.56-13.79,13.7-3.45,19.41-6.89,29.68-11.49,12.55,0,28.54-5.74,26.25-16.08,16-10.33,26.26-18.38,35.39-28.71,4.56,4.59,10.27,1.14,12.56-1.15-2.29,10.34,8,23,9.13,24.12A15.38,15.38,0,0,1,754.92,556c3.43,4.59,10.28-1.15,11.42-2.3,2.28,2.3,6.85,3.45,10.27,4.6,18.26,4.59,34.24-6.9,29.68-23-4.57,3.45-12.56,6.89-17.12,5.75-10.28-1.15-13.7-8-17.13-12.64,0-8-2.28-8-2.28-12.64-1.14-23,32-11.48,35.39-42.5,2.28,3.45,8,3.45,9.13,2.3-1.14-4.59-3.43-11.49,0-17.23,2.28-6.89,8-11.49,9.13-19.53,1.14-12.63-2.28-16.08-2.28-16.08s9.13-10.34,4.56-24.12c-2.28-5.74-1.14-8,8-23,13.7-2.3,21.69-8,30.83-20.68,6.84-5.74,9.13-6.89,12.55-13.78,11.42-20.68-1.14-39.06-1.14-39.06s11.42-28.72-18.26-47.09c-1.15-8-10.28-16.09-16-19.53-4.56-2.3-5.7-4.6-11.41-17.23l200.9-75.82-1.14,3.45a127.22,127.22,0,0,0-6.85,18.38c-3.42,10.34-3.42,12.64-3.42,18.38,0,1.15,0,3.45,1.14,4.59a3.44,3.44,0,0,0,4.56,0c1.15,0,2.29-1.14,3.43-2.29,1.14-2.3,16-19.53,27.4-28.72,34.24-27.57,92.46-59.73,137-81.56C1196.68,73.51,1194.4,68.92,1192.11,70.07ZM814.28,207.91c0-1.15,1.14-1.15,2.28-1.15l8-3.44h1.14c1.15,0,2.29,1.14,3.43,2.29v2.3a1.12,1.12,0,0,1-1.14,1.15L817.7,212.5h-1.14c-1.14,0-2.28-1.14-3.42-2.29A3.58,3.58,0,0,1,814.28,207.91Zm-8,2.3c1.14,0,2.28,1.15,3.42,2.29v2.3a1.12,1.12,0,0,1-1.14,1.15l-110.72,42.5h-1.14c-1.14,0-2.29-1.15-3.43-2.3s0-3.44,2.29-4.59l110.72-41.35Zm12.55,88.44a4,4,0,0,1-2.28-1.14c-3.42,0-5.71,2.29-8,6.89s1.14,12.63,4.57,17.23c2.28,3.44,4.56,5.74,6.85,5.74a1.12,1.12,0,0,0,1.14-1.15c2.28-6.89,5.71-8,9.13-8,2.28,0,4.57,1.15,5.71,1.15a1.12,1.12,0,0,0-1.14,1.15c-1.15,1.15-2.29,4.59,0,14.93,3.42,17.23-4.57,19.53-5.71,19.53A26.55,26.55,0,0,0,820,336.56c-3.43-2.3-3.43-2.3-4.57-3.45-1.14,0-1.14-1.14-3.42-2.29-4.57-3.45-8-10.34-9.14-16.08,0-5.75,1.15-10.34,5.71-14.94,3.43-3.44,6.85-4.59,10.27-4.59,5.71,0,11.42,4.59,11.42,10.34,0,2.29,0,5.74-2.28,6.89a8.7,8.7,0,0,1-5.71,2.3,9.59,9.59,0,0,1-8-4.6c-1.14-2.3-1.14-4.59,0-5.74s2.28-2.3,3.42-2.3q3.43,0,3.43,3.45h1.14c1.14,0,1.14,0,1.14-1.15C822.27,302.1,821.13,299.8,818.84,298.65Zm-93.6,160.82c-14.84,9.19-30.82,2.3-33.1-6.89-2.28,2.29-5.71,11.48,0,23,4.57,9.19,9.13,11.49,9.13,11.49s-9.13,13.78-30.82,27.56c0,0-24-8-43.37,19.53-55.94-6.89-71.92,9.19-73.06,11.49l-5.71,1.15s-37.67,3.44-45.66,1.15c-2.28-2.3-5.7-3.45-8-5.75a1.12,1.12,0,0,1-1.14-1.14c-2.28-1.15-3.42-3.45-5.71-4.6a31.43,31.43,0,0,0-9.13-6.89V419.27c2.28,0,5.71,0,8-1.15,4.57,0,9.13-1.15,14.84-5.75a35.13,35.13,0,0,0,5.71-8s-18.27,3.45-21.69-34.46c-1.14-8-1.14-14.93-2.28-19.52L785.74,236.63a32.32,32.32,0,0,1,1.14,6.89s-4.56,5.74-5.7,16.08c-11.42,5.74-17.13,28.72-8,42.5-3.43,1.15-8,10.34-5.71,23,3.42,18.38,11.41,16.09,12.55,26.42,2.29,9.19,0,11.49-4.56,16.09-4.57,3.44-12.56,1.14-13.7,12.63-8,3.45-21.69,11.49-27.4,33.31C729.81,435.35,741.22,449.13,725.24,459.47Zm-60.5,65.47c16-11.48,27.4-19.52,33.11-25.27,1.14,0,1.14-1.15,2.28-1.15s1.14,0,2.28,1.15a3.52,3.52,0,0,1,0,4.6c-8,8-20.54,18.38-37.67,28.71C662.46,528.39,663.6,524.94,664.74,524.94Zm-17.12,19.53H644.2c9.13-14.93,19.4-21.82,19.4-21.82C654.47,530.69,647.62,544.47,647.62,544.47Zm-65.06-2.3c-4.57,0-8,0-11.42,1.15,5.71-3.44,14.84-4.59,27.4-4.59a189.48,189.48,0,0,1,27.39,2.3l-4.56,6.89C620.23,546.77,603.1,542.17,582.56,542.17Zm21.68,9.19h0c-25.11,5.75-59.35,6.9-73,8a75.86,75.86,0,0,0-14.84-1.14h-3.42c-2.29,0-4.57-1.15-4.57-2.3s0-1.15,2.28-2.3c10.28,0,44.52-1.15,73.06-4.59C590.55,549.07,596.26,550.21,604.24,551.36ZM466.12,323.93c12.56,0,21.69-8,21.69-17.23s-11.41-17.24-21.69-17.24h-2.28c1.14-5.74,10.28-6.89,17.12-17.23,9.14-13.78,6.85-37.9,10.28-47.09,6.85-14.93,17.12-12.64,17.12-12.64s-6.85-9.18-16-11.48H489c-4.56,0-8-1.15-11.41,0V122.91c1.14-3.45,2.28-5.74,3.42-9.19,5.71,2.3,14.84,4.59,20.55,0,9.13-6.89,10.28-11.49,10.28-11.49s-11.42-2.3-13.7-6.89a23.86,23.86,0,0,0-2.29-9.19s13.7-2.3,57.08,0a58.06,58.06,0,0,1,11.41,1.15,15.82,15.82,0,0,0,4.57,3.45,15.25,15.25,0,0,0,9.13-2.3,291.21,291.21,0,0,1,40,6.89c3.43,8,10.28,3.45,10.28,3.45l1.14-1.15c5.71,1.15,11.41,2.29,16,4.59,28.54,8,32,16.08,32,16.08s-21.69,8-17.12,31c2.28,14.93,21.69,16.08,28.54,8A12.14,12.14,0,0,0,691,145.88a9.15,9.15,0,0,0,5.71-10.34c0-2.29,2.28-1.14,4.56,1.15,3.43,3.45,4.57,5.74,12.56,9.19,1.14,3.45,4.56,10.34,8,13.78-1.14,0-5.71,1.15-6.85,2.3,0,0,5.71,4.6,11.42,26.42,3.42,12.64,27.39,23,36.52,23,2.29,0,4.57,1.14,6.85,1.14,2.28,2.3,4.57,5.75,6.85,8L468.41,333.11c-3.43-1.14-5.71-3.44-5.71-5.74a4.22,4.22,0,0,0-1.14-3.44Zm-3.42-13.79a2.46,2.46,0,0,1,2.28-2.3h9.14a2.3,2.3,0,0,1,0,4.6h-8C463.84,311.29,462.7,311.29,462.7,310.14Zm13.7,0a2.46,2.46,0,0,1,2.28-2.3h1.14a2.3,2.3,0,0,1,0,4.6h-1.14C477.54,311.29,476.4,311.29,476.4,310.14ZM581.42,85h0c0-1.15,12.55-9.19,24-14.93,2.28,1.15,3.42,2.3,3.42,4.59Q600.25,78.11,581.42,85Zm30.82,0h0c1.14,0,1.14,1.15,2.28,1.15v2.3c-5.71-1.15-11.42-2.3-18.26-3.45,0-1.15,2.28-2.3,3.42-2.3C604.24,83.85,607.67,83.85,612.24,85ZM599.68,67.77a190.71,190.71,0,0,0-30.82,18.38h-2.28c0-2.3,6.84-12.64,27.39-24.12,3.43,0,4.57,1.15,4.57,2.3C600.82,64.33,600.82,66.62,599.68,67.77ZM570,72.37a422.22,422.22,0,0,0-49.08-2.3H506.08c-1.14-1.15-1.14-3.45-1.14-4.6,0-2.29,2.28-3.44,4.56-4.59h13.7c12.56,0,33.1,0,55.93,3.45a1.12,1.12,0,0,1,1.14,1.14C580.27,67.77,574.57,71.22,570,72.37Zm-5.71,6.89c0,1.15-1.14,1.15-1.14,2.3-3.42,0-8-1.15-11.41-1.15a1.13,1.13,0,0,1-1.15-1.15V77a1.13,1.13,0,0,1,1.15-1.15c4.56,2.3,8,2.3,12.55,3.45Zm-19.4-1.15a3.58,3.58,0,0,1-1.14,2.3h-8a1.59,1.59,0,0,1,0-2.3L536.9,77h8Zm-30.82-2.3h13.7A1.12,1.12,0,0,1,528.91,77c0,1.15,0,1.15-1.14,1.15H491.24q0-1.73,3.42-3.45C500.37,77,506.08,75.81,514.07,75.81Zm111.86-3.44,2.29-1.15c21.69,4.59,41.09,11.48,57.07,20.67,4.57,6.9,10.28,9.19,13.7,11.49,1.14,1.15,2.28,1.15,3.42,2.3s2.29,2.29,2.29,4.59c0,1.15-2.29,2.3-4.57,2.3-17.12-11.49-40-21.82-66.21-28.72-4.56-3.44-8-10.34-8-11.48C625.93,73.51,624.79,72.37,625.93,72.37Zm-2.28-4.6c-1.14-2.3-1.14-3.44-2.28-4.59,4.56-2.3,16-5.75,21.69-6.9C637.35,62,627.08,65.47,623.65,67.77Zm105,81.56a119.11,119.11,0,0,0,1.14-19.53v-1.15c11.41,4.6,19.4,19.53,18.26,36.76,0,3.44,1.14,6.89,2.29,8a7.33,7.33,0,0,0,5.7,2.3c-1.14-2.3-2.28-8,1.15-12.64h1.14c5.7,3.45,8,4.6,10.27,17.23,1.14,6.89,8,9.19,12.56,9.19,2.28,0,3.42,0,4.56-1.15v1.15S776.61,201,764.05,201c-3.42,0-5.7-1.15-9.13-2.3,1.14,0,1.14-1.15,2.29-1.15,2.28-2.3,5.7-4.59,9.13-4.59h1.14c-2.28-5.75-9.13-6.89-14.84-8-2.28,0-4.57-1.15-5.71-1.15,2.28,3.44,6.85,3.44,8,3.44a13.75,13.75,0,0,1-5.71,1.15c-3.42,0-8-1.15-13.69-4.59a19.45,19.45,0,0,0,4.56,3.44,11.71,11.71,0,0,1-4.56,1.15c-2.29,0-6.85-2.29-10.28-10.34-1.14-3.44-1.14-5.74-2.28-6.89-1.14-4.59-1.14-5.74-3.42-6.89,1.14,0,2.28-1.15,3.42-1.15,2.28,0,4.57,1.15,6.85,2.3A34.1,34.1,0,0,1,728.67,149.33Zm63.92,47.09a119.57,119.57,0,0,1,6.85,11.49s-8,4.59-14.84,5.74c-2.28-8-8-8-9.13-8C775.47,205.61,788,203.32,792.59,196.42ZM723,151.63h0c-1.14,0,1.14-23-18.26-31-5.71-2.3-5.71-3.44-5.71-3.44l1.14-1.15c3.42,0,11.41,2.29,17.12,9.19C723,133.25,725.24,142.43,723,151.63Zm-36.53-11.49h0c-1.14-1.15-1.14-2.3-2.28-3.45-2.28-2.29-3.43-3.44-3.43-8-3.42,0-5.7,3.45-6.84,6.89a5.07,5.07,0,0,0,1.14,5.75c1.14,1.14,1.14,1.14,2.28,1.14a4.22,4.22,0,0,0,3.42-2.29s4.57,2.29,5.71,6.89c0,2.3,0,4.6-1.14,5.74-3.42,1.15-5.71,2.3-9.13,2.3s-6.85-2.3-9.13-4.59-4.57-8-2.29-16.08c2.29-6.9,10.28-14.94,21.69-14.94,8,0,18.27,3.45,29.68,19.53a45.62,45.62,0,0,1-14.84-8c-2.28-2.3-5.7-4.6-8-4.6a5,5,0,0,0-3.42,1.15,4.25,4.25,0,0,0-1.14,3.45C689.86,137.84,687.57,139,686.43,140.14Zm-8-28.72a25.2,25.2,0,0,1-5.71-3.45c-1.14,0-1.14-1.14-1.14-2.29a1.12,1.12,0,0,1,1.14-1.15h1.15c2.28,1.15,3.42,2.3,5.7,3.44,1.14,0,1.14,1.15,1.14,2.3S679.58,111.42,678.44,111.42Zm-10.27-8a1.12,1.12,0,0,1-1.14,1.15A225.59,225.59,0,0,0,630.5,91.89c-1.14-1.14,0-2.29,0-3.44,14.84,3.44,26.25,8,37.67,12.63Zm16,158.52c0,1.15-1.14,1.15-2.28,1.15l-30.82,11.48h-1.14c-1.15,0-2.29-1.15-3.43-2.3s0-3.44,2.28-4.59l30.82-11.49h1.14c1.15,0,2.29,1.15,3.43,2.3Q685.86,261.9,684.15,261.9ZM471.83,336.56l168.94-64.33h1.14c1.15,0,2.29,1.15,3.43,2.3s0,3.45-2.28,4.6L476.4,342.3C475.26,340,474.12,338.86,471.83,336.56Zm311.63-52.84c3.42,10.34,2.28,16.08-3.43,18.38-4.56-8-5.7-16.08-3.42-23,2.28-8,10.27-10.34,10.27-11.49C785.74,268.79,781.18,278,783.46,283.72ZM777.75,309H780c4.57,0,8,3.45,10.28,11.49,2.28,4.59,10.27,8,10.27,8H796C791.45,329.67,781.18,327.37,777.75,309Zm4.57,65.48c3.42,0,5.71-6.89,5.71-12.64,2.28,5.75,12.55,13.79,22.82,16.08,0,0-1.14,1.15-3.42,6.89C801.72,379.06,794.87,376.77,782.32,374.47Zm6.85-27.57c4.56-2.3,9.13-4.6,9.13-5.74h-3.43c-6.84,0-11.41-2.3-16-5.75-4.56-5.74-4.56-12.63-4.56-14.93,5.7,8,8,10.34,27.39,14.93,8,2.3,11.42,9.19,13.7,12.64a23.6,23.6,0,0,1,2.28,10.34c-4.56-5.75-12.55-8-17.12-8H796C790.31,351.49,789.17,346.9,789.17,346.9ZM812,255c-6.85,6.89-6.85,18.37-5.71,21.82,2.28,4.59,2.28,8,1.14,10.34s-2.28,2.29-2.28,2.29c-2.29-3.44-6.85-9.18-8-9.18,3.42,21.82-4.57,24.12-6.85,25.27,2.28-4.6,2.28-6.9,1.14-13.79,0-3.44-1.14-9.19-1.14-16.08,0-4.59,1.14-9.19,5.71-12.63,3.42-5.75,12.55-9.19,16-8C812,253.86,810.85,253.86,812,255ZM765.2,132.1a13.65,13.65,0,0,1-3.43-11.49c1.14,2.3,3.43,2.3,8,3.45,2.28,0,4.57,1.15,8,1.15,5.71,1.14,9.13,4.59,10.28,6.89a5.79,5.79,0,0,1-1.15,5.74,19.69,19.69,0,0,0-3.42-4.59c8,10.33,4.57,18.38,4.57,18.38s0-4.6-3.43-6.9c1.14,1.15,1.14,3.45,2.28,5.75,1.15,5.74,3.43,12.63,9.14,13.78-1.15-3.45,1.14-6.89,3.42-10.34,0-1.15,1.14-1.15,1.14-2.29,9.13,16.08-8,32.16-9.13,32.16v-1.15c1.14-1.15,2.28-8,0-12.64a8.6,8.6,0,0,0-8-5.74c-12.56,0-14.84-3.45-18.26-9.19,1.14-2.3,4.56-3.44,6.84-3.44s3.43,0,4.57,1.14a14.27,14.27,0,0,0-10.27-4.59h-2.29c-12.55,0-17.12-13.78-17.12-13.78a11.81,11.81,0,0,0,4.57,1.14,4.19,4.19,0,0,0,3.42-1.14C760.63,133.25,764.05,133.25,765.2,132.1Zm18.26-81.56a10.46,10.46,0,0,1,9.13,5.74c-3.42,1.15-6.85,2.3-9.13,2.3-5.71,0-8-2.3-8-2.3l3.42-4.59A11.79,11.79,0,0,1,783.46,50.54Zm-29.68-1.15A30.34,30.34,0,0,1,767.48,46a27.73,27.73,0,0,1,8,1.15S765.2,66.62,745.79,71.22v-2.3a65.47,65.47,0,0,0,8-9.19c1.14-2.3,3.43-3.45,4.57-4.59a39.43,39.43,0,0,0-12.56,8c0-1.15,0-3.45-1.14-4.6C744.65,58.58,744.65,54,753.78,49.39ZM749.21,116c3.43,3.44,4.57,4.59,5.71,4.59s1.14,1.15,1.14,2.3c0,0-10.27-2.3-11.41-16.08,0-3.45-1.14-5.75-1.14-6.9C743.51,103.38,745.79,111.42,749.21,116ZM694.42,87.3c1.15,0,2.29,0,16-2.3h2.29c6.85,0,10.27,3.45,12.55,5.75,0-2.3-1.14-6.9-1.14-11.49,0-8,2.29-11.49,5.71-14.93,1.14-1.15,2.28-2.3,2.28-4.6,13.7,12.64,9.13,34.46,9.13,34.46,0-3.44-3.42-11.49-4.56-13.78-1.14,2.29-2.29,6.89-2.29,12.63,0,6.89,5.71,14.93,5.71,14.93l-8-9.18c1.14,3.44,4.57,9.18,5.71,12.63,5.71,10.34,18.26,14.93,19.41,16.08h-4.57a37,37,0,0,1-14.84-3.44l1.14-3.45c-1.14,1.15-2.28,1.15-4.57,1.15h-4.56a5,5,0,0,0-3.42,1.15v-1.15c0-3.45,4.56-9.19,5.7-9.19,0,0-3.42-9.19-18.26-12.64C694.42,97.64,694.42,87.3,694.42,87.3Zm-8-10.34c2.29,1.15,2.29,3.45,1.14,4.6s-2.28,2.29-3.42,2.29L683,82.7c-12.56-6.89-27.4-12.63-43.38-17.23-1.14-3.44,2.28-5.74,4.57-6.89C660.18,65.47,673.88,71.22,686.43,77ZM615.66,52.84c11.42-3.45,20.55-4.6,24-4.6,2.28,0,5.71,0,5.71,1.15a1.12,1.12,0,0,1-1.14,1.15,107.61,107.61,0,0,0-26.26,6.89c0-1.15-1.14-2.29-2.28-4.59ZM580.27,36.76a4.19,4.19,0,0,1,3.43-1.15c2.28,0,11.41,1.15,24,18.38,13.7,17.23,17.12,26.42,18.26,36.76v5.74h-1.14c-1.14,0-1.14,0-1.14-1.15-18.26-45.95-43.38-56.29-43.38-56.29C579.13,37.91,579.13,36.76,580.27,36.76ZM506.08,47.1c2.28,0,3.42-1.15,4.56-1.15h17.13C541.46,46,562,47.1,586,49.39c3.43,1.15,6.85,4.6,5.71,8a516.65,516.65,0,0,0-65.07-4.59H504.94c-1.15-1.15-1.15-1.15-1.15-2.3A16.54,16.54,0,0,1,506.08,47.1ZM390.79,144.73s-4.57-3.44-5.71-6.89c-2.28,10.34-8,12.64-12.56,12.64H369.1c-10.27,0-12.56-5.75-12.56-5.75s10.28-1.15,12.56-11.48a12.22,12.22,0,0,1,6.85-9.19v5.74c4.56-2.3,6.85-10.34,5.7-18.38a85.17,85.17,0,0,1,0-18.38c1.15,0,3.43,0,3.43,1.15V93c0-1.15-2.28-6.89-14.84-14.93-8-4.6-16-8-21.69-8s-9.13,2.3-9.13,3.44a7.47,7.47,0,0,0-2.28,5.75l1.14,1.15V79.26c0-1.15,1.14-3.45,3.42-5.75,1.14,1.15,1.14,3.45,1.14,5.75,0,1.15-1.14,2.3-2.28,3.44s-2.28,1.15-4.56,1.15A12.53,12.53,0,0,1,324.58,77c-2.28-3.45-3.42-9.19,1.14-19.53,0,0,4.57-8,19.41-11.48h11.41c16,0,44.52,3.44,55.94,21.82-2.29-8-11.42-14.93-19.41-19.53l5.71,1.15c9.13,2.3,14.84,2.3,22.83,2.3a80.31,80.31,0,0,0,16-1.15c2.28,0,5.71-1.15,8-1.15a19.89,19.89,0,0,0,5.71-1.15,80.9,80.9,0,0,1,16-1.14c5.7,0,10.27,0,14.84,1.14-3.43-1.14-8-3.44-14.84-3.44H465A34.75,34.75,0,0,0,479.82,31c3.43-9.19,8-13.78,11.42-16.08,2.28-2.29,4.56-3.44,5.71-5.74,1.14,2.3,1.14,4.59,2.28,5.74,2.28,5.75,5.71,11.49-1.14,17.23a35.13,35.13,0,0,1-11.42,5.75c-2.28,1.14-4.56,1.14-4.56,3.44-1.15,2.3,0,2.3,3.42,4.6a26.24,26.24,0,0,1,9.13,8c-1.14,0-2.28,1.15-3.42,2.29C489,58.58,485.53,62,478.68,62h-3.42a21,21,0,0,1-8-2.3c-3.43-1.15-5.71-2.3-8-2.3a4.18,4.18,0,0,0-3.43,1.15c-1.14,1.15-2.28,3.45-1.14,4.6,1.14,2.29,4.57,4.59,10.27,4.59h3.43c9.13,0,12.55,2.3,14.84,5.74-1.14,0,0,1.15,1.14,1.15a2.46,2.46,0,0,0-2.28,2.3q-1.73,3.45-6.85,3.45H473c-1.14,0-2.28,1.15-3.42,2.29V85c0,1.15,1.14,1.15,2.28,1.15h2.29c2.28,0,4.56-1.15,5.7-1.15,4.57,0,6.85,2.3,11.42,8,6.85,9.19,8,10.34,11.41,10.34h-1.14a28.45,28.45,0,0,1-11.41,2.3c-6.85,0-12.56-3.45-17.13-9.19,0,0-4.56-9.19-9.13-9.19-1.14,0-2.28,1.15-3.42,2.3s0,2.29,2.28,4.59,4.57,4.6,4.57,8c0,5.74-2.29,8-2.29,8a22.28,22.28,0,0,1-13.69-9.19c-2.29-2.29-2.29-5.74-3.43-10.33,0-2.3-1.14-4.6-2.28-8C441,68.92,436.45,67.77,435.3,67.77s-2.28,1.15-3.42,2.3a7.37,7.37,0,0,0,0,6.89c2.28,9.19-1.14,12.64-3.42,16.08-1.14,1.15-2.29,2.3-2.29,3.45-1.14-1.15-2.28-1.15-3.42-2.3a15.28,15.28,0,0,1-6.85-5.74c-2.28-3.45-3.42-6.89-3.42-9.19s0-3.45-1.15-4.6c0,3.45,0,5.75-2.28,8-6.85-2.29-9.13-5.74-11.41-10.33A27.23,27.23,0,0,0,390.79,62c-5.71-5.75-9.14-6.89-11.42-6.89-3.42,0-5.7,1.14-6.85,4.59s-1.14,6.89,0,9.19c3.43,4.59,6.85,5.74,11.42,6.89,5.71,1.15,11.41,3.45,18.26,10.34,5.71,6.89,2.28,14.93,0,19.53h-1.14c-4.57-1.15-5.71-5.75-6.85-8a4,4,0,0,0-1.14-2.3c-1.14,1.15-1.14,4.59-1.14,9.19-1.14,10.34-2.28,25.27-12.56,34.46,6.85-4.59,9.13-10.34,13.7-23,2.28-8,2.28-11.49,2.28-11.49s4.57,5.74,5.71,11.49c1.14,4.59,0,6.89,0,6.89-1.14,0-3.42,0-4.57-3.45,0,2.3,1.15,4.6,1.15,5.75a11.43,11.43,0,0,1,1.14,9.19C393.07,143.58,390.79,144.73,390.79,144.73ZM465,170a2.46,2.46,0,0,1-2.28-2.29V126.35h1.14c1.14,0,1.14,0,2.28,1.15,0,1.15,1.15,1.15,1.15,2.3v39C467.27,170,466.12,170,465,170Zm2.29,4.6v29.86c0,4.6-2.29,5.75-2.29,5.75a1.12,1.12,0,0,1-1.14-1.15V174.6a2.46,2.46,0,0,1,2.28-2.3A4,4,0,0,1,467.27,174.6Zm-5.71-47.1v86.15c-1.14-1.15-6.85-3.44-8-6.89V122.91c1.14-1.15,1.14-1.15,2.28-1.15a8.64,8.64,0,0,1,4.57,2.3A4.23,4.23,0,0,1,461.56,127.5ZM441,174.6a2.46,2.46,0,0,1-2.28-2.3V170a2.29,2.29,0,1,1,4.57,0v2.3A2.47,2.47,0,0,1,441,174.6Zm2.29,4.59v14.94c-1.15-1.15-2.29-2.3-3.43-2.3V179.19a2.45,2.45,0,0,1,2.28-2.29A4,4,0,0,1,443.3,179.19ZM441,165.41a2.46,2.46,0,0,1-2.28-2.3V112.57a1.12,1.12,0,0,1,1.14-1.15,2.46,2.46,0,0,1,2.28,2.3v49.39C443.3,164.26,442.15,165.41,441,165.41ZM436.45,116v72.36c-1.15-1.15-2.29-1.15-3.43-2.29l-4.56,4.59V116a4.93,4.93,0,0,1,4.56-4.6C434.16,111.42,436.45,113.72,436.45,116ZM417,183.79a2.46,2.46,0,0,1-2.28-2.3v-54c1.14-1.15,2.28-2.29,3.42-2.29h1.14v56.28Zm1.14,5.74v17.23c-1.14,1.15-2.28,1.15-3.42,2.3V189.53a2.46,2.46,0,0,1,2.28-2.3A4,4,0,0,1,418.18,189.53Zm-6.85-55.13v79.25a3.58,3.58,0,0,0-1.14,2.3c0-3.45-2.28-4.59-5.71-5.74V149.33c3.43-4.6,4.57-8,5.71-13.79C409.05,134.4,410.19,134.4,411.33,134.4ZM394.21,271.09c-5.71-3.45-10.27-6.89-12.56-20.68-5.7-35.61-14.83-39-19.4-39H360s3.42-3.45,10.27-3.45c2.28,0,5.71,1.15,9.13,2.3,5.71,2.29,6.85,8,6.85,12.63,0,3.45,1.14,6.9,2.28,8,1.15-1.14,2.29-1.14,4.57-1.14h2.28c2.29,0,3.43,0,4.57-3.45l3.42,3.45c2.29,2.29,5.71,4.59,2.29,13.78-2.29,4.59-1.15,9.19,2.28,12.63a8.61,8.61,0,0,0,4.57,2.3c2.28,0,5.7-2.3,6.84-4.59,2.29-3.45,2.29-8,0-12.64-8-12.63-8-14.93-8-14.93a11.79,11.79,0,0,1,4.57-1.15,8.6,8.6,0,0,1,4.57,1.15,7.31,7.31,0,0,1,0-6.89c1.14-3.45,3.42-5.75,6.85-5.75v-9.19a15.66,15.66,0,0,0,3.42-4.59c1.14-2.3,2.28-2.3,2.28-3.45a14.23,14.23,0,0,1,2.28,3.45c1.15,1.15,2.29,3.45,3.43,4.59v9.19c2.28,0,4.57,3.45,6.85,5.75a7.37,7.37,0,0,1,0,6.89c1.14,0,2.28-1.15,4.56-1.15a11.73,11.73,0,0,1,4.57,1.15s0,2.3-8,14.93c-2.28,3.45-2.28,8,0,12.64,1.14,3.44,4.57,4.59,6.85,4.59s3.42-1.15,4.57-2.3c3.42-3.44,3.42-8,2.28-12.63-3.43-9.19-1.14-11.49,2.28-13.78l3.42-3.45c1.15,3.45,2.29,3.45,4.57,3.45H473c1.15,0,3.43,0,4.57,1.14,2.28-1.14,2.28-4.59,2.28-8,0-4.59,1.14-10.34,6.85-12.63,3.43-1.15,5.71-2.3,9.13-2.3,6.85,0,10.28,3.45,10.28,3.45h-2.29c-4.56,0-13.69,3.44-19.4,39-2.28,13.79-6.85,16.08-12.56,20.68-2.28,1.14-3.42,2.29-5.71,4.59-4.56,4.6-3.42,6.89-3.42,6.89h-1.14s-3.42-3.44-5.71-4.59l-3.42-1.15c-10.28-4.6-16-6.89-17.13-20.68,0-14.93-1.14-19.52-2.28-21.82-1.14,2.3-2.28,5.74-2.28,21.82,0,13.79-6.85,17.23-17.12,20.68L410.19,278a12.93,12.93,0,0,0-5.71,4.59h-1.14s2.29-2.29-3.42-6.89C397.64,274.53,395.35,273.38,394.21,271.09Zm51.37,19.52h0l-38.81,1.15c1.14-3.44,5.71-5.74,9.13-5.74H433C441,287.17,444.44,289.46,445.58,290.61Zm-54.79,20.68h-8a2.3,2.3,0,0,1,0-4.59h8a2.45,2.45,0,0,1,2.28,2.29C391.93,311.29,391.93,311.29,390.79,311.29Zm-10.28-6.89c0-6.89,16-10.34,20.55-10.34h60.5c4.56,0,21.69,4.59,21.69,10.34Zm71.92,31c-1.14,1.15-3.43,1.15-4.57,1.15H412.48c-6.85,0-11.42-9.19-11.42-14.93h12.56c13.7,0,29.68,2.3,38.81,13.78Zm-55.94-25.27a2.47,2.47,0,0,1,2.29-2.3H441a2.3,2.3,0,0,1,0,4.6H398.78C397.64,311.29,396.49,311.29,396.49,310.14ZM128.24,428.45c10.28-3.44,20.55-5.74,29.68-5.74,5.71,0,10.28,1.15,12.56,1.15-3.43-1.15-8-3.45-12.56-4.59,4.57-1.15,8-2.3,12.56-2.3,8,0,14.84,2.3,22.83,4.59s16,4.6,26.25,5.75c-4.56,2.29-11.41,3.44-19.4,3.44a90.33,90.33,0,0,1-12.56-1.15v1.15c1.14,2.3,8,3.45,10.27,3.45l-11.41,4.59c-1.14,1.15-3.42,1.15-4.56,1.15-4.57,0-10.28-2.3-17.13-4.59-9.13-3.45-18.26-6.9-29.68-6.9Zm-32,11.49s25.12-6.89,43.38-6.89h4.57c6.84,0,11.41,2.3,17.12,4.59,4.56,1.15,8,3.45,12.55,3.45-2.28,1.15-6.85,1.15-10.27,1.15s-8,0-11.41-1.15c-16-5.74-24-3.45-24-3.45h2.29s5.71,1.15,19.4,4.6a40.8,40.8,0,0,0,12.56,2.3,46.69,46.69,0,0,0,10.27-1.15l-6.85,3.44a66.31,66.31,0,0,1-16,2.3,14.41,14.41,0,0,1-6.85-1.15c-20.54-6.89-37.66-8-44.51-8-1.15,1.15-2.29,1.15-2.29,0ZM42.63,460.62a100.48,100.48,0,0,1,26.26-3.45c6.85,0,13.69,1.15,20.54,2.3,8,2.3,17.13,2.3,24,2.3h5.71l-13.69-3.45a14.41,14.41,0,0,0-6.85-1.15c-9.14-2.3-16-3.44-24-3.44a83.38,83.38,0,0,0-14.83,1.14s10.27-3.44,24-6.89c6.85-1.15,12.55-2.3,19.4-2.3s12.56,1.15,19.41,2.3c2.28,1.15,4.56,1.15,6.85,2.3a45.46,45.46,0,0,0,17.12,3.45,14.41,14.41,0,0,0,6.85-1.15l-24,9.19c-1.15,0-2.29,1.15-3.43,1.15-5.71,2.29-16,5.74-26.25,5.74-3.43,0-8,0-11.42-1.15-18.26-5.74-45.66-5.74-45.66-6.89ZM62,474.4c-2.28-1.15-4.57-1.15-6.85-2.3l9.13,4.6s-10.27-1.15-20.55-1.15H28.93C18.66,475.55,14.1,471,14.1,471c5.7-3.45,14.83-4.6,20.54-4.6a19.83,19.83,0,0,0-5.71-1.15h5.71c6.85,0,19.41,1.15,35.39,5.75,5.71,1.14,11.41,2.29,13.7,2.29H86a28.84,28.84,0,0,1-13.7,3.45C70,475.55,65.46,475.55,62,474.4Zm12.55,36.76c2.29-8,5.71-14.93,19.41-19.53-2.28,1.15-10.27,5.75-17.12,21.83-3.43,11.48-13.7,20.67-14.84,20.67C62,534.13,73.45,519.2,74.59,511.16Zm12.56,18.38c-1.14,2.3-5.71,4.59-12.56,9.19,3.43-4.6,9.14-12.64,10.28-16.08l-3.43,3.44A125.4,125.4,0,0,1,70,538.73c-4.57,3.44-12.56,6.89-12.56,8,0,0,16-12.64,25.11-31,5.71-11.48,11.42-18.37,18.27-24.12,4.57-3.44,11.41-5.74,12.55-5.74,0,0-5.7,5.74-8,9.19-2.29,4.59-5.71,12.63-9.14,19.52C91.72,521.5,88.29,528.39,87.15,529.54Zm9.13,2.3h0a144.48,144.48,0,0,0,8-18.38c5.71-13.79,11.42-31,25.12-35.61-6.85,5.74-12.56,16.08-17.13,27.57C107.7,515.75,103.13,526.09,96.28,531.84Zm9.14-5.75a4,4,0,0,1-2.29,1.15c-2.28,0-1.14,1.15-3.42,2.3,11.41-10.34,18.26-28.72,21.69-36.76a4,4,0,0,1,1.14-2.3c2.28-3.44,6.85-12.63,14.84-14.93a54.07,54.07,0,0,0-10.28,13.78C118,513.46,115.69,518.05,105.42,526.09Zm21.68-6.89h0c6.85-11.49,17.13-29.87,18.27-33.31-3.43,2.3-6.85,8-11.42,14.93-6.85,10.34-14.84,21.83-22.83,25.27H110c8-8,11.42-12.63,20.55-35.61,3.42-6.89,9.13-12.63,12.55-16.08,10.28-4.59,28.54-10.34,28.54-10.34s-12.55,9.19-19.4,29.87C148.79,506.57,127.1,519.2,127.1,519.2ZM173.9,487c-5.7,5.74-12.55,13.78-19.4,18.38,3.42-3.45,6.85-9.19,10.27-16.09,5.71-9.19,11.42-19.52,17.13-27.56,6.84-8,20.54-11.49,21.68-11.49a26.67,26.67,0,0,0-6.85,8c-4.56,8-14.83,19.53-18.26,23C177.33,483.59,176.19,485.89,173.9,487Zm53.65-44.8a51.59,51.59,0,0,0-6.84,9.19c-2.29,3.44-5.71,8-8,11.49s-3.42,5.74-4.56,5.74c-5.71,5.74-26.25,23-26.25,23S192.17,476.7,195.59,471q1.71-3.45,3.43-6.9c4.56-8,8-14.93,13.69-16.08,1.15,0,1.15,0,2.29-1.15L213.86,448c-3.43,4.6-5.71,8-8,11.49s-4.57,8-8,11.49l-3.42,3.44a64.67,64.67,0,0,1,5.71-4.59c3.42-3.45,6.85-9.19,9.13-13.79s5.71-8,10.27-12.63c5.71-1.15,6.85-2.3,8-1.15ZM90.58,487h0c-2.29,0-3.43-1.15-4.57-2.3s0-3.45,2.28-4.6L374.81,373.32a10.39,10.39,0,0,1-1.14,5.74ZM391.93,391.7c-1.14,0-3.43,0-4.57-1.15-2.28,1.15-2.28,4.59-2.28,8,0,4.59-1.14,10.34-6.85,12.64-3.42,1.14-5.71,2.29-9.13,2.29-6.85,0-10.27-3.44-10.27-3.44h2.28c4.56,0,13.7-3.45,19.4-39.06,2.29-13.78,6.85-16.08,12.56-20.67,2.28-1.15,3.42-2.3,5.71-4.6,4.56-4.59,3.42-6.89,3.42-6.89h1.14s3.43,3.44,5.71,4.59l3.43,1.15c10.27,4.6,16,6.89,17.12,20.68,0,14.93,1.14,19.52,2.28,21.82,1.14-2.3,2.28-5.74,2.28-21.82,0-13.79,6.85-17.23,17.13-20.68l3.42-1.15a12.86,12.86,0,0,0,5.71-4.59h1.14s-2.28,2.3,3.42,6.89c2.29,2.3,3.43,3.45,5.71,4.6,5.71,3.44,10.27,6.89,12.56,20.67,5.7,35.61,14.84,39.06,19.4,39.06h2.29s-3.43,3.44-10.28,3.44c-2.28,0-5.71-1.15-9.13-2.29-5.71-2.3-6.85-8.05-6.85-12.64,0-3.45-1.14-6.89-2.28-8-1.14,1.15-2.28,1.15-4.57,1.15h-2.28c-2.28,0-3.43,0-4.57,3.44l-3.42-3.44c-2.28-2.3-5.71-4.6-2.28-13.79,2.28-4.59,1.14-9.19-2.29-12.63a8.61,8.61,0,0,0-4.56-2.3c-2.29,0-5.71,2.3-6.85,4.6-2.28,3.44-2.28,8,0,12.63,8,12.64,8,14.93,8,14.93a11.73,11.73,0,0,1-4.57,1.15,8.56,8.56,0,0,1-4.56-1.15,7.39,7.39,0,0,1,0,6.9c-1.14,3.44-3.43,5.74-6.85,5.74V417a15.94,15.94,0,0,0-3.43,4.59c-1.14,1.15-2.28,2.3-2.28,3.45a14.23,14.23,0,0,1-2.28-3.45c-1.14-1.15-2.28-3.44-3.43-4.59v-9.19c-2.28,0-4.56-3.45-6.85-5.74a7.39,7.39,0,0,1,0-6.9c-1.14,0-2.28,1.15-4.56,1.15a11.79,11.79,0,0,1-4.57-1.15s0-2.29,8-14.93c2.29-3.44,2.29-8,0-12.63-1.14-3.45-4.56-4.6-6.85-4.6s-3.42,1.15-4.56,2.3c-3.43,3.44-3.43,8-2.29,12.63,3.43,9.19,1.15,11.49-2.28,13.79l-3.42,3.44c-1.14-3.44-2.29-3.44-4.57-3.44ZM465,456a2.46,2.46,0,0,1-2.28-2.29V410.08c0-2.3,1.14-3.45,2.28-3.45s1.14,0,1.14,1.15v44.8C467.27,454.87,466.12,456,465,456Zm2.29,5.75v60.88a1.12,1.12,0,0,1-1.15,1.14,2.45,2.45,0,0,1-2.28-2.29V461.77a2.46,2.46,0,0,1,2.28-2.3A4,4,0,0,0,467.27,461.77Zm-5.71,60.88a3.65,3.65,0,0,1-3.42,3.44c-2.29,0-4.57-1.15-4.57-4.59V419.27c0-6.9,4.57-6.9,5.71-6.9s2.28,1.15,3.42,1.15ZM441,487a2.46,2.46,0,0,1-2.28-2.3v-1.15a2.29,2.29,0,1,1,4.57,0v1.15A2.47,2.47,0,0,1,441,487Zm2.29,4.59V502a2.29,2.29,0,1,1-4.57,0V491.63a2.29,2.29,0,1,1,4.57,0ZM441,480.14a2.45,2.45,0,0,1-2.28-2.29V436.5a4.25,4.25,0,0,1,2.28-3.45h1.14V476.7C443.3,479,442.15,480.14,441,480.14Zm-4.56,39.06v2.3a4.19,4.19,0,0,1-3.43,1.15c-2.28,0-4.56-1.15-5.7-4.6V436.5h1.14c1.14,0,3.42,1.14,5.7,3.44a8.77,8.77,0,0,1,2.29,4.6ZM417,495.08a2.46,2.46,0,0,1-2.28-2.3v-47.1a2.28,2.28,0,1,1,4.56,0v47.1C418.18,495.08,417,495.08,417,495.08Zm1.14,5.74v23L417,524.94a16.72,16.72,0,0,0-2.28-8V502a2.46,2.46,0,0,1,2.28-2.3A1.12,1.12,0,0,1,418.18,500.82ZM417,441.09a2.46,2.46,0,0,1-2.28-2.3v-23a1.12,1.12,0,0,0,1.14-1.15,4,4,0,0,1,2.28,1.15v23A4,4,0,0,1,417,441.09Zm-5.71-29.86V510a2.46,2.46,0,0,1-2.28,2.3c-2.28,0-5.71-2.3-5.71-6.89V412.37c0-1.14,0-1.14,1.14-2.29,2.29-1.15,4.57,0,6.85,1.15Zm139.26,201h0c-1.14-3.44-2.28-9.19-4.56-9.19-1.14,0-1.14,0-2.28,1.15a8.76,8.76,0,0,0,1.14,4.6c1.14,3.44,3.42,6.89,2.28,10.34-1.14,5.74-3.42,9.18-4.57,9.18l-3.42-3.44c1.14,3.44,1.14,10.34-4.57,16.08a19.15,19.15,0,0,1-11.41,3.45,27.64,27.64,0,0,1-8-1.15c2.28,0,14.84-1.15,19.4-20.68,4.57-17.23-4.56-33.31-10.27-36.76l-1.14-1.15h1.14c3.43,0,14.84,3.45,20.55,8.05a33.5,33.5,0,0,0-26.26-12.64c-18.26-1.15-25.11-3.45-30.82-5.74-2.28-4.6-4.56-5.75-6.85-5.75-5.7-1.15-11.41-2.29-17.12-2.29a57.64,57.64,0,0,0-27.39,6.89,8.83,8.83,0,0,1-3.43,1.15l8-8,6.85-6.9c-20.54,13.79-36.53,21.83-47.94,21.83-4.57,0-6.85,4.59-6.85,4.59s2.28-5.74,2.28-10.34c-1.14,4.6-3.42,6.9-6.85,10.34-9.13,8-24,13.79-35.38,14.94h-4.57c-9.13,0-39.95-2.3-43.38-32.17-1.14-8,1.15-11.48,3.43-13.78a10.33,10.33,0,0,1,8-3.45c4.57,0,8,2.3,9.13,6.9,1.14,2.29,0,5.74-1.14,8a6.27,6.27,0,0,1-5.71,3.44,4.16,4.16,0,0,1-3.42-1.15c-1.14-1.15-2.28-3.44-1.14-4.59,0-2.3,2.28-4.6,3.42-4.6h0q-3.42,0-3.42,3.45c-1.14,3.45,0,9.19,1.14,13.78,4.57,8,10.27,12.64,21.69,13.79h4.56c-2.28,0-3.42-2.3-4.56-3.45L336,585.82c4.56,0,17.12-2.29,27.39-11.48,8-6.9,9.13-18.38,9.13-24.13-1.14,5.75-5.7,18.38-11.41,18.38H360c-2.29-1.15,0-4.59,2.28-9.19s6.85-12.63,6.85-19.52v-1.15c1.14-10.34,2.28-18.38-3.43-28.72-5.7-11.49-14.84-12.63-19.4-12.63-6.85,0-11.42,2.29-12.56,4.59,0,0,2.29-13.78,13.7-16.08,2.28,0,4.57-1.15,5.71-1.15,6.85,0,13.7,3.45,18.26,8,5.71,6.89,8,18.38,5.71,29.87-1.14,9.19,0,12.63,1.14,14.93a4.16,4.16,0,0,0,3.42,1.15h1.15c1.14,0,2.28,0,2.28-1.15,1.14-1.15,0-4.6-1.14-9.19v-1.15c-3.43-12.64,2.28-17.23,2.28-17.23,1.14,0,14.84,9.19,14.84,16.08a13.91,13.91,0,0,1-3.42,9.19c1.14,0,2.28-1.15,3.42-1.15a21,21,0,0,1,8,2.3c3.43,2.3,5.71,5.74,5.71,6.89a23.79,23.79,0,0,1-13.7,4.6c-1.14,0-3.42,0-4.57-1.15h-2.28c-2.28,0-3.42,1.15-3.42,2.3s0,1.14,1.14,1.14,2.28,1.15,3.42,1.15h3.43c5.7,0,10.27,2.3,11.41,6.9,1.14,3.44,1.14,6.89-2.28,9.18-1.14,1.15-2.28,1.15-4.57,1.15h-2.28c-1.14-1.15-2.28-2.29-2.28-3.44s0-1.15,2.28-2.3c1.14,0,1.14,0,2.28,1.15v-3.45a8.66,8.66,0,0,0-5.7-2.29c-3.43,0-6.85,1.14-10.28,2.29-6.85,3.45-12.55,10.34-12.55,14.93,0,1.15,0,2.3,1.14,2.3a4,4,0,0,1,2.28,1.15c2.28,0,3.42-2.3,5.71-4.59s4.56-6.9,11.41-10.34v4.59a4.05,4.05,0,0,0,3.43,2.3h2.28c3.42,0,9.13-1.15,9.13-10.34,0-6.89,2.29-11.48,10.28-20.67,3.42-4.6,10.27-5.75,14.83-5.75a24.68,24.68,0,0,1,6.85,1.15s-1.14,8-3.42,10.34c-3.43,2.3-3.43,4.59-3.43,5.74l1.15,1.15c1.14,0,2.28-1.15,4.56-2.3l2.29-2.29c3.42-4.6,8-9.19,13.69-9.19,2.29,0,4.57,0,6.85,2.3,8,3.44,9.13,3.44,9.13,3.44l-5.7,5.74-2.29,2.3c-2.28,2.3-2.28,3.45-6.84,4.6h2.28c4.56,0,6.85-2.3,10.27-4.6,1.14-1.15,2.28-1.15,3.43-2.3a16.48,16.48,0,0,1,8-2.29c5.7,0,10.27,3.44,13.69,6.89,2.29,1.15,3.43,3.45,5.71,3.45-3.42,2.29-8,2.29-10.27,2.29h-5.71c-1.14,0-2.28,0-2.28,1.15V564h11.41c9.13,0,18.27,1.15,32,6.89,20.55,8,28.54,23,28.54,29.87A9.66,9.66,0,0,1,550.59,612.24Zm63.93-36.76c-17.12,4.6-27.4,4.6-27.4,4.6a1.15,1.15,0,0,1,0-2.3s10.28,0,27.4-4.59Zm-59.36-1.14c-5.71-1.15-9.13-2.3-10.27-5.75a4.23,4.23,0,0,1,1.14-3.44,252.17,252.17,0,0,0,73.06-11.49q-1.73,5.18-3.43,10.34A329.38,329.38,0,0,1,555.16,574.34Zm66.21,14.93c-3.43,0-5.71-3.45-4.57-10.34,1.14-18.38,17.12-60.88,46.8-60.88h1.14C664.74,519.2,631.64,534.13,621.37,589.27Zm4.56-4.6C631.64,572,637.35,556,637.35,556l4.56,1.15v1.15C636.21,570.89,630.5,580.08,625.93,584.67ZM648.76,564c-1.14,0-2.28,1.15-4.56,1.15-1.14,0-2.29,1.15-3.43,1.15l1.14-2.3h6.85Zm38.81-8c-2.28,2.3-6.85,2.3-12.55,2.3-8,0-19.41-2.3-29.68-3.45l-5.71-1.15c-1.14,0-1.14-1.15-2.28-1.15-1.14-2.3,2.28-5.74,3.42-6.89C641.91,546.77,676.16,554.81,687.57,556Zm25.12-31c-4.57,3.45-9.14,8-12.56,10.34-1.14,0-1.14,1.15-2.28,1.15h-1.14v-1.15s0-1.15,2.28-2.3a121.5,121.5,0,0,0,12.55-10.33h2.29A3.56,3.56,0,0,1,712.69,524.94Zm-43.38,19.53h-4.57q-5.13,0-6.84-3.44c1.14-1.15,1.14-2.3,2.28-3.45,21.69-10.34,38.81-24.12,53.65-40.2a5.68,5.68,0,0,1,6.85,0q3.42,3.44,0,6.89C705.84,520.35,688.72,533,669.31,544.47ZM723,514.6l-4.57,4.6-1.14,1.15c-1.14,0-1.14,0-1.14-1.15v-2.3l4.57-4.59H723v2.29Zm-4.57-29.86h-1.14c-21.68-1.15-24-23-24-23s5.71,11.48,19.41,11.48c3.42,0,8-1.15,12.55-2.29,17.13-6.9,13.7-36.76,13.7-36.76,2.28,5.74,4.57,12.63,5.71,12.63,0-3.44-1.14-5.74-1.14-8-1.14-6.89-3.43-13.78,0-25.27,4.56-14.93,16-26.42,29.68-26.42A23.19,23.19,0,0,1,790.31,394c10.27,10.34,3.42,23,3.42,24.13,0-2.3-1.14-3.45-2.28-4.6,0,1.15,0,4.6-2.28,6.89s-4.57,3.45-9.14,3.45c-6.84,0-9.13-10.34-9.13-10.34a11.79,11.79,0,0,0,4.57,1.15c2.28,0,4.56-1.15,5.71-4.59,1.14-2.3,0-4.6-1.15-6.9-2.28-3.44-5.7-4.59-10.27-4.59a21,21,0,0,0-8,2.3c-11.41,5.74-12.56,17.23-11.41,21.82,2.28-8,3.42-8,3.42-8l1.14,1.15c0,1.15,1.14,3.45,2.29,5.74,2.28,3.45,3.42,8,5.7,12.64,2.29,9.19-4.56,18.38-4.56,19.53l-2.29-4.6v3.45c0,4.59-2.28,9.19-4.56,12.63-1.14,2.3-2.29,3.45-3.43,5.75-2.28-2.3-4.56-4.6-5.7-6.9C743.51,466.36,738.94,484.74,718.39,484.74Zm42.24,60.88h0c0-3.45-2.28-6.89-5.71-10.34-3.42-4.59-6.85-10.34-5.71-17.23,1.15-5.74,5.71-10.34,12.56-14.93,0,0-10.27,12.63-2.28,19.53C768.62,533,764.05,541,760.63,545.62Zm25.11,1.15a14.41,14.41,0,0,1,6.85-1.15,20.7,20.7,0,0,0,10.27-2.3c-1.14,4.6-5.7,6.89-11.41,6.89a6.27,6.27,0,0,1-5.71-3.44C785.74,547.92,784.6,546.77,785.74,546.77Zm-6.85-3.45c1.14,3.45,3.43,8,8,8h-4.56c-6.85,0-14.84-3.44-14.84-11.48,1.14-2.3,2.28-3.45,1.14-5.75h1.14C775.47,535.28,777.75,539.88,778.89,543.32Zm-11.41-48.24c-5.71,6.89-13.7,9.19-19.41,11.49-4.56,1.14-9.13,2.29-10.27,5.74-1.14-5.74,1.14-14.93,5.71-20.68,3.42-3.44,6.85-5.74,11.41-5.74h4.57c10.27,0,10.27,0,12.55-2.3C770.9,483.59,773.19,487,767.48,495.08Zm29.68-42.5v4.59c0,10.34-8,24.12-22.83,24.12H772q-10.26-1.73-13.69-10.33c-1.14-4.6,0-10.34,3.42-13.79,2.28-2.3,4.57-3.44,6.85-3.44s5.71,1.14,6.85,4.59c2.28,3.45,2.28,6.89,1.14,9.19A6.27,6.27,0,0,1,770.9,471c-2.28,0-4.56-1.15-4.56-3.45s0-3.45,1.14-4.59c0-1.15-1.14-1.15-2.28-1.15s-1.15,0-2.29,1.15-1.14,3.44-1.14,5.74c1.14,3.44,4.57,6.89,8,6.89h3.43c8-2.3,14.84-17.23,13.69-23a4,4,0,0,0-1.14-2.3H784.6a8.57,8.57,0,0,1-4.57,1.15c-8,0-9.13-9.19-9.13-9.19H772c1.15,0,4.57-1.15,13.7-10.34,6.85-6.89,12.56-9.19,16-9.19s5.71,1.15,5.71,2.3a25.87,25.87,0,0,0-10.27,20.67Zm13.69-8c-4.56,5.74-3.42,10.33-3.42,12.63v1.15c-2.28-2.3-8-11.49-5.71-20.68,1.14-4.59,3.43-8,8-10.33,1.14,0,4.57,3.44,4.57,8S813.14,442.24,810.85,444.54Zm5.71-21.83c-1.14-3.44-1.14-4.59-2.28-6.89-11.42-28.72-30.82-33.31-38.81-34.46h-9.13c0-1.15,0-1.15,1.14-2.3,2.28-2.29,11.41-3.44,12.55-3.44,5.71,0,32,5.74,38.81,34.46C818.84,410.08,820,420.41,816.56,422.71ZM823.41,371c-11.41,0-21.69-4.59-30.82-12.63,0,0,14.84,8,32,8a52.75,52.75,0,0,0,24-5.75C847.38,365.28,837.11,371,823.41,371ZM858.8,304.4c-2.29,3.44-2.29,5.74-2.29,9.19s1.15,9.19,0,20.67c-1.14,14.94-19.4,25.28-25.11,25.28h-1.14c9.13-9.19,9.13-21.83,9.13-26.43-1.14-5.74-1.14-9.18,1.14-12.63a4.05,4.05,0,0,1,3.43-2.3c2.28,4.6,4.56,10.34,5.7,10.34-2.28-12.63,0-18.38,2.29-21.82,2.28-2.3,4.56-3.45,6.85-2.3C858.8,303.25,857.66,303.25,858.8,304.4Zm2.28,34.46h0c0-1.15,3.43-10.34,2.28-14.93-2.28-8-1.14-13.79,3.43-14.94C877.06,329.67,861.08,338.86,861.08,338.86Zm-6.85-70.07A18.76,18.76,0,0,1,866.79,278c3.42,5.74,3.42,13.78,1.14,23q-8.56-1.72-6.85-17.23C861.08,276.83,854.23,268.79,854.23,268.79ZM852,280.28a19.33,19.33,0,0,1,1.14,13.78c-2.28,5.74-5.71,9.19-11.42,9.19-3.42,0-6.84-2.3-9.13-4.6-1.14-2.29-1.14-4.59-1.14-6.89a8.9,8.9,0,0,1,4.57-4.59h3.42c2.28,0,3.43,1.15,4.57,2.29s1.14,2.3,1.14,4.6a3.66,3.66,0,0,1-3.43,3.45c-1.14,0-2.28-1.15-3.42-2.3a1.12,1.12,0,0,0-1.14,1.15c0,1.15,2.28,3.44,4.56,3.44s3.43-1.15,4.57-2.29,2.28-3.45,2.28-6.9c0-8-11.41-14.93-16-14.93H831.4v1.15c0,3.45,0,5.74-2.28,8s-6.85,3.45-8,3.45c0-1.15,0-3.45-5.71-12.64-8-12.63-1.14-18.38-1.14-18.38A19.84,19.84,0,0,0,828,268.79c3.42,1.15,3.42,1.15,4.56,1.15s1.14,0,3.43,1.15C844,271.09,849.67,274.53,852,280.28Zm-17.12-31c5.7,2.3,11.41,3.45,12.55,12.64h-4.56c-9.14,0-14.84-4.6-19.41-10.34-4.57-4.6-9.13-8-16-9.19C800.58,253.86,790.31,255,789.17,255c10.27-10.34,3.42-19.53,2.28-19.53l16-5.74S812,240.07,825.69,247C830.26,248.11,832.54,248.11,834.83,249.26Zm148.39-98.78-86.75,32.16h-1.14l-61.65,23h-1.14a2.46,2.46,0,0,1-2.28-2.29c-1.14-1.15,0-3.45,1.14-3.45l148.39-56.29h1.15c1.14,0,2.28,1.15,3.42,2.3C985.5,148.18,985.5,149.33,983.22,150.48Zm141.54-54L993.49,145.88h-1.14c-1.14,0-2.28-1.15-3.42-2.3v-2.29a1.12,1.12,0,0,1,1.14-1.15l38.81-14.93c2.28-1.15,4.57-2.3,6.85-2.3-3.43-1.15-13.7-4.6-22.83-10.34a124.16,124.16,0,0,1-16-10.34,4,4,0,0,1-1.14-2.3c0-1.14,1.14-1.14,2.28-1.14a12.45,12.45,0,0,1,5.71,1.14c2.28,0,4.56,1.15,6.85,1.15,6.84,1.15,14.83,3.45,28.53,3.45,17.13,0,41.1-3.45,71.92-9.19A70.68,70.68,0,0,0,1124.76,96.49Z"/></svg>