<svg xmlns="http://www.w3.org/2000/svg" viewBox="0 0 324.32 315.98"><path d="M175.33,179.67l-2-3.45c41.22-23.92,76.09-53.09,98.19-82.15C293.25,65.48,300,40.6,290.43,24c-4.7-8.18-13.13-13.95-25.05-17.15-37.65-10.09-102.28,6.78-164.66,43C91.21,55.34,81.87,61.25,72.94,67.4c-7.38,5.08-14.53,10.37-21.27,15.73L49.18,80c6.81-5.42,14-10.76,21.49-15.89,9-6.21,18.45-12.18,28.05-17.75C162,9.66,227.79-7.36,266.41,3c13,3.48,22.24,9.88,27.49,19,10.39,18.08,3.57,44.53-19.2,74.48C252.28,126,217,155.5,175.33,179.67Z"/><path class="cls-1" d="M201,224.38l-2-3.46c41.22-23.91,76.09-53.09,98.19-82.15,21.74-28.58,28.46-53.47,18.92-70.07-4.7-8.18-13.13-14-25.05-17.15-37.64-10.09-102.28,6.78-164.65,43-9.58,5.56-18.93,11.47-27.79,17.58-7.38,5.08-14.54,10.37-21.27,15.72l-2.49-3.13c6.8-5.41,14-10.75,21.49-15.89,9-6.16,18.38-12.13,28.05-17.74,63.25-36.69,129.07-53.72,167.7-43.37,13,3.48,22.23,9.88,27.48,19,10.39,18.08,3.57,44.53-19.2,74.48C278,170.66,242.67,200.21,201,224.38Z"/><path class="cls-1" d="M57.47,271.29a98.52,98.52,0,0,1-25.37-3c-13-3.47-22.16-9.84-27.38-18.94-10.39-18.08-3.49-44.58,19.44-74.62,22.57-29.55,58.05-59.21,99.93-83.51l2,3.46c-41.43,24-76.51,53.33-98.76,82.48-21.89,28.67-28.69,53.6-19.16,70.2,4.68,8.14,13.07,13.88,25,17.06,37.76,10.12,102.75-6.89,165.56-43.34,9.52-5.52,18.92-11.47,27.94-17.66,7.42-5.12,14.61-10.43,21.39-15.79l2.48,3.13c-6.84,5.42-14.11,10.79-21.6,15.95-9.11,6.26-18.59,12.26-28.2,17.83C149.34,254.36,96.37,271.29,57.47,271.29Z"/><path class="cls-1" d="M83.16,316a98.28,98.28,0,0,1-25.39-3c-12.94-3.46-22.15-9.83-27.38-18.93C20,276,26.91,249.48,49.84,219.45c22.57-29.55,58.06-59.21,99.93-83.5l2,3.46c-41.43,24-76.5,53.33-98.76,82.47-21.89,28.67-28.69,53.59-19.16,70.19,4.67,8.14,13.07,13.88,25,17.06,37.77,10.12,102.76-6.89,165.57-43.33,9.63-5.59,19-11.53,27.93-17.66,7.33-5,14.52-10.35,21.39-15.79l2.49,3.13c-6.94,5.5-14.21,10.87-21.61,16-9,6.18-18.47,12.18-28.2,17.82C175,299.05,122.07,316,83.16,316Z"/></svg>