<svg xmlns="http://www.w3.org/2000/svg" viewBox="0 0 20.21 20.83"><path d="M14.77,20.83a6.44,6.44,0,0,1-4-1.4L8.12,17.37a23.47,23.47,0,0,1-4.59-4.8L1.22,9.36A6.52,6.52,0,0,1,1.8,1.07L2.39.46A1.47,1.47,0,0,1,3.47,0h0A1.47,1.47,0,0,1,4.55.46L7.92,4a1.5,1.5,0,0,1,0,2.08L6.52,7.52a.17.17,0,0,0,0,.18l.07.15a14.23,14.23,0,0,0,6.22,6.43.14.14,0,0,0,.16,0l1.32-1.38a1.48,1.48,0,0,1,1.08-.47h0a1.53,1.53,0,0,1,1.09.46l3.36,3.52a1.5,1.5,0,0,1,0,2.08l-.33.34A6.45,6.45,0,0,1,14.77,20.83ZM3.47,1a.48.48,0,0,0-.36.15l-.59.62a5.5,5.5,0,0,0-.49,7L4.34,12a22.27,22.27,0,0,0,4.4,4.59l2.63,2.07a5.49,5.49,0,0,0,7.37-.53l.33-.34a.49.49,0,0,0,0-.69l-3.36-3.52a.52.52,0,0,0-.37-.16h0a.52.52,0,0,0-.36.16L13.66,15a1.15,1.15,0,0,1-1.35.22A15.34,15.34,0,0,1,5.66,8.28l-.07-.15a1.16,1.16,0,0,1,.21-1.3L7.2,5.36a.51.51,0,0,0,0-.69L3.83,1.15A.48.48,0,0,0,3.47,1Z"/></svg>