<svg viewBox="0 0 77 142" fill="none" xmlns="http://www.w3.org/2000/svg">
<path d="M0.263672 127.482C0.263672 135.803 13.8086 144.857 13.8086 140.436C13.8086 136.015 0.263672 130.432 0.263672 127.482Z" fill="white"/>
<path d="M1.11523 123.593C1.11523 123.593 3.15564 129.737 15.4603 131.062C27.765 132.389 33.0145 129.737 33.0145 129.737C33.0145 129.737 24.8113 123.274 16.9367 122.941C9.06125 122.609 1.11523 123.593 1.11523 123.593Z" fill="white"/>
<path d="M1.11563 123.593C1.11563 123.593 0.189971 117.166 10.3798 110.072C20.5717 102.979 26.4385 102.781 26.4385 102.781C26.4385 102.781 23.0732 111.539 14.87 116.667C8.16572 120.857 1.11563 123.593 1.11563 123.593Z" fill="white"/>
<path d="M15.7031 119.042C15.7031 119.042 21.9796 116.18 31.4505 116.18C40.928 116.18 48.0645 121.156 48.0645 121.156C48.0645 121.156 41.0498 124.014 30.9596 124.014C20.8704 124.015 15.7031 119.042 15.7031 119.042Z" fill="white"/>
<path d="M27.3036 112.951C27.3036 112.951 27.8124 106.012 32.3331 97.5997C36.8547 89.1833 44.5859 85.2207 44.5859 85.2207C44.5859 85.2207 43.726 92.8143 38.9126 101.775C34.0946 110.734 27.3036 112.951 27.3036 112.951Z" fill="white"/>
<path d="M32.0333 112.085C32.0333 112.085 37.4697 107.817 46.682 105.576C55.8933 103.334 63.9822 106.48 63.9822 106.48C63.9822 106.48 57.8266 110.924 48.0177 113.311C38.2088 115.697 32.0333 112.085 32.0333 112.085Z" fill="white"/>
<path d="M40.1866 104.687C40.1866 104.687 43.5736 98.6305 51.2104 92.9646C58.8519 87.2988 67.5138 87.0413 67.5138 87.0413C67.5138 87.0413 63.535 93.5402 55.4007 99.5744C47.2674 105.608 40.1866 104.687 40.1866 104.687Z" fill="white"/>
<path d="M48.2833 92.2289C48.2833 92.2289 45.9913 86.0275 46.5888 76.9391C47.1892 67.849 52.3103 61.3154 52.3103 61.3154C52.3103 61.3154 54.556 68.2253 53.9179 77.9077C53.2807 87.5842 48.2833 92.2289 48.2833 92.2289Z" fill="white"/>
<path d="M54.7117 86.3544C54.7117 86.3544 57.0678 80.8356 63.1121 75.2598C69.1574 69.6819 76.5789 68.655 76.5789 68.655C76.5789 68.655 73.7489 74.6089 67.3128 80.5471C60.8749 86.4851 54.7117 86.3544 54.7117 86.3544Z" fill="white"/>
<path d="M58.3555 74.1231C58.3555 74.1231 58.6453 68.1185 62.3721 60.7528C66.0989 53.3883 72.6879 49.7949 72.6879 49.7949C72.6879 49.7949 72.1083 56.3713 68.1417 64.2156C64.1751 72.0607 58.3555 74.1231 58.3555 74.1231Z" fill="white"/>
<path d="M60.9009 56.2072C60.9009 56.2072 60.3883 50.2193 63.0994 42.4146C65.8105 34.6079 71.8633 30.1528 71.8633 30.1528C71.8633 30.1528 72.1644 36.7493 69.2749 45.0587C66.3901 53.3745 60.9009 56.2072 60.9009 56.2072Z" fill="white"/>
<path d="M58.4456 44.4036C58.4456 44.4036 55.726 39.0589 55.304 30.7971C54.8849 22.5354 58.8128 16.0938 58.8128 16.0938C58.8128 16.0938 61.5682 22.0797 62.0166 30.8777C62.4641 39.6765 58.4456 44.4036 58.4456 44.4036Z" fill="white"/>
<path d="M51.7424 30.1986C51.7424 30.1986 48.1997 25.372 46.4571 17.2896C44.7155 9.20669 47.554 2.20325 47.554 2.20325C47.554 2.20325 51.2336 7.65919 53.0904 16.2673C54.9501 24.8755 51.7424 30.1986 51.7424 30.1986Z" fill="white"/>
<path d="M58.0488 66.419C58.0488 66.419 53.6159 62.4096 50.3053 54.8439C46.9948 47.2775 48.3872 39.8406 48.3872 39.8406C48.3872 39.8406 53.0759 44.4415 56.6026 52.4969C60.1284 60.5539 58.0488 66.419 58.0488 66.419Z" fill="white"/>
<path d="M53.151 39.3755C53.151 39.3755 47.4899 37.5343 41.4192 31.9869C35.3447 26.4397 33.6238 19.0742 33.6238 19.0742C33.6238 19.0742 39.7569 21.3482 46.225 27.2554C52.6893 33.1624 53.151 39.3755 53.151 39.3755Z" fill="white"/>
<path d="M44.7814 22.8263C44.7814 22.8263 39.4262 20.2116 34.1692 13.8758C28.9112 7.53594 28.207 0 28.207 0C28.207 0 33.9757 3.10356 39.5753 9.85559C45.1741 16.6066 44.7814 22.8263 44.7814 22.8263Z" fill="white"/>
</svg>
